# Created by Open3D 
# object name: 016.600000
# number of vertices: 236
# number of triangles: 352
v 2.71171 23 4
vn 1 0 0
v 3 22.7382 4
vn 5.37604e-17 1 0
v 3 23 3.8352
vn 3.22464e-17 0 1
v 3 23 4.4373
vn 6.44928e-17 0 -1
v 3 23.2401 4
vn -5.37604e-17 -1 0
v 2.5526 29 6
vn 1 -3.27862e-17 0
v 3 28.5256 6
vn 3.80002e-17 1 0
v 3 29 5.05711
vn 7.36385e-17 0 1
v 3 29 6.33794
vn -3.68193e-17 0 -1
v 3 29.1865 6
vn -1.90001e-17 -1 0
v 2.99651 31 8
vn 1 0 0
v 3 30.9949 8
vn 6.18743e-18 1 0
v 3 31 7.98935
vn 0 0 1
v 3 31 8.00397
vn -9.78787e-18 0 -1
v 3 31.0134 8
vn -1.23749e-17 -1 0
v 3.14045 23 4
vn -1 0 0
v 3.12286 29 6
vn -1 0 0
v 3.03396 31 8
vn -1 0 0
v 3.94584 32 4
vn 0.817828 0.121695 0.562449
v 4 31.9385 4
vn 0 1 0
v 4 32 3.97916
vn -0.519029 0.100017 0.848885
v 4 32 4.08301
vn 0.770257 0.145062 -0.621016
v 3.94595 32 8
vn 1 0 0
v 4 31.8708 8
vn -1.19586e-16 1 0
v 4 32 7.97002
vn -5.43502e-18 0 1
v 4 32 8.02281
vn 5.43502e-18 0 -1
v 3.83247 33 4
vn 0.996468 -0.0177572 -0.0820703
v 4 33 3.86664
vn 0.0458588 -0.00883704 0.998909
v 4 33 4.30649
vn -0.193474 -0.0364369 -0.980429
v 4 32.016 8
vn 0 -1 0
v 4 33.3064 4
vn 1.03085e-16 -1 0
v 4.0208 32 4
vn -0.943916 0.102717 -0.313803
v 4.01465 32 8
vn -1 0 0
v 4.13854 33 4
vn -0.999325 -0.0114255 0.0349053
v 4.50941 35 4
vn 0.991023 -0.090014 0.098849
v 5 34.2865 4
vn 0.156676 0.979033 0.130179
v 5 35 3.40636
vn 0 0 1
v 4.78781 35 5
vn 0.957015 0.187906 -0.22094
v 5 34.6831 5
vn -0.248062 0.946018 -0.208604
v 4.94847 35 6
vn 0.915416 0.368891 -0.161036
v 5 34.9321 6
vn -0.239172 0.954917 -0.175869
v 5 35 6.11774
vn 0 0 -1
v 5 35.511 4
vn -0.152479 -0.971949 0.179068
v 5 35.3846 5
vn 0.138438 -0.973227 -0.18348
v 5 35.1197 6
vn 0.418123 -0.862647 -0.284627
v 5.74813 14 6
vn 1 0 0
v 6 13.3736 6
vn 1.27417e-16 1 0
v 6 14 5.7988
vn 0 0 1
v 6 14 6.68468
vn 9.52097e-17 0 -1
v 6 14.5591 6
vn 0 -1 0
v 5.6187 35 4
vn -0.93123 0.280716 0.232397
v 5.68379 35 5
vn -0.985961 -0.0747021 -0.149336
v 5.46854 35 6
vn -0.620775 -0.71426 -0.32322
v 5.42725 36 5
vn 0.986814 0 0.161859
v 6 35.1774 5
vn 5.45596e-17 0.905067 0.425269
v 6 36 4.18387
vn 0 0 1
v 5.52704 36 6
vn 0.933292 2.03366e-17 -0.359118
v 6 35.1466 6
vn 4.59903e-17 0.938392 -0.345573
v 6 36 6.48847
vn -3.85839e-17 0 -1
v 6 36.9524 5
vn -0.34274 -0.882408 0.322312
v 6 36.8581 6
vn 0.424391 -0.812782 -0.399096
v 6.23992 14 6
vn -1 0 0
v 6.9858 26 5
vn 1 0 0
v 7 25.9706 5
vn 0 1 0
v 7 26 4.98485
vn 0 0 1
v 7 26 5.03574
vn -2.13431e-17 0 -1
v 7 26.035 5
vn -2.69928e-17 -1 0
v 6.44133 36 5
vn -0.983114 0.0886535 0.160085
v 6.36765 36 6
vn -0.967755 -0.122033 -0.220359
v 6.56482 38 5
vn 0.974393 0.105039 0.198808
v 7 37.4504 5
vn 0.316225 0.922206 0.22257
v 7 38 4.53726
vn -0.481069 0.725527 0.492121
v 6.62623 38 6
vn 0.964336 0.0477205 -0.260345
v 7 37.488 6
vn -0.448951 0.83582 -0.315987
v 7 38 6.27167
vn 0 0 -1
v 6.90099 39 4
vn 0.951808 -0.267257 0.150448
v 7 38.7815 4
vn 0.254896 0.534769 0.805637
v 7 39 3.86507
vn 0.0205985 0.110127 0.993704
v 6.86711 39 5
vn 0.901595 -0.411401 -0.133702
v 7 38.3813 6
vn 0.279182 -0.706904 -0.64988
v 7 39 5.29124
vn -0.393749 -0.67728 -0.621493
v 7 39.1533 4
vn 0.0692042 -0.98258 0.172473
v 7 39.1279 5
vn 0.050068 -0.992156 -0.114541
v 7.83845 23 6
vn 1 -1.88449e-17 0
v 8 22.8884 6
vn 0 1 0
v 8 23 5.60006
vn 1.24112e-16 0 1
v 8 23 6.07125
vn 0 0 -1
v 8 23.2791 6
vn 7.71879e-17 -1 0
v 7.14364 26 5
vn -1 0 0
v 7.33006 38 5
vn -0.966927 0.238605 0.0901147
v 7.17127 38 6
vn -0.934715 -0.0918677 -0.343321
v 8 38.9663 4
vn -0.608907 0.770955 0.18671
v 8 39 3.95097
vn -0.0815918 -0.436218 0.896134
v 7.35167 39 5
vn -0.941294 -0.021868 -0.336879
v 8 39 4.11561
vn -0.829174 0 -0.55899
v 8 39.087 4
vn -0.190973 -0.978975 -0.0716817
v 7.77605 40 6
vn 1 -3.07916e-17 0
v 8 39.4865 6
vn 0.0440609 0.999029 1.10435e-05
v 8 40 5.64721
vn 0.0130001 0.0515158 0.998588
v 8 40 6.89056
vn 0.701995 -0.54354 -0.460182
v 8 40.2115 6
vn 0.0782297 -0.994847 0.0644904
v 8.12463 23 6
vn -1 -9.42243e-18 0
v 8.02582 39 4
vn -1 2.18139e-17 0
v 9 39.9591 6
vn -0.411175 0.845789 0.339966
v 9 40 5.95211
vn -0.187235 -0.741957 0.643772
v 8.30968 40 7
vn 0.124928 0.763378 -0.633756
v 9 39.9407 7
vn -0.266664 0.941543 -0.205882
v 9 40 7.05338
vn 0 0 -1
v 9 40.0513 6
vn -0.320895 -0.935885 0.145413
v 9 40.1666 7
vn -0.0657875 -0.989656 -0.127484
v 9.8199 9 8
vn 1 -2.43897e-17 0
v 10 8.30388 8
vn 0 1 0
v 10 9 7.84012
vn 0 0 1
v 10 9 8.18889
vn -3.58749e-17 0 -1
v 10 9.11961 8
vn 2.79694e-17 -1 0
v 9.02696 40 6
vn -0.94044 0.337903 0.037345
v 9.05598 40 7
vn -0.995628 -0.092844 -0.0102611
v 10.2268 8 8
vn 1 -6.33008e-17 0
v 11 7.35223 8
vn 0 1 0
v 11 8 7.79234
vn -1.52052e-17 0 1
v 11 8 8.28588
vn -1.52052e-17 0 -1
v 10.1756 9 8
vn -1 0 0
v 11 8.24063 8
vn 0 -1 0
v 11.2542 8 8
vn -1 0 0
v 12.3781 6 8
vn 1 0 0
v 13 5.63385 8
vn -2.86359e-17 1 0
v 13 6 7.65002
vn 2.53089e-17 0 1
v 13 6 8.42941
vn 0 0 -1
v 13 6.5157 8
vn 0 -1 0
v 13.917 5 4
vn 0.811296 0.0901889 0.577638
v 14 4.95937 4
vn -7.55809e-18 1 0
v 14 5 3.92601
vn -0.166301 0.0244444 0.985772
v 14 5 4.07986
vn 0.151249 0.0693158 -0.986062
v 13.8317 6 4
vn 0.947105 -0.0495073 -0.317082
v 14 6 3.92372
vn 0.222282 -0.0326729 0.974435
v 14 6 4.08535
vn -0.148267 -0.0679491 -0.98661
v 13.6217 6 8
vn -1 0 0
v 14 6.03912 4
vn 1.15497e-17 -1 0
v 14.29 5 4
vn -0.966839 0.0401865 -0.252206
v 14.064 6 4
vn -0.635881 -0.121445 0.762172
v 14.4336 45 4
vn 1 0 0
v 15 44.6589 4
vn 0.0467589 0.994288 -0.0959383
v 15 45 3.78829
vn 0.0660563 0.158229 0.98519
v 15 45 4.66089
vn 0.132927 -0.222611 -0.965803
v 15 45.259 4
vn 0.135769 -0.977382 0.162148
v 16 44.8415 4
vn -0.202917 0.886277 0.416339
v 16 45 3.82358
vn -0.115416 -0.276462 0.954069
v 16 45 4.27567
vn -0.352543 0.590399 -0.726046
v 16 45.256 4
vn -0.177333 -0.961092 -0.211789
v 16.1378 45 4
vn -1 0 0
v 20.466 3 4
vn 1 0 0
v 21 2.40847 4
vn -3.36576e-17 1 0
v 21 3 3.63935
vn 1.48856e-17 0 1
v 21 3 4.36443
vn 1.48856e-17 0 -1
v 21 3.22821 4
vn 0 -1 0
v 21.6033 3 4
vn -1 0 0
v 21.8621 27 4
vn 1 1.19645e-17 0
v 22 26.6902 4
vn -4.07089e-17 1 0
v 22 27 3.70814
vn 0 0 1
v 22 27 4.06764
vn 9.072e-18 0 -1
v 22 27.0935 4
vn 1.01772e-17 -1 0
v 22.0992 27 4
vn -1 5.98225e-18 0
v 26.3454 3 5
vn 1 0 0
v 27 2.55543 5
vn 0.114838 0.96701 -0.227385
v 27 3 4.71064
vn 0.299599 0.532342 0.79174
v 27 3 5.53862
vn 0.103634 -0.177502 -0.978649
v 27 3.18994 5
vn 0.0889968 -0.994252 0.0595214
v 26.5487 13 4
vn 1 2.41097e-17 0
v 27 12.5876 4
vn -2.22834e-17 1 0
v 27 13 3.4959
vn 0 0 1
v 27 13 4.24091
vn 0 0 -1
v 27 13.3602 4
vn 2.22834e-17 -1 0
v 28 2.62715 5
vn -0.121698 0.962873 0.240969
v 28 3 4.04342
vn -0.180369 -0.320488 0.929922
v 28 3 5.21568
vn -0.249681 0.427649 -0.868778
v 28 3.13928 5
vn -0.138248 -0.986072 -0.0924609
v 27.3846 13 4
vn -1 -4.82195e-17 0
v 28.2685 3 5
vn -1 -3.4674e-17 0
v 31.6788 4 5
vn 1 -2.5523e-17 0
v 32 3.6207 5
vn 0 1 0
v 32 4 4.66349
vn 0 0 1
v 32 4 5.18469
vn 0 0 -1
v 32 4.14231 5
vn 0 -1 0
v 32.2414 4 5
vn -1 2.5523e-17 0
v 32.73 18 7
vn 1 -1.55679e-17 0
v 33 17.3112 7
vn -4.80751e-17 1 0
v 33 18 6.67041
vn 0 0 1
v 33 18 7.14987
vn -1.23973e-17 0 -1
v 33 18.2409 7
vn 2.40375e-17 -1 0
v 33.3321 18 7
vn -1 0 0
v 34.4812 21 6
vn 0.999981 0.00194189 0.00580157
v 35 20.1395 6
vn 0 1 0
v 35 21 5.66146
vn -0.00667964 0.0034922 0.999972
v 35 21 6.32524
vn 0.00254128 0.000631556 -0.999997
v 34.9928 22 6
vn 0.525989 -0.269954 -0.806511
v 35 22 5.99053
vn 0.518129 -0.270884 0.811273
v 35 22 6.00361
vn -0.775074 -0.192621 -0.601795
v 35 22.0035 6
vn -1.1566e-17 -1 0
v 35.2413 21 6
vn -0.999994 0.0010976 -0.00320796
v 35.004 22 6
vn -0.80953 -0.190052 0.555466
v 37.7359 7 8
vn 1 0 0
v 38 6.62479 8
vn 0 1 0
v 38 7 7.70547
vn 0 0 1
v 38 7 8.43379
vn -3.30916e-17 0 -1
v 38 7.26755 8
vn 0 -1 0
v 37.8971 23 8
vn 1 1.53725e-17 0
v 38 22.9057 8
vn 0 1 0
v 38 23 7.87923
vn 0 0 1
v 38 23 8.14846
vn 0 0 -1
v 38 23.3249 8
vn 0 -1 0
v 38.3883 7 8
vn -1 -5.929e-17 0
v 38.899 8 5
vn 1 -1.63453e-17 0
v 39 7.79475 5
vn 0 1 0
v 39 8 4.81089
vn 0 0 1
v 39 8 5.13676
vn 0 0 -1
v 39 8.12044 5
vn 0 -1 0
v 38.2058 23 8
vn -1 0 0
v 39.4618 8 5
vn -1 0 0
v 40.7568 9 4
vn 1 2.90591e-17 0
v 41 8.90897 4
vn 0 1 0
v 41 9 3.90526
vn 0 0 1
v 41 9 4.22783
vn 0 0 -1
v 41 9.64922 4
vn 0 -1 0
v 41.1133 9 4
vn -1 0 0
v 45.9751 19 3
vn 1 2.79846e-17 0
v 46 18.9556 3
vn 3.80845e-17 1 0
v 46 19 2.97828
vn -1.14956e-17 0 1
v 46 19 3.07501
vn 4.59823e-17 0 -1
v 46 19.0357 3
vn 0 -1 0
v 46.0929 19 3
vn -1 0 0
v 46.7974 21 8
vn 1 0 0
v 47 20.5878 8
vn 0 1 0
v 47 21 7.77343
vn -2.21633e-17 0 1
v 47 21 8.266
vn -4.43267e-17 0 -1
v 47 21.1856 8
vn 2.68998e-17 -1 0
v 47.3211 21 8
vn -1 4.7127e-17 0
f 3//3 1//1 2//2
f 2//2 1//1 4//4
f 3//3 5//5 1//1
f 1//1 5//5 4//4
f 8//8 6//6 7//7
f 7//7 6//6 9//9
f 8//8 10//10 6//6
f 6//6 10//10 9//9
f 13//13 11//11 12//12
f 12//12 11//11 14//14
f 13//13 15//15 11//11
f 11//11 15//15 14//14
f 2//2 16//16 3//3
f 2//2 4//4 16//16
f 16//16 5//5 3//3
f 16//16 4//4 5//5
f 7//7 17//17 8//8
f 7//7 9//9 17//17
f 17//17 10//10 8//8
f 17//17 9//9 10//10
f 12//12 18//18 13//13
f 12//12 14//14 18//18
f 21//21 19//19 20//20
f 20//20 19//19 22//22
f 24//24 25//25 23//23
f 18//18 15//15 13//13
f 18//18 14//14 15//15
f 24//24 23//23 26//26
f 28//28 19//19 21//21
f 27//27 19//19 28//28
f 22//22 27//27 29//29
f 19//19 27//27 22//22
f 25//25 30//30 23//23
f 23//23 30//30 26//26
f 28//28 31//31 27//27
f 27//27 31//31 29//29
f 20//20 32//32 21//21
f 20//20 22//22 32//32
f 24//24 33//33 25//25
f 24//24 26//26 33//33
f 34//34 21//21 32//32
f 28//28 21//21 34//34
f 32//32 29//29 34//34
f 22//22 29//29 32//32
f 33//33 30//30 25//25
f 33//33 26//26 30//30
f 34//34 31//31 28//28
f 34//34 29//29 31//31
f 37//37 35//35 36//36
f 36//36 38//38 39//39
f 35//35 38//38 36//36
f 39//39 40//40 41//41
f 38//38 40//40 39//39
f 41//41 40//40 42//42
f 37//37 43//43 35//35
f 35//35 44//44 38//38
f 43//43 44//44 35//35
f 38//38 45//45 40//40
f 44//44 45//45 38//38
f 40//40 45//45 42//42
f 48//48 46//46 47//47
f 47//47 46//46 49//49
f 48//48 50//50 46//46
f 46//46 50//50 49//49
f 36//36 51//51 37//37
f 39//39 51//51 36//36
f 52//52 51//51 39//39
f 41//41 52//52 39//39
f 53//53 52//52 41//41
f 41//41 42//42 53//53
f 51//51 43//43 37//37
f 52//52 43//43 51//51
f 52//52 44//44 43//43
f 54//54 55//55 56//56
f 55//55 54//54 58//58
f 58//58 54//54 57//57
f 44//44 52//52 53//53
f 44//44 53//53 45//45
f 53//53 42//42 45//45
f 58//58 57//57 59//59
f 56//56 60//60 54//54
f 54//54 61//61 57//57
f 60//60 61//61 54//54
f 57//57 61//61 59//59
f 47//47 62//62 48//48
f 47//47 49//49 62//62
f 62//62 50//50 48//48
f 62//62 49//49 50//50
f 65//65 63//63 64//64
f 64//64 63//63 66//66
f 65//65 67//67 63//63
f 63//63 67//67 66//66
f 55//55 68//68 56//56
f 58//58 68//68 55//55
f 69//69 68//68 58//58
f 58//58 59//59 69//69
f 68//68 60//60 56//56
f 69//69 60//60 68//68
f 61//61 60//60 69//69
f 69//69 59//59 61//61
f 72//72 70//70 71//71
f 71//71 73//73 74//74
f 70//70 73//73 71//71
f 74//74 73//73 75//75
f 78//78 76//76 77//77
f 77//77 70//70 72//72
f 77//77 76//76 70//70
f 76//76 79//79 70//70
f 80//80 79//79 81//81
f 80//80 73//73 79//79
f 73//73 70//70 79//79
f 73//73 80//80 75//75
f 78//78 82//82 76//76
f 76//76 83//83 79//79
f 82//82 83//83 76//76
f 79//79 83//83 81//81
f 86//86 84//84 85//85
f 85//85 84//84 87//87
f 86//86 88//88 84//84
f 84//84 88//88 87//87
f 64//64 89//89 65//65
f 64//64 66//66 89//89
f 89//89 67//67 65//65
f 89//89 66//66 67//67
f 71//71 90//90 72//72
f 74//74 90//90 71//71
f 91//91 90//90 74//74
f 74//74 75//75 91//91
f 78//78 92//92 93//93
f 77//77 92//92 78//78
f 72//72 92//92 77//77
f 72//72 94//94 92//92
f 72//72 90//90 94//94
f 94//94 95//95 92//92
f 81//81 91//91 80//80
f 81//81 94//94 91//91
f 94//94 90//90 91//91
f 91//91 75//75 80//80
f 93//93 82//82 78//78
f 96//96 82//82 93//93
f 94//94 96//96 95//95
f 94//94 83//83 96//96
f 83//83 82//82 96//96
f 94//94 81//81 83//83
f 98//98 99//99 97//97
f 98//98 97//97 100//100
f 99//99 101//101 97//97
f 97//97 101//101 100//100
f 85//85 102//102 86//86
f 85//85 87//87 102//102
f 102//102 88//88 86//86
f 102//102 87//87 88//88
f 92//92 103//103 93//93
f 92//92 95//95 103//103
f 103//103 96//96 93//93
f 103//103 95//95 96//96
f 99//99 104//104 105//105
f 98//98 104//104 99//99
f 106//106 98//98 100//100
f 106//106 107//107 98//98
f 107//107 104//104 98//98
f 107//107 106//106 108//108
f 105//105 101//101 99//99
f 109//109 101//101 105//105
f 100//100 110//110 106//106
f 100//100 101//101 110//110
f 101//101 109//109 110//110
f 106//106 110//110 108//108
f 113//113 111//111 112//112
f 112//112 111//111 114//114
f 113//113 115//115 111//111
f 111//111 115//115 114//114
f 104//104 116//116 105//105
f 107//107 116//116 104//104
f 117//117 116//116 107//107
f 107//107 108//108 117//117
f 116//116 109//109 105//105
f 117//117 109//109 116//116
f 110//110 109//109 117//117
f 117//117 108//108 110//110
f 120//120 118//118 119//119
f 119//119 118//118 121//121
f 118//118 120//120 123//123
f 112//112 122//122 113//113
f 123//123 121//121 118//118
f 122//122 112//112 114//114
f 122//122 115//115 113//113
f 122//122 114//114 115//115
f 119//119 124//124 120//120
f 119//119 121//121 124//124
f 124//124 123//123 120//120
f 124//124 121//121 123//123
f 127//127 125//125 126//126
f 126//126 125//125 128//128
f 127//127 129//129 125//125
f 125//125 129//129 128//128
f 132//132 130//130 131//131
f 131//131 130//130 133//133
f 135//135 130//130 132//132
f 134//134 130//130 135//135
f 133//133 134//134 136//136
f 130//130 134//134 133//133
f 126//126 137//137 127//127
f 126//126 128//128 137//137
f 135//135 138//138 134//134
f 134//134 138//138 136//136
f 137//137 129//129 127//127
f 137//137 128//128 129//129
f 131//131 139//139 132//132
f 131//131 133//133 139//139
f 140//140 132//132 139//139
f 135//135 132//132 140//140
f 139//139 136//136 140//140
f 133//133 136//136 139//139
f 140//140 138//138 135//135
f 140//140 136//136 138//138
f 143//143 141//141 142//142
f 142//142 141//141 144//144
f 143//143 145//145 141//141
f 141//141 145//145 144//144
f 143//143 146//146 147//147
f 142//142 146//146 143//143
f 142//142 148//148 146//146
f 144//144 148//148 142//142
f 147//147 145//145 143//143
f 149//149 145//145 147//147
f 149//149 144//144 145//145
f 148//148 144//144 149//149
f 146//146 150//150 147//147
f 146//146 148//148 150//150
f 150//150 149//149 147//147
f 150//150 148//148 149//149
f 153//153 151//151 152//152
f 152//152 151//151 154//154
f 153//153 155//155 151//151
f 151//151 155//155 154//154
f 152//152 156//156 153//153
f 152//152 154//154 156//156
f 156//156 155//155 153//153
f 156//156 154//154 155//155
f 159//159 157//157 158//158
f 158//158 157//157 160//160
f 159//159 161//161 157//157
f 157//157 161//161 160//160
f 158//158 162//162 159//159
f 158//158 160//160 162//162
f 162//162 161//161 159//159
f 162//162 160//160 161//161
f 165//165 163//163 164//164
f 164//164 163//163 166//166
f 165//165 167//167 163//163
f 163//163 167//167 166//166
f 170//170 168//168 169//169
f 169//169 168//168 171//171
f 170//170 172//172 168//168
f 168//168 172//172 171//171
f 165//165 173//173 174//174
f 164//164 173//173 165//165
f 164//164 175//175 173//173
f 166//166 175//175 164//164
f 174//174 167//167 165//165
f 176//176 167//167 174//174
f 176//176 166//166 167//167
f 175//175 166//166 176//176
f 169//169 177//177 170//170
f 169//169 171//171 177//177
f 177//177 172//172 170//170
f 177//177 171//171 172//172
f 173//173 178//178 174//174
f 173//173 175//175 178//178
f 178//178 176//176 174//174
f 178//178 175//175 176//176
f 181//181 179//179 180//180
f 180//180 179//179 182//182
f 181//181 183//183 179//179
f 179//179 183//183 182//182
f 180//180 184//184 181//181
f 180//180 182//182 184//184
f 184//184 183//183 181//181
f 184//184 182//182 183//183
f 187//187 185//185 186//186
f 186//186 185//185 188//188
f 187//187 189//189 185//185
f 185//185 189//189 188//188
f 186//186 190//190 187//187
f 186//186 188//188 190//190
f 190//190 189//189 187//187
f 190//190 188//188 189//189
f 193//193 191//191 192//192
f 192//192 191//191 194//194
f 196//196 191//191 193//193
f 195//195 191//191 196//196
f 194//194 195//195 197//197
f 191//191 195//195 194//194
f 196//196 198//198 195//195
f 195//195 198//198 197//197
f 192//192 199//199 193//193
f 192//192 194//194 199//199
f 200//200 193//193 199//199
f 196//196 193//193 200//200
f 199//199 197//197 200//200
f 194//194 197//197 199//199
f 200//200 198//198 196//196
f 200//200 197//197 198//198
f 203//203 201//201 202//202
f 202//202 201//201 204//204
f 203//203 205//205 201//201
f 201//201 205//205 204//204
f 208//208 206//206 207//207
f 207//207 206//206 209//209
f 208//208 210//210 206//206
f 206//206 210//210 209//209
f 202//202 211//211 203//203
f 202//202 204//204 211//211
f 214//214 212//212 213//213
f 213//213 212//212 215//215
f 211//211 205//205 203//203
f 211//211 204//204 205//205
f 214//214 216//216 212//212
f 212//212 216//216 215//215
f 207//207 217//217 208//208
f 207//207 209//209 217//217
f 217//217 210//210 208//208
f 217//217 209//209 210//210
f 213//213 218//218 214//214
f 213//213 215//215 218//218
f 218//218 216//216 214//214
f 218//218 215//215 216//216
f 221//221 219//219 220//220
f 220//220 219//219 222//222
f 221//221 223//223 219//219
f 219//219 223//223 222//222
f 220//220 224//224 221//221
f 220//220 222//222 224//224
f 224//224 223//223 221//221
f 224//224 222//222 223//223
f 227//227 225//225 226//226
f 226//226 225//225 228//228
f 227//227 229//229 225//225
f 225//225 229//229 228//228
f 226//226 230//230 227//227
f 226//226 228//228 230//230
f 230//230 229//229 227//227
f 230//230 228//228 229//229
f 233//233 231//231 232//232
f 232//232 231//231 234//234
f 233//233 235//235 231//231
f 231//231 235//235 234//234
f 232//232 236//236 233//233
f 232//232 234//234 236//236
f 236//236 235//235 233//233
f 236//236 234//234 235//235
