# Created by Open3D 
# object name: 016.800001
# number of vertices: 200
# number of triangles: 300
v 2.87434 21 4
vn 1 -3.33449e-17 0
v 3 20.8366 4
vn -3.94836e-17 1 0
v 3 21 3.876
vn -3.19695e-17 0 1
v 3 21 4.16625
vn -6.3939e-17 0 -1
v 3 21.1951 4
vn -7.89672e-17 -1 0
v 2.89516 24 4
vn 1 0 0
v 3 23.7896 4
vn 5.878e-17 1 0
v 3 24 3.85767
vn -5.45817e-17 0 1
v 3 24 4.04943
vn 0 0 -1
v 3 24.2026 4
vn -5.878e-17 -1 0
v 2.61263 28 5
vn 0.996351 0.0683414 0.051133
v 3 27.7183 5
vn -3.38696e-17 1 0
v 3 28 4.61137
vn -0.0940536 0.039265 0.994793
v 3 28 5.39619
vn 0.119424 0.639057 -0.759831
v 2.90621 29 5
vn 0.909489 -0.406503 0.0870914
v 3 29 4.93389
vn 0.582805 -0.243306 0.775333
v 2.89366 29 6
vn 0.952197 -0.0372685 -0.303203
v 3 28.8826 6
vn -0.770714 0.358934 -0.526466
v 3 29 6.06903
vn -3.89742e-17 0 -1
v 3 29.0464 5
vn -0.275194 -0.960789 0.0339508
v 3 29.0463 6
vn 0.190452 -0.981415 -0.0234961
v 3.71304 18 4
vn 0.999667 -0.0234443 0.01078
v 4 17.5639 4
vn 0.0584946 0.99823 0.0107153
v 4 18 3.85241
vn 0 0 1
v 3.98119 18 5
vn 0.841406 0.490986 -0.225763
v 4 17.9685 5
vn -0.900006 0.403496 -0.164868
v 4 18 5.00908
vn 3.18492e-17 0 -1
v 4 18.242 4
vn -0.0446562 -0.998913 0.0133531
v 4 18.0237 5
vn 0.595752 -0.783164 -0.178142
v 3.17708 21 4
vn -1 0 0
v 3.04906 24 4
vn -1 1.09512e-17 0
v 3.13472 28 5
vn -0.999328 0.0343497 -0.0128161
v 3.03011 29 5
vn -0.986481 -0.122685 0.108646
v 3.02958 29 6
vn -0.993236 -0.109547 -0.0384836
v 4.99815 16 4
vn 0.450808 -0.889518 0.0743559
v 5 15.9984 4
vn 0.39258 0.917358 0.0658493
v 5 16 3.99898
vn -3.14541e-17 0 1
v 4.83294 16 5
vn 0.99994 0.0109275 -0.000913441
v 5 15.9274 5
vn -0.00731012 0.999973 -0.00122616
v 5 16 5.0853
vn 0 0 -1
v 5 16.0011 4
vn -0.916243 -0.399332 0.032124
v 5 16.082 5
vn 0.00489241 -0.999988 -0.000171531
v 4.16438 18 4
vn -0.999881 0.0148918 0.00407198
v 4.01206 18 5
vn -0.867818 -0.479288 -0.131055
v 5.74762 13 5
vn 0.981256 0.115293 0.154412
v 6 12.4053 5
vn 0 1 0
v 6 13 4.53729
vn -0.0275195 0.00794164 0.99959
v 6 13 5.64248
vn 0.338262 0.705217 -0.623095
v 5.95581 14 5
vn 0.869081 -0.334519 0.364411
v 6 14 4.96035
vn 0.787481 -0.227253 0.572914
v 5.55905 14 6
vn 0.994015 -0.0368539 -0.102836
v 6 13.3663 6
vn -0.365408 0.537916 -0.759687
v 6 14 6.41933
vn 5.71916e-17 0 -1
v 6 14.0481 5
vn -0.869583 -0.413125 0.270467
v 6 14.7376 6
vn 0.0458308 -0.998848 -0.0142548
v 5.00067 16 4
vn -0.91445 0.403606 0.0297244
v 5.03321 16 5
vn -0.999992 -0.00399365 -0.000294121
v 6.62793 13 5
vn -0.993355 0.106277 0.0441712
v 6.0362 14 5
vn -0.768804 -0.454866 0.449485
v 6.26684 14 6
vn -0.968931 -0.203178 -0.14104
v 6.71116 38 5
vn 0.988018 0.129958 0.0832547
v 7 37.7118 5
vn 0 1 0
v 7 38 4.74191
vn -0.515624 0.363615 0.775833
v 7 38 5.81781
vn 0.271521 0.118221 -0.955144
v 6.82059 39 5
vn 0.965733 -0.218537 -0.140001
v 7 39 4.25684
vn 0.24767 -0.174655 0.952972
v 7 39 5.25051
vn -0.623999 -0.27169 -0.732673
v 7 39.1821 5
vn 1.17212e-17 -1 0
v 7.25599 38 5
vn -0.961593 0.124432 -0.244653
v 7.41636 39 5
vn -0.980494 -0.0891046 0.175193
v 10.5784 8 7
vn 1 4.18621e-17 0
v 11 7.63862 7
vn 0 1 0
v 11 8 6.60622
vn 0 0 1
v 11 8 7.46314
vn 0 0 -1
v 11 8.41234 7
vn 0 -1 0
v 11.2441 8 7
vn -1 -2.09311e-17 0
v 12.5574 6 5
vn 1 0 0
v 13 5.80245 5
vn 0.0448744 0.988123 -0.146968
v 13 6 4.74073
vn 0.0870899 0.176614 0.98042
v 13 6 5.30178
vn 0.0129741 -0.0536682 -0.998475
v 13 6.36588 5
vn 0.02125 -0.998756 0.0451058
v 14 5.87277 5
vn -0.112829 0.922346 0.369525
v 14 6 4.83066
vn -0.205189 -0.416113 0.88586
v 14 6 5.04606
vn -0.147822 0.61148 -0.777329
v 14 6.0442 5
vn -0.256831 -0.798024 -0.545157
v 14.5302 5 5
vn 1 -5.26858e-17 0
v 15 4.68099 5
vn 0.341927 0.825466 -0.449102
v 15 5 4.53508
vn 0.108783 0.0952651 0.98949
v 15 5 5.30839
vn 0.107855 -0.258956 -0.959848
v 14.0855 6 5
vn -1 0 0
v 15 5.36224 5
vn 0.0356423 -0.9966 0.0742777
v 14.5102 12 4
vn 1 -3.31819e-17 0
v 15 11.6383 4
vn 0 1 0
v 15 12 3.53163
vn 0 0 1
v 15 12 4.18341
vn 0 0 -1
v 15 12.28 4
vn -2.68127e-17 -1 0
v 16 4.22034 5
vn -0.221825 0.93054 0.291356
v 16 5 4.82854
vn -0.338488 -0.296425 0.893061
v 16 5 5.29644
vn -0.0918795 0.220599 -0.971027
v 16 5.09749 5
vn -0.182713 -0.906438 -0.38077
v 15.3043 12 4
vn -1 -1.65909e-17 0
v 15.7814 45 4
vn 1 -7.42271e-17 0
v 16 44.9 4
vn -3.35339e-17 1 0
v 16 45 3.89482
vn -4.00894e-17 0 1
v 16 45 4.22912
vn 0 0 -1
v 16 45.1797 4
vn 0 -1 0
v 16.7208 4 4
vn 0.629565 -0.651067 0.42398
v 17 3.74827 4
vn 0.00164491 0.973414 0.229046
v 17 4 3.78533
vn 2.10949e-17 0 1
v 16.0874 4 5
vn 0.988399 -0.106874 0.107914
v 17 3.6425 5
vn 0.091381 0.992293 0.0836954
v 16.4802 4 6
vn 0.763579 0.500003 -0.408589
v 17 3.70071 6
vn 0.268651 0.904392 -0.331515
v 17 4 6.36532
vn 0.257613 -0.430681 -0.864956
v 17 4.14592 4
vn -0.188858 -0.951587 0.242518
v 16.1839 5 5
vn -1 0 0
v 17 4.39948 5
vn -0.00211851 -0.981724 0.190299
v 17 4.45967 6
vn 0.253317 -0.937221 -0.239681
v 16.0909 45 4
vn -1 0 0
v 17.548 4 4
vn -0.769365 0.0276511 0.638211
v 18 3.99507 5
vn -0.342239 0.906006 0.249048
v 18 4 4.98256
vn -0.266547 -0.956023 0.122366
v 18 3.51763 6
vn -0.235354 0.971761 -0.0170215
v 18 4 6.72315
vn -0.141977 0.23736 -0.96099
v 18 4.00194 5
vn -0.386313 -0.88855 0.247468
v 18 4.29886 6
vn -0.248969 -0.963568 -0.0977281
v 18.5313 3 4
vn 1 9.95741e-17 0
v 19 2.84113 4
vn -1.48165e-17 1 0
v 19 3 3.68946
vn 0 0 1
v 19 3 4.77847
vn 0 0 -1
v 19 3.35305 4
vn 0 -1 0
v 18.0033 4 5
vn -0.653486 0.681248 0.329935
v 18.5101 4 6
vn -0.999996 -0.00241654 -0.00117035
v 19.3914 3 4
vn -1 9.95741e-17 0
v 19.747 3 6
vn 1 -6.34494e-17 0
v 20 2.83439 6
vn 0 1 0
v 20 3 5.63541
vn 0 0 1
v 20 3 6.19016
vn 3.67187e-17 0 -1
v 20 3.22867 6
vn 2.60974e-17 -1 0
v 20.6402 3 4
vn 1 -4.946e-17 0
v 21 2.49412 4
vn 0 1 0
v 21 3 3.72641
vn -1.52981e-17 0 1
v 21 3 4.59602
vn 3.05962e-17 0 -1
v 20.2263 3 6
vn -1 -6.34494e-17 0
v 21 3.13944 4
vn 2.2705e-17 -1 0
v 20.9962 39 4
vn 1 -7.61816e-19 0
v 21 38.9945 4
vn -3.55256e-17 1 0
v 21 39 3.9917
vn 0 0 1
v 21 39 4.00387
vn 0 0 -1
v 21 39.1773 4
vn 1.13682e-15 -1 0
v 21.3431 3 4
vn -1 4.946e-17 0
v 21.3883 3 5
vn 1 0 0
v 22 2.53585 5
vn 3.22029e-17 1 0
v 22 3 4.64197
vn 1.10905e-17 0 1
v 22 3 5.48772
vn -4.4362e-17 0 -1
v 22 3.14979 5
vn 0 -1 0
v 21.0118 39 4
vn -1 6.09453e-18 0
v 22.4074 3 5
vn -1 -5.34545e-17 0
v 23.963 8 4
vn 1 0 0
v 24 7.92285 4
vn 3.22153e-17 1 0
v 24 8 3.8732
vn 8.24659e-17 0 1
v 24 8 4.03421
vn 1.03082e-17 0 -1
v 24 8.04865 4
vn 8.05384e-18 -1 0
v 24.1302 8 4
vn -1 -4.28219e-17 0
v 26.4469 3 4
vn 1 -9.18358e-17 0
v 27 2.55307 4
vn 0 1 0
v 27 3 3.90987
vn -5.56844e-18 0 1
v 27 3 4.2094
vn -1.11369e-17 0 -1
v 27 3.05757 4
vn -6.25264e-18 -1 0
v 27.3732 3 4
vn -1 0 0
v 31.9517 4 5
vn 1 -1.52249e-17 0
v 32 3.90537 5
vn -3.78734e-17 1 0
v 32 4 4.90756
vn -3.75718e-17 0 1
v 32 4 5.02642
vn -9.39296e-18 0 -1
v 32 4.02519 5
vn -9.46836e-18 -1 0
v 32.0481 4 5
vn -1 0 0
v 32.5419 18 7
vn 1 1.77729e-17 0
v 33 17.4823 7
vn 4.18486e-17 1 0
v 33 18 6.50556
vn 5.84609e-17 0 1
v 33 18 7.24408
vn 0 0 -1
v 33 18.5396 7
vn -4.18486e-17 -1 0
v 33.44 18 7
vn -1 -3.55457e-17 0
v 33.9364 19 7
vn 1 1.86366e-17 0
v 34 18.9565 7
vn -1.24066e-17 1 0
v 34 19 6.92571
vn 0 0 1
v 34 19 7.01608
vn 1.74173e-17 0 -1
v 34 19.0852 7
vn 2.48132e-17 -1 0
v 34.0331 19 7
vn -1 -9.31828e-18 0
v 35.9782 23 7
vn 1 0 0
v 36 22.9783 7
vn 0 1 0
v 36 23 6.98104
vn -2.73613e-17 0 1
v 36 23 7.02196
vn 0 0 -1
v 36 23.0255 7
vn -6.30309e-17 -1 0
v 36.0203 23 7
vn -1 -2.81087e-17 0
v 45.9207 17 5
vn 1 1.47601e-17 0
v 46 16.8276 5
vn -4.02834e-17 1 0
v 46 17 4.04301
vn 0 0 1
v 46 17 5.04164
vn -1.6277e-17 0 -1
v 46 17.1807 5
vn -3.45287e-17 -1 0
v 46.0716 17 5
vn -1 1.10701e-17 0
f 3//3 1//1 2//2
f 2//2 1//1 4//4
f 3//3 5//5 1//1
f 1//1 5//5 4//4
f 8//8 6//6 7//7
f 7//7 6//6 9//9
f 8//8 10//10 6//6
f 6//6 10//10 9//9
f 13//13 11//11 12//12
f 12//12 11//11 14//14
f 16//16 11//11 13//13
f 15//15 11//11 16//16
f 14//14 17//17 18//18
f 14//14 11//11 17//17
f 11//11 15//15 17//17
f 18//18 17//17 19//19
f 16//16 20//20 15//15
f 15//15 21//21 17//17
f 20//20 21//21 15//15
f 17//17 21//21 19//19
f 24//24 22//22 23//23
f 23//23 25//25 26//26
f 22//22 25//25 23//23
f 26//26 25//25 27//27
f 24//24 28//28 22//22
f 22//22 29//29 25//25
f 28//28 29//29 22//22
f 25//25 29//29 27//27
f 2//2 30//30 3//3
f 2//2 4//4 30//30
f 30//30 5//5 3//3
f 30//30 4//4 5//5
f 7//7 31//31 8//8
f 7//7 9//9 31//31
f 31//31 10//10 8//8
f 31//31 9//9 10//10
f 12//12 32//32 13//13
f 12//12 14//14 32//32
f 33//33 13//13 32//32
f 16//16 13//13 33//33
f 18//18 32//32 14//14
f 18//18 34//34 32//32
f 34//34 33//33 32//32
f 18//18 19//19 34//34
f 33//33 20//20 16//16
f 34//34 20//20 33//33
f 21//21 20//20 34//34
f 34//34 19//19 21//21
f 37//37 35//35 36//36
f 36//36 38//38 39//39
f 35//35 38//38 36//36
f 39//39 38//38 40//40
f 37//37 41//41 35//35
f 35//35 42//42 38//38
f 41//41 42//42 35//35
f 38//38 42//42 40//40
f 23//23 43//43 24//24
f 26//26 43//43 23//23
f 44//44 43//43 26//26
f 26//26 27//27 44//44
f 43//43 28//28 24//24
f 44//44 28//28 43//43
f 29//29 28//28 44//44
f 44//44 27//27 29//29
f 47//47 45//45 46//46
f 46//46 45//45 48//48
f 50//50 45//45 47//47
f 49//49 45//45 50//50
f 48//48 51//51 52//52
f 48//48 45//45 51//51
f 45//45 49//49 51//51
f 52//52 51//51 53//53
f 50//50 54//54 49//49
f 49//49 55//55 51//51
f 54//54 55//55 49//49
f 51//51 55//55 53//53
f 36//36 56//56 37//37
f 39//39 56//56 36//36
f 57//57 56//56 39//39
f 39//39 40//40 57//57
f 56//56 41//41 37//37
f 57//57 41//41 56//56
f 42//42 41//41 57//57
f 57//57 40//40 42//42
f 46//46 58//58 47//47
f 46//46 48//48 58//58
f 59//59 47//47 58//58
f 50//50 47//47 59//59
f 52//52 58//58 48//48
f 52//52 60//60 58//58
f 60//60 59//59 58//58
f 52//52 53//53 60//60
f 59//59 54//54 50//50
f 60//60 54//54 59//59
f 55//55 54//54 60//60
f 60//60 53//53 55//55
f 63//63 61//61 62//62
f 62//62 61//61 64//64
f 66//66 61//61 63//63
f 65//65 61//61 66//66
f 64//64 65//65 67//67
f 61//61 65//65 64//64
f 66//66 68//68 65//65
f 65//65 68//68 67//67
f 62//62 69//69 63//63
f 62//62 64//64 69//69
f 70//70 63//63 69//69
f 66//66 63//63 70//70
f 69//69 67//67 70//70
f 64//64 67//67 69//69
f 70//70 68//68 66//66
f 70//70 67//67 68//68
f 73//73 71//71 72//72
f 72//72 71//71 74//74
f 73//73 75//75 71//71
f 71//71 75//75 74//74
f 72//72 76//76 73//73
f 72//72 74//74 76//76
f 76//76 75//75 73//73
f 76//76 74//74 75//75
f 79//79 77//77 78//78
f 78//78 77//77 80//80
f 79//79 81//81 77//77
f 77//77 81//81 80//80
f 79//79 82//82 83//83
f 78//78 82//82 79//79
f 78//78 84//84 82//82
f 80//80 84//84 78//78
f 83//83 81//81 79//79
f 85//85 81//81 83//83
f 85//85 80//80 81//81
f 84//84 80//80 85//85
f 88//88 86//86 87//87
f 87//87 86//86 89//89
f 86//86 88//88 91//91
f 82//82 90//90 83//83
f 91//91 89//89 86//86
f 90//90 82//82 84//84
f 90//90 85//85 83//83
f 90//90 84//84 85//85
f 94//94 92//92 93//93
f 93//93 92//92 95//95
f 94//94 96//96 92//92
f 92//92 96//96 95//95
f 88//88 97//97 98//98
f 87//87 97//97 88//88
f 87//87 99//99 97//97
f 89//89 99//99 87//87
f 98//98 91//91 88//88
f 100//100 91//91 98//98
f 100//100 89//89 91//91
f 99//99 89//89 100//100
f 93//93 101//101 94//94
f 93//93 95//95 101//101
f 101//101 96//96 94//94
f 101//101 95//95 96//96
f 104//104 102//102 103//103
f 103//103 102//102 105//105
f 104//104 106//106 102//102
f 102//102 106//106 105//105
f 109//109 107//107 108//108
f 108//108 110//110 111//111
f 107//107 110//110 108//108
f 111//111 112//112 113//113
f 110//110 112//112 111//111
f 113//113 112//112 114//114
f 109//109 115//115 107//107
f 117//117 107//107 115//115
f 117//117 110//110 107//107
f 97//97 116//116 98//98
f 110//110 118//118 112//112
f 110//110 117//117 118//118
f 116//116 97//97 99//99
f 112//112 118//118 114//114
f 116//116 100//100 98//98
f 116//116 99//99 100//100
f 103//103 119//119 104//104
f 103//103 105//105 119//119
f 119//119 106//106 104//104
f 119//119 105//105 106//106
f 108//108 120//120 109//109
f 120//120 121//121 122//122
f 120//120 108//108 121//121
f 108//108 111//111 121//121
f 121//121 111//111 123//123
f 111//111 113//113 123//123
f 113//113 124//124 123//123
f 114//114 124//124 113//113
f 120//120 115//115 109//109
f 122//122 115//115 120//120
f 122//122 125//125 115//115
f 125//125 117//117 115//115
f 125//125 126//126 117//117
f 117//117 126//126 118//118
f 126//126 114//114 118//118
f 124//124 114//114 126//126
f 129//129 127//127 128//128
f 128//128 127//127 130//130
f 129//129 131//131 127//127
f 127//127 131//131 130//130
f 122//122 121//121 132//132
f 123//123 132//132 121//121
f 133//133 132//132 123//123
f 123//123 124//124 133//133
f 132//132 125//125 122//122
f 133//133 125//125 132//132
f 126//126 125//125 133//133
f 133//133 124//124 126//126
f 128//128 134//134 129//129
f 128//128 130//130 134//134
f 137//137 135//135 136//136
f 136//136 135//135 138//138
f 134//134 131//131 129//129
f 134//134 130//130 131//131
f 137//137 139//139 135//135
f 135//135 139//139 138//138
f 142//142 140//140 141//141
f 141//141 140//140 143//143
f 136//136 144//144 137//137
f 136//136 138//138 144//144
f 142//142 145//145 140//140
f 140//140 145//145 143//143
f 144//144 139//139 137//137
f 144//144 138//138 139//139
f 148//148 146//146 147//147
f 147//147 146//146 149//149
f 148//148 150//150 146//146
f 146//146 150//150 149//149
f 141//141 151//151 142//142
f 151//151 141//141 143//143
f 154//154 152//152 153//153
f 153//153 152//152 155//155
f 151//151 145//145 142//142
f 154//154 156//156 152//152
f 151//151 143//143 145//145
f 152//152 156//156 155//155
f 147//147 157//157 148//148
f 147//147 149//149 157//157
f 157//157 150//150 148//148
f 157//157 149//149 150//150
f 153//153 158//158 154//154
f 153//153 155//155 158//158
f 158//158 156//156 154//154
f 158//158 155//155 156//156
f 161//161 159//159 160//160
f 160//160 159//159 162//162
f 161//161 163//163 159//159
f 159//159 163//163 162//162
f 160//160 164//164 161//161
f 160//160 162//162 164//164
f 164//164 163//163 161//161
f 164//164 162//162 163//163
f 167//167 165//165 166//166
f 166//166 165//165 168//168
f 167//167 169//169 165//165
f 165//165 169//169 168//168
f 166//166 170//170 167//167
f 166//166 168//168 170//170
f 170//170 169//169 167//167
f 170//170 168//168 169//169
f 173//173 171//171 172//172
f 172//172 171//171 174//174
f 173//173 175//175 171//171
f 171//171 175//175 174//174
f 172//172 176//176 173//173
f 172//172 174//174 176//176
f 176//176 175//175 173//173
f 176//176 174//174 175//175
f 179//179 177//177 178//178
f 178//178 177//177 180//180
f 179//179 181//181 177//177
f 177//177 181//181 180//180
f 178//178 182//182 179//179
f 178//178 180//180 182//182
f 184//184 185//185 183//183
f 182//182 181//181 179//179
f 182//182 180//180 181//181
f 184//184 183//183 186//186
f 185//185 187//187 183//183
f 183//183 187//187 186//186
f 184//184 188//188 185//185
f 184//184 186//186 188//188
f 188//188 187//187 185//185
f 188//188 186//186 187//187
f 191//191 189//189 190//190
f 190//190 189//189 192//192
f 191//191 193//193 189//189
f 189//189 193//193 192//192
f 190//190 194//194 191//191
f 190//190 192//192 194//194
f 194//194 193//193 191//191
f 194//194 192//192 193//193
f 197//197 195//195 196//196
f 196//196 195//195 198//198
f 197//197 199//199 195//195
f 195//195 199//199 198//198
f 196//196 200//200 197//197
f 196//196 198//198 200//200
f 200//200 199//199 197//197
f 200//200 198//198 199//199
