# Created by Open3D 
# object name: 016.500000
# number of vertices: 208
# number of triangles: 296
v 2.55211 29 6
vn 1 -3.20387e-17 0
v 3 28.3364 6
vn 0 1 0
v 3 29 5.36652
vn 0 0 1
v 3 29 6.34352
vn 0 0 -1
v 3 29.2231 6
vn 0 -1 0
v 2.97926 31 5
vn 1 6.41204e-18 0
v 3 30.923 5
vn 0 1 0
v 3 31 4.76604
vn 0 0 1
v 3 31 5.02568
vn 0 0 -1
v 3 31.0533 5
vn -2.09857e-17 -1 0
v 3.14617 29 6
vn -1 -8.00968e-18 0
v 3.05885 31 5
vn -1 -1.92361e-17 0
v 3.89174 32 4
vn 1 0 0
v 4 31.8472 4
vn -9.8188e-17 1 0
v 4 32 3.95635
vn 0 0 1
v 4 32 4.38727
vn 0 0 -1
v 4 32.3704 4
vn -3.92752e-16 -1 0
v 4.87833 26 6
vn 1 0 0
v 5 25.9048 6
vn 0 1 0
v 5 26 5.85006
vn -4.29942e-17 0 1
v 5 26 6.12647
vn 0 0 -1
v 5 26.0779 6
vn -2.69387e-17 -1 0
v 4.05574 32 4
vn -1 0 0
v 4.65013 34 4
vn 0.987789 0.0868612 0.129334
v 5 33.6067 4
vn 6.85482e-17 1 0
v 5 34 3.81199
vn -0.131568 0.0927023 0.986963
v 5 34 4.51776
vn 0.281969 0.105099 -0.95365
v 4.8511 35 4
vn 0.927886 -0.207885 -0.309534
v 5 35 3.84615
vn 0.189375 -0.133433 0.972796
v 5 35 4.28038
vn -0.515056 -0.191979 -0.835381
v 5 35.223 4
vn 0 -1 0
v 5.11129 26 6
vn -1 0 0
v 5.22383 34 4
vn -0.955169 0.125579 -0.268107
v 5.35472 35 4
vn -0.94569 -0.137884 0.294379
v 5.81404 37 8
vn 1 0 0
v 6 36.7103 8
vn 0 1 0
v 6 37 7.81679
vn 2.20505e-17 0 1
v 6 37 8.35204
vn 4.41011e-17 0 -1
v 6 37.2792 8
vn 0 -1 0
v 6.36715 37 8
vn -1 9.11444e-17 0
v 7.99508 24 5
vn 0.777696 -0.605892 0.167581
v 8 23.9906 5
vn 0.877045 0.435731 0.202312
v 8 24 4.9977
vn 0 0 1
v 7.77662 24 6
vn 0.99998 0.00607254 -0.00167958
v 8 23.5257 6
vn -0.021719 0.999752 -0.00501003
v 8 24 6.0792
vn -1.18083e-17 0 -1
v 8 24.0101 5
vn -0.813248 -0.56366 0.144621
v 8 24.2671 6
vn 0.0233252 -0.999719 -0.00414796
v 7.82081 27 5
vn 1 -1.2144e-17 0
v 8 26.5549 5
vn -6.90968e-17 1 0
v 8 27 4.79112
vn 0 0 1
v 8 27 5.11654
vn -2.56119e-17 0 -1
v 8 27.4328 5
vn 0 -1 0
v 7.93493 37 9
vn 1 -2.93688e-17 0
v 8 36.9503 9
vn 1.9351e-17 1 0
v 8 37 8.93822
vn 2.63164e-17 0 1
v 8 37 9.03842
vn -1.31582e-17 0 -1
v 8 37.0977 9
vn 0 -1 0
v 7.88996 39 4
vn 1 0 0
v 8 38.9615 4
vn 0 1 0
v 8 39 3.91677
vn 0 0 1
v 8 39 4.07946
vn 0 0 -1
v 8 39.1734 4
vn -7.05419e-17 -1 0
v 8.59715 10 8
vn 1 -8.91224e-17 0
v 9 9.8004 8
vn 0 1 0
v 9 10 7.84086
vn 0 0 1
v 9 10 8.25394
vn 0 0 -1
v 9 10.1774 8
vn -3.12231e-17 -1 0
v 8.00729 24 5
vn -0.931954 0.326315 0.158051
v 8.17292 24 6
vn -0.99995 -0.00899956 -0.00435895
v 8.12941 27 5
vn -1 0 0
v 8.15858 37 9
vn -1 0 0
v 8.04111 39 4
vn -1 0 0
v 8.72024 40 6
vn 1 0 0
v 9 39.9516 6
vn 0 1 0
v 9 40 5.82722
vn 0 0 1
v 9 40 6.1433
vn 0 0 -1
v 9 40.3055 6
vn -6.58294e-17 -1 0
v 9.13515 10 8
vn -1 0 0
v 9.48504 37 9
vn 1 -9.73648e-17 0
v 10 36.7648 9
vn -3.62703e-17 1 0
v 10 37 8.77018
vn 0 0 1
v 10 37 9.30686
vn 0 0 -1
v 10 37.2959 9
vn -3.62703e-17 -1 0
v 9.05372 40 6
vn -1 1.55077e-17 0
v 10.198 37 9
vn -1 0 0
v 13.9512 6 4
vn 1 0 0
v 14 5.58067 4
vn 2.49189e-16 1 0
v 14 6 3.96329
vn 5.21286e-18 0 1
v 14 6 4.03678
vn 3.38836e-17 0 -1
v 14 6.01977 4
vn -1.55743e-17 -1 0
v 14.0664 5 4
vn 1 0 0
v 15 4.4697 4
vn 0 1 0
v 15 5 3.30836
vn 0 0 1
v 15 5 4.44182
vn 0 0 -1
v 14.0459 6 4
vn -1 0 0
v 15 5.48391 4
vn 0 -1 0
v 15.6538 5 4
vn -1 0 0
v 15.7535 45 4
vn 1 0 0
v 16 44.8857 4
vn 0 1 0
v 16 45 3.87087
vn -3.60803e-17 0 1
v 16 45 4.30972
vn 7.21606e-17 0 -1
v 16 45.1668 4
vn 0 -1 0
v 16.0956 45 4
vn -1 2.8124e-17 0
v 19.6493 3 4
vn 1 0 0
v 20 2.72643 4
vn 0.270423 0.862112 -0.428525
v 20 3 3.70644
vn 0.174507 0.191253 0.965903
v 20 3 4.30266
vn 0.14533 -0.306758 -0.940627
v 20 3.34438 4
vn 0.10491 -0.977918 0.180752
v 19.3735 15 6
vn 1 -5.54169e-17 0
v 20 14.551 6
vn 0 1 0
v 20 15 5.6222
vn 0 0 1
v 20 15 6.58922
vn 0 0 -1
v 20 15.5869 6
vn 0 -1 0
v 21 2.43194 4
vn -0.150458 0.959436 0.238422
v 21 3 3.72225
vn -0.190016 -0.20825 0.95944
v 21 3 4.3375
vn -0.108243 0.228475 -0.967514
v 21 3.20019 4
vn -0.169501 -0.941267 -0.292036
v 20.5365 15 6
vn -1 0 0
v 20.9073 40 9
vn 1 0 0
v 21 39.9904 9
vn 0 1 0
v 21 40 8.99281
vn 0 0 1
v 21 40 9.01061
vn -7.99845e-18 0 -1
v 21 40.0076 9
vn 7.7617e-18 -1 0
v 20.9767 47 5
vn 1 -6.37016e-17 0
v 21 46.9931 5
vn 0 1 0
v 21 47 4.98328
vn 0 0 1
v 21 47 5.00579
vn 0 0 -1
v 21 47.012 5
vn -4.16859e-17 -1 0
v 21.3122 3 4
vn -1 2.93607e-17 0
v 21.9505 14 7
vn 1 8.80925e-18 0
v 22 13.9877 7
vn -1.4283e-17 1 0
v 22 14 6.84077
vn -1.72954e-16 0 1
v 22 14 7.00441
vn 0 0 -1
v 22 14.0065 7
vn -1.863e-18 -1 0
v 21.0054 40 9
vn -1 2.20357e-17 0
v 21.0056 47 5
vn -1 -1.59254e-17 0
v 22.0172 14 7
vn -1 1.32139e-17 0
v 25.5747 3 6
vn 1 0 0
v 26 2.5219 6
vn -2.9767e-17 1 0
v 26 3 5.45629
vn 0 0 1
v 26 3 6.35413
vn 0 0 -1
v 26 3.21335 6
vn 0 -1 0
v 26.5438 3 5
vn 1 6.06004e-17 0
v 27 2.58774 5
vn 0.0257226 0.999441 -0.0213561
v 27 3 4.72759
vn 0.577443 0.0238306 0.816083
v 26.6132 3 6
vn -1 -4.47086e-17 0
v 27 3 5.52748
vn 0.0101212 -0.0238333 -0.999665
v 27 3.16033 5
vn 0.0142543 -0.999883 0.00553824
v 27.9744 3 4
vn 0.424132 -0.705547 0.567729
v 28 2.95331 4
vn -0.0483329 0.946918 0.31782
v 28 3 3.98383
vn 4.72219e-18 0 1
v 28 2.95734 5
vn -0.385078 0.921962 -0.0412448
v 28 3 5.02017
vn -0.302555 0.712452 -0.633145
v 28 3.01218 4
vn -0.141055 -0.989891 0.0148031
v 28 3.0124 5
vn -0.152821 -0.982352 -0.107846
v 28.0719 3 4
vn -0.968995 0.246708 0.013528
v 28.0261 3 5
vn -0.688194 -0.724438 -0.0397239
v 31.8057 4 5
vn 1 -4.60631e-17 0
v 32 3.70606 5
vn 0 1 0
v 32 4 4.7316
vn 0 0 1
v 32 4 5.10789
vn 1.10871e-17 0 -1
v 32 4.10638 5
vn 1.17953e-17 -1 0
v 32.1965 4 5
vn -1 0 0
v 33.9207 21 6
vn 1 -1.3436e-17 0
v 34 20.5001 6
vn -2.7374e-16 1 0
v 34 21 5.93282
vn -1.20754e-17 0 1
v 34 21 6.14627
vn 3.62261e-17 0 -1
v 34 21.105 6
vn 0 -1 0
v 34.1582 21 6
vn -1 0 0
v 37.9333 23 8
vn 1 1.35664e-17 0
v 38 22.9424 8
vn -2.60876e-17 1 0
v 38 23 7.92234
vn 0 0 1
v 38 23 8.09441
vn 4.83237e-17 0 -1
v 38 23.314 8
vn 0 -1 0
v 38.8509 8 5
vn 1 -2.76237e-17 0
v 39 7.69063 5
vn 0 1 0
v 39 8 4.78644
vn 0 0 1
v 39 8 5.31393
vn -5.1294e-17 0 -1
v 39 8.16684 5
vn 0 -1 0
v 38.1265 23 8
vn -1 -2.71328e-17 0
v 39.419 8 5
vn -1 0 0
v 39.8975 10 4
vn 1 3.30924e-17 0
v 40 9.80524 4
vn 0.73304 0.608851 -0.303239
v 40 10 3.84909
vn 0.280679 0.134385 0.950347
v 40 10 4.1904
vn 0.138193 -0.238803 -0.961185
v 40 10.1124 4
vn 0.120525 -0.957835 0.260817
v 39.8485 41 4
vn 1 3.76911e-17 0
v 40 40.8322 4
vn 3.26624e-17 1 0
v 40 41 3.67093
vn 7.9039e-17 0 1
v 40 41 4.14289
vn 0 0 -1
v 40 41.2223 4
vn -3.26624e-17 -1 0
v 40.7031 9 4
vn 0.681432 0.704438 0.198537
v 41 8.85164 4
vn 0 1 0
v 41 9 3.83628
vn -0.0781714 0.207191 0.975172
v 41 9 4.37642
vn 0.0490749 0.193596 -0.979853
v 41 10 3.72829
vn -0.0988404 -0.214859 0.971631
v 41 10 4.12284
vn -0.31642 -0.238873 -0.918051
v 41 10.1764 4
vn -0.0724552 -0.98497 -0.156794
v 40.2987 41 4
vn -1 0 0
v 41.2041 9 4
vn -0.918652 0.108831 -0.379782
v 41.3072 10 4
vn -0.947286 -0.0882588 0.307992
v 46.9363 21 4
vn 1 0 0
v 47 20.8277 4
vn 0 1 0
v 47 21 3.84738
vn 5.40789e-17 0 1
v 47 21 4.22768
vn -2.70394e-17 0 -1
v 47 21.0658 4
vn 1.69273e-17 -1 0
v 47.2058 21 4
vn -1 -7.66381e-17 0
f 3//3 1//1 2//2
f 2//2 1//1 4//4
f 3//3 5//5 1//1
f 1//1 5//5 4//4
f 8//8 6//6 7//7
f 7//7 6//6 9//9
f 8//8 10//10 6//6
f 6//6 10//10 9//9
f 2//2 11//11 3//3
f 2//2 4//4 11//11
f 11//11 5//5 3//3
f 11//11 4//4 5//5
f 7//7 12//12 8//8
f 7//7 9//9 12//12
f 15//15 13//13 14//14
f 14//14 13//13 16//16
f 8//8 12//12 10//10
f 12//12 9//9 10//10
f 15//15 17//17 13//13
f 13//13 17//17 16//16
f 20//20 18//18 19//19
f 19//19 18//18 21//21
f 20//20 22//22 18//18
f 18//18 22//22 21//21
f 14//14 23//23 15//15
f 14//14 16//16 23//23
f 23//23 17//17 15//15
f 23//23 16//16 17//17
f 26//26 24//24 25//25
f 25//25 24//24 27//27
f 29//29 24//24 26//26
f 28//28 24//24 29//29
f 27//27 28//28 30//30
f 24//24 28//28 27//27
f 29//29 31//31 28//28
f 28//28 31//31 30//30
f 19//19 32//32 20//20
f 19//19 21//21 32//32
f 32//32 22//22 20//20
f 32//32 21//21 22//22
f 25//25 33//33 26//26
f 25//25 27//27 33//33
f 34//34 26//26 33//33
f 29//29 26//26 34//34
f 33//33 30//30 34//34
f 27//27 30//30 33//33
f 34//34 31//31 29//29
f 34//34 30//30 31//31
f 37//37 35//35 36//36
f 36//36 35//35 38//38
f 37//37 39//39 35//35
f 35//35 39//39 38//38
f 36//36 40//40 37//37
f 36//36 38//38 40//40
f 40//40 39//39 37//37
f 40//40 38//38 39//39
f 43//43 41//41 42//42
f 42//42 44//44 45//45
f 41//41 44//44 42//42
f 45//45 44//44 46//46
f 43//43 47//47 41//41
f 41//41 48//48 44//44
f 47//47 48//48 41//41
f 44//44 48//48 46//46
f 51//51 49//49 50//50
f 50//50 49//49 52//52
f 51//51 53//53 49//49
f 49//49 53//53 52//52
f 56//56 54//54 55//55
f 55//55 54//54 57//57
f 56//56 58//58 54//54
f 54//54 58//58 57//57
f 61//61 59//59 60//60
f 60//60 59//59 62//62
f 61//61 63//63 59//59
f 59//59 63//63 62//62
f 66//66 64//64 65//65
f 65//65 64//64 67//67
f 66//66 68//68 64//64
f 64//64 68//68 67//67
f 42//42 69//69 43//43
f 45//45 69//69 42//42
f 70//70 69//69 45//45
f 45//45 46//46 70//70
f 69//69 47//47 43//43
f 70//70 47//47 69//69
f 48//48 47//47 70//70
f 70//70 46//46 48//48
f 50//50 71//71 51//51
f 50//50 52//52 71//71
f 71//71 53//53 51//51
f 71//71 52//52 53//53
f 55//55 72//72 56//56
f 55//55 57//57 72//72
f 72//72 58//58 56//56
f 72//72 57//57 58//58
f 60//60 73//73 61//61
f 60//60 62//62 73//73
f 73//73 63//63 61//61
f 73//73 62//62 63//63
f 76//76 74//74 75//75
f 75//75 74//74 77//77
f 76//76 78//78 74//74
f 74//74 78//78 77//77
f 65//65 79//79 66//66
f 65//65 67//67 79//79
f 79//79 68//68 66//66
f 79//79 67//67 68//68
f 82//82 80//80 81//81
f 81//81 80//80 83//83
f 82//82 84//84 80//80
f 80//80 84//84 83//83
f 75//75 85//85 76//76
f 75//75 77//77 85//85
f 85//85 78//78 76//76
f 85//85 77//77 78//78
f 81//81 86//86 82//82
f 81//81 83//83 86//86
f 86//86 84//84 82//82
f 86//86 83//83 84//84
f 89//89 87//87 88//88
f 88//88 87//87 90//90
f 89//89 91//91 87//87
f 87//87 91//91 90//90
f 94//94 92//92 93//93
f 93//93 92//92 95//95
f 92//92 94//94 97//97
f 88//88 96//96 89//89
f 97//97 95//95 92//92
f 96//96 88//88 90//90
f 96//96 91//91 89//89
f 96//96 90//90 91//91
f 93//93 98//98 94//94
f 93//93 95//95 98//98
f 98//98 97//97 94//94
f 98//98 95//95 97//97
f 101//101 99//99 100//100
f 100//100 99//99 102//102
f 101//101 103//103 99//99
f 99//99 103//103 102//102
f 100//100 104//104 101//101
f 100//100 102//102 104//104
f 104//104 103//103 101//101
f 104//104 102//102 103//103
f 107//107 105//105 106//106
f 106//106 105//105 108//108
f 107//107 109//109 105//105
f 105//105 109//109 108//108
f 112//112 110//110 111//111
f 111//111 110//110 113//113
f 112//112 114//114 110//110
f 110//110 114//114 113//113
f 107//107 115//115 116//116
f 106//106 115//115 107//107
f 106//106 117//117 115//115
f 108//108 117//117 106//106
f 116//116 109//109 107//107
f 118//118 109//109 116//116
f 118//118 108//108 109//109
f 117//117 108//108 118//118
f 111//111 119//119 112//112
f 111//111 113//113 119//119
f 119//119 114//114 112//112
f 119//119 113//113 114//114
f 122//122 120//120 121//121
f 121//121 120//120 123//123
f 122//122 124//124 120//120
f 120//120 124//124 123//123
f 127//127 125//125 126//126
f 126//126 125//125 128//128
f 127//127 129//129 125//125
f 125//125 129//129 128//128
f 115//115 130//130 116//116
f 115//115 117//117 130//130
f 130//130 118//118 116//116
f 130//130 117//117 118//118
f 133//133 131//131 132//132
f 132//132 131//131 134//134
f 133//133 135//135 131//131
f 131//131 135//135 134//134
f 121//121 136//136 122//122
f 121//121 123//123 136//136
f 136//136 124//124 122//122
f 136//136 123//123 124//124
f 126//126 137//137 127//127
f 126//126 128//128 137//137
f 137//137 129//129 127//127
f 137//137 128//128 129//129
f 132//132 138//138 133//133
f 132//132 134//134 138//138
f 138//138 135//135 133//133
f 138//138 134//134 135//135
f 141//141 139//139 140//140
f 140//140 139//139 142//142
f 141//141 143//143 139//139
f 139//139 143//143 142//142
f 146//146 144//144 145//145
f 148//148 145//145 144//144
f 147//147 141//141 140//140
f 140//140 142//142 147//147
f 146//146 149//149 144//144
f 144//144 149//149 148//148
f 141//141 147//147 143//143
f 147//147 142//142 143//143
f 152//152 150//150 151//151
f 146//146 151//151 150//150
f 146//146 145//145 151//151
f 145//145 153//153 151//151
f 145//145 154//154 153//153
f 148//148 154//154 145//145
f 152//152 155//155 150//150
f 150//150 149//149 146//146
f 150//150 155//155 149//149
f 155//155 156//156 149//149
f 156//156 148//148 149//149
f 154//154 148//148 156//156
f 151//151 157//157 152//152
f 153//153 157//157 151//151
f 158//158 157//157 153//153
f 153//153 154//154 158//158
f 157//157 155//155 152//152
f 158//158 155//155 157//157
f 156//156 155//155 158//158
f 158//158 154//154 156//156
f 161//161 159//159 160//160
f 160//160 159//159 162//162
f 161//161 163//163 159//159
f 159//159 163//163 162//162
f 160//160 164//164 161//161
f 160//160 162//162 164//164
f 164//164 163//163 161//161
f 164//164 162//162 163//163
f 167//167 165//165 166//166
f 166//166 165//165 168//168
f 167//167 169//169 165//165
f 165//165 169//169 168//168
f 166//166 170//170 167//167
f 166//166 168//168 170//170
f 170//170 169//169 167//167
f 170//170 168//168 169//169
f 173//173 171//171 172//172
f 172//172 171//171 174//174
f 173//173 175//175 171//171
f 171//171 175//175 174//174
f 178//178 176//176 177//177
f 177//177 176//176 179//179
f 178//178 180//180 176//176
f 176//176 180//180 179//179
f 172//172 181//181 173//173
f 172//172 174//174 181//181
f 181//181 175//175 173//173
f 181//181 174//174 175//175
f 177//177 182//182 178//178
f 177//177 179//179 182//182
f 182//182 180//180 178//178
f 182//182 179//179 180//180
f 185//185 183//183 184//184
f 184//184 183//183 186//186
f 185//185 187//187 183//183
f 183//183 187//187 186//186
f 190//190 188//188 189//189
f 189//189 188//188 191//191
f 190//190 192//192 188//188
f 188//188 192//192 191//191
f 195//195 193//193 194//194
f 194//194 193//193 196//196
f 193//193 185//185 184//184
f 193//193 195//195 185//185
f 195//195 197//197 185//185
f 184//184 196//196 193//193
f 184//184 186//186 196//196
f 186//186 198//198 196//196
f 197//197 187//187 185//185
f 199//199 187//187 197//197
f 199//199 186//186 187//187
f 198//198 186//186 199//199
f 189//189 200//200 190//190
f 189//189 191//191 200//200
f 200//200 192//192 190//190
f 200//200 191//191 192//192
f 194//194 201//201 195//195
f 194//194 196//196 201//201
f 202//202 195//195 201//201
f 197//197 195//195 202//202
f 201//201 198//198 202//202
f 196//196 198//198 201//201
f 202//202 199//199 197//197
f 202//202 198//198 199//199
f 205//205 203//203 204//204
f 204//204 203//203 206//206
f 205//205 207//207 203//203
f 203//203 207//207 206//206
f 204//204 208//208 205//205
f 204//204 206//206 208//208
f 208//208 207//207 205//205
f 208//208 206//206 207//207
