# Created by Open3D 
# object name: 016.900000
# number of vertices: 220
# number of triangles: 344
v 2.89873 20 8
vn 1 0 0
v 3 19.8693 8
vn 2.08969e-17 1 0
v 3 20 7.79903
vn -3.11957e-17 0 1
v 3 20 8.08066
vn 0 0 -1
v 3 20.2466 8
vn 4.17938e-17 -1 0
v 2.57043 27 5
vn 0.927202 0.312283 0.206822
v 3 26.7629 5
vn 0 1 0
v 3 27 4.72787
vn -0.42724 0.243458 0.870744
v 3 27 5.54887
vn 0.417657 0.730668 -0.540081
v 2.63081 28 5
vn 0.903058 -0.298126 0.309205
v 3 28 4.59368
vn 0.208658 -0.118902 0.970734
v 2.45976 28 6
vn 0.993689 0.0671892 -0.0898195
v 3 27.3734 6
vn -0.115937 0.930425 -0.34766
v 2.52972 28 7
vn 0.947683 0.0288345 -0.317909
v 3 27.6569 7
vn -0.536744 0.770534 -0.343779
v 3 28 7.24847
vn 0 0 -1
v 3 28.6419 5
vn -0.292479 -0.733022 0.614113
v 2.91598 29 6
vn 0.872627 -0.487432 -0.0305363
v 3 29 5.74309
vn 0.767463 -0.577715 0.277931
v 3 28.5658 7
vn 0.220446 -0.735788 -0.640328
v 3 29 6.23005
vn -0.909726 -0.366458 -0.195209
v 3 29.0482 6
vn 0 -1 0
v 2.92804 31 5
vn 1 -2.05393e-17 0
v 3 30.8602 5
vn 6.52445e-17 1 0
v 3 31 4.27803
vn 0 0 1
v 3 31 5.69153
vn 0 0 -1
v 3 31.0992 5
vn 6.52445e-17 -1 0
v 3.62943 17 4
vn 0.975466 0.120425 0.184293
v 4 16.3803 4
vn 0.187287 0.976756 0.104261
v 4 17 3.46551
vn -0.117088 0.0580697 0.991422
v 3.86402 17 5
vn 0.951333 0.113315 -0.286576
v 4 16.7411 5
vn -0.596404 0.7308 -0.332013
v 4 17 5.1343
vn 3.57788e-17 0 -1
v 3.7193 18 4
vn 0.950008 -0.272568 -0.15229
v 4 18 3.83383
vn 0.493937 -0.244967 0.834277
v 4 17.3908 5
vn 0.485476 -0.529021 -0.696024
v 4 18 4.404
vn -0.451836 -0.657445 -0.603001
v 4 18.3106 4
vn 0 -1 0
v 3.81266 19 6
vn 1 0 0
v 4 18.8792 6
vn 0 1 0
v 4 19 5.71189
vn 0 0 1
v 4 19 6.19071
vn 0 0 -1
v 4 19.1356 6
vn -5.80554e-17 -1 0
v 3.48824 20 8
vn -1 6.52972e-17 0
v 3.12644 27 5
vn -0.988586 0.149962 -0.0144554
v 3.14026 28 5
vn -0.987492 -0.0830221 0.134041
v 3.17021 28 6
vn -0.99816 0.0407637 -0.0448987
v 3.11393 28 7
vn -0.990764 -0.0724079 -0.114647
v 3.02998 29 6
vn -0.985878 -0.167279 0.00788565
v 3.07852 31 5
vn -1 0 0
v 3.901 33 5
vn 1 -7.93749e-18 0
v 4 32.8225 5
vn 0 1 0
v 4 33 4.68712
vn 0 0 1
v 4 33 5.07087
vn 2.04922e-17 0 -1
v 4 33.1073 5
vn 1.52059e-17 -1 0
v 4.82985 15 5
vn 0.976702 -0.149853 0.153616
v 5 14.7092 5
vn 0 0.97839 0.206767
v 5 15 4.8005
vn 0 0 1
v 4.76512 15 6
vn 0.990055 0.0982374 -0.100704
v 5 14.6081 6
vn 3.32562e-17 0.974561 -0.22412
v 5 15 6.26444
vn 0 0 -1
v 5 15.3733 5
vn -0.573892 -0.748609 0.332013
v 5 15.7343 6
vn 0.347615 -0.915817 -0.201105
v 4.42071 17 4
vn -0.98904 0.127916 0.0737422
v 4.16253 17 5
vn -0.934979 -0.174475 -0.308824
v 4.12538 18 4
vn -0.952496 -0.296899 0.0678479
v 4.06228 19 6
vn -1 -1.4128e-17 0
v 4.19828 33 5
vn -1 -4.76249e-17 0
v 5.84713 13 5
vn 0.96131 0.267117 0.0673203
v 6 12.7561 5
vn 0 1 0
v 6 13 4.54718
vn -0.19403 0.0947872 0.976406
v 6 13 5.51165
vn 0.178074 0.721677 -0.668933
v 5.542 14 5
vn 0.979745 -0.175325 0.0967538
v 6 14 4.65544
vn 0.323192 -0.157886 0.93307
v 5.82183 14 6
vn 0.923903 0.183035 -0.336008
v 6 13.6787 6
vn -0.341708 0.451902 -0.824027
v 6 14 6.11764
vn 0 0 -1
v 5.28796 15 5
vn -0.94664 0 0.322292
v 6 14.4546 5
vn -0.160905 -0.983103 0.087281
v 5.40838 15 6
vn -0.995832 -2.64738e-17 -0.091202
v 6 14.1885 6
vn 0.498317 -0.823781 -0.270306
v 6.45807 12 4
vn 0.979682 0.122354 0.158911
v 7 11.48 4
vn 0 1 0
v 7 12 3.41231
vn -0.0530326 0.0369901 0.997907
v 7 12 4.6471
vn 0.328984 0.395081 -0.857718
v 6.67562 13 4
vn 0.938183 -0.21117 -0.274263
v 7 13 3.87715
vn 0.453134 -0.31606 0.833532
v 6.97122 13 5
vn -0.964007 0.234016 -0.126203
v 7 13 4.95141
vn -0.371953 -0.446683 -0.813711
v 7 13.1233 4
vn 0 -1 0
v 6.33565 14 5
vn -0.803348 -0.470617 0.3649
v 6.08444 14 6
vn -0.849268 -0.407448 -0.335752
v 6.96344 24 6
vn 0.996445 0.0379999 0.0751904
v 7 23.7915 6
vn -1.88437e-17 1 0
v 7 24 5.7754
vn -0.831011 0.108313 0.545609
v 7 24 6.03071
vn 0.134671 0.0273146 -0.990514
v 6.9409 25 6
vn 0.997377 -0.0326491 -0.0646028
v 7 25 5.52533
vn 0.750107 -0.0977684 0.65405
v 7 25 6.03766
vn -0.100828 -0.0204503 -0.994694
v 7 25.0418 6
vn 1.10743e-17 -1 0
v 6.52843 38 5
vn 1 0 0
v 7 37.5167 5
vn 5.04478e-17 1 0
v 7 38 4.6316
vn -2.61548e-17 0 1
v 7 38 5.45979
vn -5.23095e-17 0 -1
v 7 38.3154 5
vn 0 -1 0
v 7.87654 12 4
vn -0.994943 0.0842278 -0.0547254
v 7.15557 13 4
vn -0.744556 -0.55978 0.363707
v 7.14373 24 6
vn -0.962954 0.0684079 -0.260846
v 7.09378 25 6
vn -0.981341 -0.0487754 0.185985
v 7.19275 38 5
vn -1 0 0
v 11.9873 6 6
vn 0.336279 0.15518 0.92889
v 12 5.99199 6
vn 0.0276746 0.884129 -0.466423
v 12 6 5.98245
vn 0.321115 0.430374 0.843602
v 12 6 6.01606
vn 0.202912 0.2674 -0.941979
v 11.4893 7 6
vn 0.999672 -0.0042182 -0.0252497
v 12 7 5.849
vn 0.210827 -0.0513094 0.976176
v 12 7 6.28778
vn -0.00710221 -0.035829 -0.999333
v 12 7.10837 6
vn 1.11637e-17 -1 0
v 13 5.96 6
vn -0.0010045 0.999856 0.0169296
v 13 6 5.61174
vn -0.128995 0.00936486 0.991601
v 13 6 6.04178
vn -0.0315021 0.247594 -0.968352
v 12.1976 7 6
vn -0.705619 -0.705996 0.0605992
v 13 6.07099 6
vn -0.746028 -0.633458 -0.205361
v 13.2615 6 5
vn 1 7.09399e-17 0
v 14 5.54505 5
vn 2.16034e-17 1 0
v 14 6 4.55386
vn 1.21547e-17 0 1
v 13.0588 6 6
vn -1 -3.63453e-17 0
v 14 6 5.21738
vn -1.21547e-17 0 -1
v 14 6.13472 5
vn 0 -1 0
v 14.3502 5 4
vn 1 0 0
v 15 4.56937 4
vn 0 1 0
v 15 5 3.57787
vn -2.20837e-17 0 1
v 15 5 4.49088
vn 2.20837e-17 0 -1
v 15 5.43697 4
vn 0 -1 0
v 14.2297 6 5
vn -1 0 0
v 15.7293 4 4
vn 1 -2.48716e-17 0
v 16 3.84013 4
vn 0.281815 0.956981 -0.0690404
v 16 4 3.68785
vn 0.187916 0.202405 0.961104
v 16 4 4.36764
vn 0.665912 -0.258974 -0.699639
v 15.7989 5 4
vn -1 7.00788e-17 0
v 16 4.66093 4
vn 0.186802 -0.975989 0.112033
v 15.8515 45 4
vn 1 -7.44431e-17 0
v 16 44.934 4
vn 0 1 0
v 16 45 3.93417
vn 0 0 1
v 16 45 4.18743
vn 0 0 -1
v 16 45.118 4
vn 0 -1 0
v 17 3.73252 4
vn -0.115555 0.963262 0.242433
v 17 4 3.72402
vn -0.206683 -0.222619 0.952745
v 16.5853 4 5
vn 0.677021 0.349769 -0.647537
v 17 3.72489 5
vn 0.0820576 0.9707 -0.225848
v 17 4 5.34579
vn 0.0918195 -0.277688 -0.956273
v 17 4.2502 4
vn -0.360416 -0.914847 0.182086
v 17 4.24562 5
vn 0.0246202 -0.936865 -0.348822
v 16.0606 45 4
vn -1 3.72216e-17 0
v 17.3039 4 4
vn -0.749368 0.120928 0.651017
v 18 3.8721 5
vn -0.345286 0.931974 0.11046
v 18 4 4.88008
vn -0.696101 -0.487814 0.526765
v 18 4 5.23006
vn -0.192817 0.583131 -0.789164
v 18 4.05554 5
vn -0.20382 -0.968738 -0.141434
v 18.0513 4 5
vn -1 2.70204e-17 0
v 20.9558 40 4
vn 1 -2.30891e-17 0
v 21 39.8985 4
vn 0 1 0
v 21 40 3.92314
vn 0 0 1
v 21 40 4.04932
vn -1.37337e-17 0 -1
v 21 40.0473 4
vn -1.62012e-17 -1 0
v 21.1679 40 4
vn -1 0 0
v 26.8966 3 4
vn 1 0 0
v 27 2.75852 4
vn 0 1 0
v 27 3 3.94347
vn -3.98993e-18 0 1
v 27 3 4.18058
vn -1.59597e-17 0 -1
v 27 3.036 4
vn 4.66918e-18 -1 0
v 27.6801 3 4
vn -1 -2.10936e-16 0
v 28.0744 3 5
vn 1 4.85641e-17 0
v 29 2.62804 5
vn 0.0718989 0.994735 -0.0730225
v 29 3 4.17167
vn 0.134698 0.397599 0.907619
v 29 3 5.20475
vn 0.0758693 -0.113866 -0.990595
v 29 3.18127 5
vn 0.085421 -0.989643 0.115369
v 30 2.8425 5
vn -0.177977 0.96729 0.180758
v 30 3 4.46433
vn -0.218544 -0.645096 0.732182
v 30 3 5.15629
vn -0.117882 0.17692 -0.97714
v 30 3.29435 5
vn -0.0968838 -0.986657 -0.130851
v 30.6795 3 5
vn -1 -4.43859e-17 0
v 30.7783 4 5
vn 1 0 0
v 31 3.40855 5
vn 0.176581 0.867072 -0.465838
v 31 4 4.76627
vn 0.0794218 0.212493 0.97393
v 31 4 5.09563
vn 0.107558 -0.154141 -0.982177
v 31 4.0795 5
vn 0.0549752 -0.985205 0.162323
v 32 3.70574 5
vn -0.237091 0.743355 0.625469
v 32 4 4.75695
vn -0.141762 -0.379283 0.914357
v 32 4 5.14533
vn -0.0616897 0.0884074 -0.994172
v 32 4.10634 5
vn -0.0471522 -0.989138 -0.139225
v 32.2081 4 5
vn -1 2.22994e-17 0
v 33.8159 20 5
vn 1 0 0
v 34 19.7684 5
vn 0 1 0
v 34 20 4.83786
vn 0 0 1
v 34 20 5.41684
vn 5.95745e-17 0 -1
v 34 20.2727 5
vn -5.18944e-17 -1 0
v 34.2778 20 5
vn -1 0 0
v 39.7703 41 4
vn 1 -3.85564e-17 0
v 40 40.7142 4
vn 3.22261e-17 1 0
v 40 41 3.67506
vn 0 0 1
v 40 41 4.27684
vn 3.24228e-17 0 -1
v 40 41.3123 4
vn 0 -1 0
v 40.4859 41 4
vn -1 0 0
v 41.6457 11 4
vn 1 -2.07285e-17 0
v 42 10.4495 4
vn 3.27775e-17 1 0
v 42 11 3.5102
vn -3.00757e-17 0 1
v 42 11 4.29398
vn -1.50379e-17 0 -1
v 42 11.3037 4
vn -1.63887e-17 -1 0
v 42.7261 11 4
vn -1 8.29141e-17 0
v 45.9414 17 4
vn 0.999942 -0.0105368 0.00200651
v 46 16.8181 4
vn 0.0603098 0.998173 0.00353075
v 46 17 3.9686
vn 2.42247e-17 0 1
v 45.9965 17 5
vn 0.957412 0.283629 -0.0540109
v 46 16.9927 5
vn -0.945616 0.320541 -0.0553596
v 46 17 5.00175
vn 1.61708e-17 0 -1
v 46 17.1333 4
vn -0.0709208 -0.997472 0.00437431
v 46 17.0086 5
vn 0.896883 -0.438794 -0.0553187
v 46.055 17 4
vn -0.999956 0.00931764 0.00130979
v 46.0031 17 5
vn -0.937075 -0.345729 -0.0485994
f 3//3 1//1 2//2
f 2//2 1//1 4//4
f 3//3 5//5 1//1
f 1//1 5//5 4//4
f 8//8 6//6 7//7
f 7//7 6//6 9//9
f 11//11 6//6 8//8
f 10//10 6//6 11//11
f 9//9 12//12 13//13
f 9//9 6//6 12//12
f 6//6 10//10 12//12
f 13//13 14//14 15//15
f 12//12 14//14 13//13
f 15//15 14//14 16//16
f 11//11 17//17 10//10
f 19//19 10//10 17//17
f 19//19 18//18 10//10
f 18//18 12//12 10//10
f 20//20 18//18 21//21
f 20//20 14//14 18//18
f 14//14 12//12 18//18
f 14//14 20//20 16//16
f 19//19 22//22 18//18
f 18//18 22//22 21//21
f 25//25 23//23 24//24
f 24//24 23//23 26//26
f 25//25 27//27 23//23
f 23//23 27//27 26//26
f 30//30 28//28 29//29
f 29//29 31//31 32//32
f 28//28 31//31 29//29
f 32//32 31//31 33//33
f 35//35 28//28 30//30
f 34//34 28//28 35//35
f 36//36 34//34 37//37
f 36//36 31//31 34//34
f 31//31 28//28 34//34
f 31//31 36//36 33//33
f 35//35 38//38 34//34
f 34//34 38//38 37//37
f 41//41 39//39 40//40
f 40//40 39//39 42//42
f 41//41 43//43 39//39
f 39//39 43//43 42//42
f 2//2 44//44 3//3
f 2//2 4//4 44//44
f 44//44 5//5 3//3
f 44//44 4//4 5//5
f 7//7 45//45 8//8
f 7//7 9//9 45//45
f 46//46 8//8 45//45
f 11//11 8//8 46//46
f 13//13 45//45 9//9
f 13//13 47//47 45//45
f 47//47 46//46 45//45
f 15//15 47//47 13//13
f 48//48 47//47 15//15
f 15//15 16//16 48//48
f 46//46 17//17 11//11
f 17//17 49//49 19//19
f 17//17 46//46 49//49
f 46//46 47//47 49//49
f 21//21 48//48 20//20
f 21//21 49//49 48//48
f 49//49 47//47 48//48
f 48//48 16//16 20//20
f 49//49 22//22 19//19
f 49//49 21//21 22//22
f 24//24 50//50 25//25
f 24//24 26//26 50//50
f 50//50 27//27 25//25
f 50//50 26//26 27//27
f 53//53 51//51 52//52
f 52//52 51//51 54//54
f 53//53 55//55 51//51
f 51//51 55//55 54//54
f 58//58 56//56 57//57
f 57//57 59//59 60//60
f 56//56 59//59 57//57
f 60//60 59//59 61//61
f 58//58 62//62 56//56
f 56//56 63//63 59//59
f 62//62 63//63 56//56
f 59//59 63//63 61//61
f 29//29 64//64 30//30
f 32//32 64//64 29//29
f 65//65 64//64 32//32
f 32//32 33//33 65//65
f 66//66 30//30 64//64
f 35//35 30//30 66//66
f 37//37 65//65 36//36
f 37//37 66//66 65//65
f 66//66 64//64 65//65
f 65//65 33//33 36//36
f 66//66 38//38 35//35
f 66//66 37//37 38//38
f 40//40 67//67 41//41
f 40//40 42//42 67//67
f 67//67 43//43 41//41
f 67//67 42//42 43//43
f 52//52 68//68 53//53
f 52//52 54//54 68//68
f 68//68 55//55 53//53
f 68//68 54//54 55//55
f 71//71 69//69 70//70
f 70//70 69//69 72//72
f 74//74 69//69 71//71
f 73//73 69//69 74//74
f 72//72 75//75 76//76
f 72//72 69//69 75//75
f 69//69 73//73 75//75
f 76//76 75//75 77//77
f 73//73 74//74 79//79
f 57//57 78//78 58//58
f 57//57 80//80 78//78
f 57//57 60//60 80//80
f 79//79 81//81 73//73
f 81//81 75//75 73//73
f 81//81 77//77 75//75
f 80//80 60//60 61//61
f 78//78 62//62 58//58
f 80//80 62//62 78//78
f 63//63 62//62 80//80
f 80//80 61//61 63//63
f 84//84 82//82 83//83
f 83//83 82//82 85//85
f 87//87 82//82 84//84
f 86//86 82//82 87//87
f 86//86 85//85 82//82
f 86//86 89//89 85//85
f 88//88 71//71 70//70
f 70//70 72//72 88//88
f 87//87 90//90 86//86
f 71//71 91//91 74//74
f 71//71 88//88 91//91
f 89//89 86//86 90//90
f 76//76 88//88 72//72
f 76//76 92//92 88//88
f 92//92 91//91 88//88
f 76//76 77//77 92//92
f 91//91 79//79 74//74
f 92//92 79//79 91//91
f 81//81 79//79 92//92
f 92//92 77//77 81//81
f 95//95 93//93 94//94
f 94//94 93//93 96//96
f 98//98 93//93 95//95
f 97//97 93//93 98//98
f 96//96 97//97 99//99
f 93//93 97//97 96//96
f 98//98 100//100 97//97
f 97//97 100//100 99//99
f 103//103 101//101 102//102
f 102//102 101//101 104//104
f 103//103 105//105 101//101
f 101//101 105//105 104//104
f 83//83 106//106 84//84
f 83//83 85//85 106//106
f 107//107 84//84 106//106
f 87//87 84//84 107//107
f 106//106 89//89 107//107
f 85//85 89//89 106//106
f 107//107 90//90 87//87
f 107//107 89//89 90//90
f 94//94 108//108 95//95
f 94//94 96//96 108//108
f 109//109 95//95 108//108
f 98//98 95//95 109//109
f 108//108 99//99 109//109
f 96//96 99//99 108//108
f 109//109 100//100 98//98
f 109//109 99//99 100//100
f 102//102 110//110 103//103
f 102//102 104//104 110//110
f 110//110 105//105 103//103
f 110//110 104//104 105//105
f 113//113 111//111 112//112
f 112//112 111//111 114//114
f 116//116 111//111 113//113
f 115//115 111//111 116//116
f 114//114 115//115 117//117
f 111//111 115//115 114//114
f 116//116 118//118 115//115
f 115//115 118//118 117//117
f 113//113 119//119 120//120
f 112//112 119//119 113//113
f 112//112 121//121 119//119
f 114//114 121//121 112//112
f 122//122 120//120 123//123
f 122//122 116//116 120//120
f 116//116 113//113 120//120
f 123//123 117//117 122//122
f 123//123 121//121 117//117
f 121//121 114//114 117//117
f 122//122 118//118 116//116
f 122//122 117//117 118//118
f 126//126 124//124 125//125
f 128//128 125//125 124//124
f 127//127 120//120 119//119
f 119//119 121//121 127//127
f 126//126 129//129 124//124
f 124//124 129//129 128//128
f 120//120 127//127 123//123
f 127//127 121//121 123//123
f 132//132 130//130 131//131
f 131//131 130//130 133//133
f 132//132 134//134 130//130
f 130//130 134//134 133//133
f 126//126 125//125 135//135
f 125//125 128//128 135//135
f 135//135 129//129 126//126
f 135//135 128//128 129//129
f 138//138 136//136 137//137
f 137//137 136//136 139//139
f 136//136 138//138 141//141
f 131//131 140//140 132//132
f 141//141 139//139 136//136
f 140//140 131//131 133//133
f 140//140 134//134 132//132
f 140//140 133//133 134//134
f 144//144 142//142 143//143
f 143//143 142//142 145//145
f 144//144 146//146 142//142
f 142//142 146//146 145//145
f 138//138 147//147 148//148
f 137//137 147//147 138//138
f 149//149 137//137 139//139
f 149//149 150//150 137//137
f 150//150 147//147 137//137
f 150//150 149//149 151//151
f 148//148 141//141 138//138
f 152//152 141//141 148//148
f 139//139 153//153 149//149
f 139//139 141//141 153//153
f 141//141 152//152 153//153
f 149//149 153//153 151//151
f 143//143 154//154 144//144
f 143//143 145//145 154//154
f 154//154 146//146 144//144
f 154//154 145//145 146//146
f 147//147 155//155 148//148
f 155//155 156//156 157//157
f 155//155 147//147 156//156
f 147//147 150//150 156//156
f 150//150 158//158 156//156
f 151//151 158//158 150//150
f 155//155 152//152 148//148
f 157//157 152//152 155//155
f 157//157 159//159 152//152
f 159//159 153//153 152//152
f 159//159 151//151 153//153
f 158//158 151//151 159//159
f 156//156 160//160 157//157
f 156//156 158//158 160//160
f 160//160 159//159 157//157
f 160//160 158//158 159//159
f 163//163 161//161 162//162
f 162//162 161//161 164//164
f 163//163 165//165 161//161
f 161//161 165//165 164//164
f 162//162 166//166 163//163
f 162//162 164//164 166//166
f 166//166 165//165 163//163
f 166//166 164//164 165//165
f 169//169 167//167 168//168
f 168//168 167//167 170//170
f 169//169 171//171 167//167
f 167//167 171//171 170//170
f 168//168 172//172 169//169
f 168//168 170//170 172//172
f 172//172 171//171 169//169
f 172//172 170//170 171//171
f 175//175 173//173 174//174
f 174//174 173//173 176//176
f 175//175 177//177 173//173
f 173//173 177//177 176//176
f 175//175 178//178 179//179
f 174//174 178//178 175//175
f 174//174 180//180 178//178
f 176//176 180//180 174//174
f 179//179 177//177 175//175
f 181//181 177//177 179//179
f 181//181 176//176 177//177
f 180//180 176//176 181//181
f 178//178 182//182 179//179
f 178//178 180//180 182//182
f 184//184 185//185 183//183
f 182//182 181//181 179//179
f 182//182 180//180 181//181
f 184//184 183//183 186//186
f 185//185 187//187 183//183
f 183//183 187//187 186//186
f 185//185 188//188 189//189
f 184//184 188//188 185//185
f 184//184 190//190 188//188
f 186//186 190//190 184//184
f 189//189 187//187 185//185
f 191//191 187//187 189//189
f 191//191 186//186 187//187
f 190//190 186//186 191//191
f 188//188 192//192 189//189
f 188//188 190//190 192//192
f 192//192 191//191 189//189
f 192//192 190//190 191//191
f 195//195 193//193 194//194
f 194//194 193//193 196//196
f 195//195 197//197 193//193
f 193//193 197//197 196//196
f 194//194 198//198 195//195
f 194//194 196//196 198//198
f 198//198 197//197 195//195
f 198//198 196//196 197//197
f 201//201 199//199 200//200
f 200//200 199//199 202//202
f 201//201 203//203 199//199
f 199//199 203//203 202//202
f 200//200 204//204 201//201
f 200//200 202//202 204//204
f 204//204 203//203 201//201
f 204//204 202//202 203//203
f 207//207 205//205 206//206
f 206//206 205//205 208//208
f 207//207 209//209 205//205
f 205//205 209//209 208//208
f 206//206 210//210 207//207
f 206//206 208//208 210//210
f 210//210 209//209 207//207
f 210//210 208//208 209//209
f 213//213 211//211 212//212
f 212//212 214//214 215//215
f 211//211 214//214 212//212
f 215//215 214//214 216//216
f 213//213 217//217 211//211
f 211//211 218//218 214//214
f 217//217 218//218 211//211
f 214//214 218//218 216//216
f 212//212 219//219 213//213
f 215//215 219//219 212//212
f 220//220 219//219 215//215
f 215//215 216//216 220//220
f 219//219 217//217 213//213
f 220//220 217//217 219//219
f 218//218 217//217 220//220
f 220//220 216//216 218//218
