# Created by Open3D 
# object name: 017.500000
# number of vertices: 182
# number of triangles: 284
v 2.81824 26 5
vn 0.773001 -0.588926 0.235873
v 3 25.886 5
vn 0.39745 0.899126 0.183318
v 3 26 4.91517
vn 3.20891e-17 0 1
v 2.58973 26 6
vn 0.982331 0.173733 -0.0695826
v 3 25.707 6
vn -0.123658 0.990684 -0.0570355
v 3 26 6.57681
vn -8.7581e-17 0 -1
v 3 26.1183 5
vn -0.582654 -0.791265 0.185512
v 3 26.2865 6
vn 0.1125 -0.993006 -0.035819
v 2.90214 29 4
vn 0.998833 0.040318 0.0266095
v 3 28.8715 4
vn 0 1 0
v 3 29 3.96443
vn -0.140036 0.021968 0.989903
v 3 29 4.69415
vn 0.955046 0.237589 -0.177312
v 2.96064 30 4
vn 0.990577 -0.129155 0.0455589
v 3 30 3.9701
vn 0.174269 -0.0273383 0.984319
v 2.95063 30 5
vn 0.997521 -0.0140601 -0.0689444
v 3 29.2589 5
vn -0.961356 0.152972 -0.228898
v 3 30 5.04082
vn -8.31652e-18 0 -1
v 3 30.0476 4
vn -0.374391 -0.926216 0.0442245
v 3 30.0728 5
vn 0.265393 -0.96363 -0.0313493
v 3.93237 17 4
vn 0.952161 0.0934896 0.290946
v 4 16.7803 4
vn 0.468786 0.879317 0.0839081
v 4 17 3.93657
vn 0 0 1
v 3.91641 17 5
vn 0.925168 0.375987 -0.0519466
v 4 16.863 5
vn -0.598307 0.794078 -0.107091
v 4 17 5.09896
vn 0.638074 0.367995 -0.676344
v 4 17.2275 4
vn -0.818952 -0.305538 0.485762
v 3.51822 18 5
vn 0.99842 -0.0498353 -0.0259421
v 4 18 4.43717
vn 0.203316 -0.643762 0.737722
v 4 18 5.64603
vn -0.108261 -0.0624375 -0.99216
v 4 18.2442 5
vn 3.51834e-17 -1 0
v 3.05096 26 5
vn -0.965163 0.241985 0.0995158
v 3.13663 26 6
vn -0.998578 -0.0493098 -0.0202785
v 3.03714 29 4
vn -0.997681 0.0680695 -0.000311605
v 3.05901 30 4
vn -0.993702 -0.0342917 0.106683
v 3.07876 30 5
vn -0.998699 -0.0195753 -0.0470937
v 3.92678 32 5
vn 1 -2.84792e-18 0
v 4 31.9291 5
vn 1.85744e-17 1 0
v 4 32 4.83488
vn 0 0 1
v 4 32 5.03467
vn 0 0 -1
v 4 32.6913 5
vn 1.48595e-16 -1 0
v 4.95173 15 4
vn 0.824648 0.426759 0.371259
v 5 14.928 4
vn 0.403689 0.913098 0.0573286
v 5 15 3.95854
vn -0.503705 0.131788 0.853764
v 4.96554 15 5
vn 0.926628 0.343176 -0.15359
v 5 14.913 5
vn -0.248768 0.967919 -0.0353279
v 5 15 5.03385
vn 0 0 -1
v 4.43329 16 4
vn 0.999142 -0.038651 -0.0148688
v 5 16 3.77557
vn 0.0381898 -0.00999189 0.999221
v 5 15.3562 5
vn 0.719954 -0.173769 -0.671915
v 5 16 4.78601
vn -0.265103 -0.679032 -0.68457
v 4.0954 17 4
vn -0.990386 0.104905 0.0901663
v 5 16.3288 4
vn 0 -1 0
v 4.09495 17 5
vn -0.978838 0.145184 -0.144216
v 4.17081 18 5
vn -0.99497 -0.0961876 0.0279931
v 4.94101 25 6
vn 1 1.32976e-17 0
v 5 24.9464 6
vn 2.23802e-17 1 0
v 5 25 5.27198
vn 0 0 1
v 5 25 6.18618
vn 0 0 -1
v 5 25.0891 6
vn 4.47603e-17 -1 0
v 4.04364 32 5
vn -1 1.42396e-18 0
v 5.93411 13 5
vn 0.885585 0.268267 0.379173
v 6 12.6237 5
vn 0 1 0
v 6 13 4.81026
vn -0.686412 0.232235 0.689134
v 6 13 5.10454
vn 0.342399 0.208035 -0.916234
v 5.56841 14 5
vn 0.998518 -0.0314317 -0.0444261
v 6 14 4.39703
vn 0.161691 -0.0547053 0.985324
v 6 14 5.2857
vn -0.0821655 -0.0499223 -0.995368
v 5.10755 15 4
vn -0.952975 0.280807 0.113959
v 5.13239 15 5
vn -0.985708 0.0301894 -0.165737
v 6 14.5488 5
vn -4.4363e-17 -1 0
v 5.21336 16 4
vn -0.994399 -0.0901195 0.055219
v 5.11058 25 6
vn -1 2.65952e-17 0
v 6.33963 12 5
vn 1 0 0
v 7 11.6011 5
vn -5.64817e-17 1 0
v 7 12 4.54824
vn 4.16133e-17 0 1
v 7 12 5.73675
vn 0 0 -1
v 6.176 13 5
vn -0.916411 0.171854 -0.361465
v 7 12.4077 5
vn 0 -1 0
v 6.27245 14 5
vn -0.992347 -0.0530213 0.111521
v 6.7973 24 6
vn 1 1.60593e-17 0
v 7 23.4007 6
vn 0 1 0
v 7 24 5.37907
vn 1.12089e-16 0 1
v 7 24 6.12167
vn -2.80222e-17 0 -1
v 7 24.5644 6
vn -4.39126e-17 -1 0
v 7.16656 12 5
vn -1 -1.44766e-17 0
v 7.22288 24 6
vn -1 1.60593e-17 0
v 7.04032 39 5
vn 1 4.36615e-16 0
v 8 38.9767 5
vn -2.25946e-18 1 0
v 8 39 4.93393
vn 0 0 1
v 8 39 5.03186
vn -2.72702e-18 0 -1
v 8 39.0578 5
vn 2.25946e-18 -1 0
v 8.02029 39 5
vn -1 -2.72884e-17 0
v 9.54871 42 4
vn 1 4.85843e-17 0
v 10 41.5304 4
vn 0 1 0
v 10 42 3.50845
vn -3.21683e-17 0 1
v 10 42 4.72173
vn 0 0 -1
v 10 42.4721 4
vn -4.99374e-17 -1 0
v 10.9998 7 5
vn 0.844805 0.232626 0.48186
v 11 6.99985 5
vn 0.0795586 0.407987 -0.909515
v 11 7 4.9996
vn 0.188918 0.499316 0.845573
v 11 7 5.00021
vn 0.167215 0.128189 -0.977552
v 10.7244 8 5
vn 1 -0.000137874 -0.000285592
v 11 8 4.51744
vn 0.148822 -0.0247094 0.988555
v 11 8 5.13117
vn 0.00751453 -0.0544362 -0.998489
v 11 8.10111 5
vn 0 -1 0
v 10.4649 42 4
vn -1 -4.85843e-17 0
v 12 6.80453 5
vn -3.50271e-05 1 0.00040043
v 12 7 4.77652
vn -0.299529 0.0488981 0.952833
v 12 7 5.08707
vn -0.0133305 0.0935636 -0.995524
v 11.1642 8 5
vn -0.70724 -0.697172 0.117313
v 12 7.14088 5
vn -0.68651 -0.680844 -0.255258
v 12.7991 6 5
vn 1 -3.97629e-17 0
v 13 5.86579 5
vn 0 1 0
v 13 6 4.6595
vn 3.31722e-17 0 1
v 13 6 5.07493
vn 0 0 -1
v 12.1758 7 5
vn -1 -3.32149e-17 0
v 13 6.18085 5
vn 0 -1 0
v 13.8248 5 5
vn 1 0 0
v 14 4.8815 5
vn 0.308645 0.856633 -0.413424
v 14 5 4.79902
vn 0.250647 0.252162 0.934661
v 14 5 5.13226
vn 0.215792 -0.407995 -0.887116
v 13.463 6 5
vn -1 0 0
v 14 5.54168 5
vn 0.223101 -0.847729 0.48123
v 15 4.54769 5
vn -0.0510206 0.996357 0.0683411
v 15 5 4.66865
vn -0.0968282 -0.0974134 0.990523
v 15 5 5.54558
vn -0.0429867 0.0812742 -0.995764
v 15 5.41041 5
vn -0.142438 -0.940912 -0.30724
v 14.836 20 7
vn 1 0 0
v 15 19.7635 7
vn 0 1 0
v 15 20 6.87814
vn -2.70916e-17 0 1
v 15 20 7.37718
vn 5.41831e-17 0 -1
v 15 20.138 7
vn -4.06646e-17 -1 0
v 15.8478 4 5
vn 1 0 0
v 16 3.92337 5
vn 0.174091 0.946191 -0.272789
v 16 4 4.88029
vn 0.343092 0.523283 0.78004
v 16 4 5.24996
vn 0.16984 -0.555911 -0.813706
v 15.7409 5 5
vn -1 0 0
v 16 4.38337 5
vn 0.179105 -0.957228 0.227236
v 15.1779 20 7
vn -1 0 0
v 17 3.72772 5
vn -0.0251009 0.998911 0.0393313
v 17 4 4.46177
vn -0.0624006 -0.0951731 0.993503
v 17 4 5.51848
vn -0.0780508 0.255472 -0.963661
v 17 4.22889 5
vn -0.14166 -0.973463 -0.179729
v 17.7285 4 5
vn -1 0 0
v 35.6319 6 4
vn 1 0 0
v 36 5.55985 4
vn 0 1 0
v 36 6 3.77893
vn 2.11503e-17 0 1
v 36 6 4.33627
vn 0 0 -1
v 36 6.139 4
vn 2.1978e-17 -1 0
v 36.1983 6 4
vn -1 0 0
v 40.7727 14 4
vn 1 6.81178e-17 0
v 41 13.8607 4
vn 3.74887e-17 1 0
v 41 14 3.62426
vn -7.41404e-17 0 1
v 41 14 4.0731
vn 9.26755e-18 0 -1
v 41 14.0876 4
vn 4.68609e-18 -1 0
v 41.1851 14 4
vn -1 0 0
v 42.5024 14 4
vn 1 0 0
v 43 13.4611 4
vn 0.0792534 0.993677 -0.0795345
v 43 14 3.59261
vn 0.0335745 0.0717691 0.996856
v 43 14 4.39735
vn 0.26389 -0.351814 -0.898103
v 43 14.3242 4
vn 0.0795202 -0.984103 0.158801
v 44 13.8564 4
vn -0.360864 0.859435 0.362144
v 44 14 3.8966
vn -0.213571 -0.456531 0.863694
v 44 14 4.58907
vn -0.270079 0.360064 -0.892979
v 44 14.2112 4
vn -0.123015 -0.961519 -0.245659
v 44.2586 14 4
vn -1 0 0
v 44.5848 15 4
vn 0.972742 0.0801917 0.217584
v 45 14.5195 4
vn 0.244341 0.962635 0.116755
v 45 15 3.69602
vn -0.18078 0.124558 0.975604
v 44.7709 15 5
vn 0.968776 0.0527219 -0.242268
v 45 14.7221 5
vn -0.567036 0.777853 -0.270951
v 45 15 5.17112
vn 0.0599108 0.00816015 -0.99817
v 44.8553 16 4
vn 0.954168 -0.291606 -0.0672935
v 45 16 3.76713
vn 0.314222 -0.216501 0.924333
v 44.9852 16 5
vn 0.934546 -0.20681 -0.289573
v 45 16 5.02777
vn -0.72983 -0.0994065 -0.676363
v 45 16.1446 4
vn -0.0249088 -0.999681 0.00414851
v 45 16.0134 5
vn 0.617984 -0.779424 -0.102924
v 45.2487 15 4
vn -0.97503 0.211248 0.0684849
v 45.1214 15 5
vn -0.973451 0.0183757 -0.228157
v 45.2739 16 4
vn -0.986637 -0.154 0.0532127
v 45.0219 16 5
vn -0.919498 -0.309001 -0.242986
f 3//3 1//1 2//2
f 2//2 4//4 5//5
f 1//1 4//4 2//2
f 5//5 4//4 6//6
f 3//3 7//7 1//1
f 1//1 8//8 4//4
f 7//7 8//8 1//1
f 4//4 8//8 6//6
f 11//11 9//9 10//10
f 10//10 9//9 12//12
f 14//14 9//9 11//11
f 13//13 9//9 14//14
f 12//12 15//15 16//16
f 12//12 9//9 15//15
f 9//9 13//13 15//15
f 16//16 15//15 17//17
f 14//14 18//18 13//13
f 13//13 19//19 15//15
f 18//18 19//19 13//13
f 15//15 19//19 17//17
f 22//22 20//20 21//21
f 21//21 23//23 24//24
f 20//20 23//23 21//21
f 24//24 23//23 25//25
f 22//22 26//26 20//20
f 28//28 20//20 26//26
f 28//28 27//27 20//20
f 27//27 23//23 20//20
f 25//25 27//27 29//29
f 23//23 27//27 25//25
f 28//28 30//30 27//27
f 27//27 30//30 29//29
f 2//2 31//31 3//3
f 5//5 31//31 2//2
f 32//32 31//31 5//5
f 5//5 6//6 32//32
f 31//31 7//7 3//3
f 32//32 7//7 31//31
f 8//8 7//7 32//32
f 32//32 6//6 8//8
f 10//10 33//33 11//11
f 10//10 12//12 33//33
f 34//34 11//11 33//33
f 14//14 11//11 34//34
f 16//16 33//33 12//12
f 16//16 35//35 33//33
f 35//35 34//34 33//33
f 16//16 17//17 35//35
f 34//34 18//18 14//14
f 35//35 18//18 34//34
f 19//19 18//18 35//35
f 35//35 17//17 19//19
f 38//38 36//36 37//37
f 37//37 36//36 39//39
f 38//38 40//40 36//36
f 36//36 40//40 39//39
f 43//43 41//41 42//42
f 42//42 44//44 45//45
f 41//41 44//44 42//42
f 45//45 44//44 46//46
f 48//48 41//41 43//43
f 47//47 41//41 48//48
f 49//49 47//47 50//50
f 49//49 44//44 47//47
f 44//44 41//41 47//47
f 44//44 49//49 46//46
f 47//47 48//48 52//52
f 21//21 51//51 22//22
f 51//51 24//24 53//53
f 51//51 21//21 24//24
f 47//47 52//52 50//50
f 24//24 25//25 53//53
f 51//51 26//26 22//22
f 26//26 54//54 28//28
f 26//26 51//51 54//54
f 51//51 53//53 54//54
f 53//53 29//29 54//54
f 25//25 29//29 53//53
f 54//54 30//30 28//28
f 54//54 29//29 30//30
f 57//57 55//55 56//56
f 56//56 55//55 58//58
f 57//57 59//59 55//55
f 55//55 59//59 58//58
f 37//37 60//60 38//38
f 37//37 39//39 60//60
f 60//60 40//40 38//38
f 60//60 39//39 40//40
f 63//63 61//61 62//62
f 62//62 61//61 64//64
f 66//66 61//61 63//63
f 65//65 61//61 66//66
f 64//64 65//65 67//67
f 61//61 65//65 64//64
f 42//42 68//68 43//43
f 45//45 68//68 42//42
f 45//45 69//69 68//68
f 70//70 65//65 66//66
f 70//70 67//67 65//65
f 69//69 45//45 46//46
f 71//71 43//43 68//68
f 48//48 43//43 71//71
f 50//50 69//69 49//49
f 50//50 71//71 69//69
f 71//71 68//68 69//69
f 69//69 46//46 49//49
f 71//71 52//52 48//48
f 71//71 50//50 52//52
f 56//56 72//72 57//57
f 56//56 58//58 72//72
f 72//72 59//59 57//57
f 72//72 58//58 59//59
f 75//75 73//73 74//74
f 74//74 73//73 76//76
f 73//73 75//75 78//78
f 62//62 77//77 63//63
f 78//78 76//76 73//73
f 77//77 62//62 64//64
f 79//79 63//63 77//77
f 66//66 63//63 79//79
f 77//77 67//67 79//79
f 64//64 67//67 77//77
f 79//79 70//70 66//66
f 79//79 67//67 70//70
f 82//82 80//80 81//81
f 81//81 80//80 83//83
f 82//82 84//84 80//80
f 80//80 84//84 83//83
f 74//74 85//85 75//75
f 74//74 76//76 85//85
f 85//85 78//78 75//75
f 85//85 76//76 78//78
f 81//81 86//86 82//82
f 81//81 83//83 86//86
f 86//86 84//84 82//82
f 86//86 83//83 84//84
f 89//89 87//87 88//88
f 88//88 87//87 90//90
f 89//89 91//91 87//87
f 87//87 91//91 90//90
f 88//88 92//92 89//89
f 88//88 90//90 92//92
f 92//92 91//91 89//89
f 92//92 90//90 91//91
f 95//95 93//93 94//94
f 94//94 93//93 96//96
f 95//95 97//97 93//93
f 93//93 97//97 96//96
f 100//100 98//98 99//99
f 99//99 98//98 101//101
f 103//103 98//98 100//100
f 102//102 98//98 103//103
f 101//101 102//102 104//104
f 98//98 102//102 101//101
f 103//103 105//105 102//102
f 102//102 105//105 104//104
f 94//94 106//106 95//95
f 94//94 96//96 106//106
f 106//106 97//97 95//95
f 106//106 96//96 97//97
f 100//100 107//107 108//108
f 99//99 107//107 100//100
f 99//99 109//109 107//107
f 101//101 109//109 99//99
f 110//110 108//108 111//111
f 110//110 103//103 108//108
f 103//103 100//100 108//108
f 111//111 104//104 110//110
f 111//111 109//109 104//104
f 109//109 101//101 104//104
f 110//110 105//105 103//103
f 110//110 104//104 105//105
f 114//114 112//112 113//113
f 113//113 112//112 115//115
f 112//112 114//114 117//117
f 107//107 116//116 108//108
f 117//117 115//115 112//112
f 116//116 107//107 109//109
f 116//116 111//111 108//108
f 116//116 109//109 111//111
f 120//120 118//118 119//119
f 119//119 118//118 121//121
f 118//118 120//120 123//123
f 113//113 122//122 114//114
f 123//123 121//121 118//118
f 122//122 113//113 115//115
f 122//122 117//117 114//114
f 122//122 115//115 117//117
f 120//120 124//124 125//125
f 119//119 124//124 120//120
f 119//119 126//126 124//124
f 121//121 126//126 119//119
f 125//125 123//123 120//120
f 127//127 123//123 125//125
f 127//127 121//121 123//123
f 126//126 121//121 127//127
f 130//130 128//128 129//129
f 129//129 128//128 131//131
f 130//130 132//132 128//128
f 128//128 132//132 131//131
f 135//135 133//133 134//134
f 134//134 133//133 136//136
f 133//133 135//135 138//138
f 124//124 137//137 125//125
f 138//138 136//136 133//133
f 137//137 124//124 126//126
f 137//137 127//127 125//125
f 137//137 126//126 127//127
f 129//129 139//139 130//130
f 129//129 131//131 139//139
f 139//139 132//132 130//130
f 139//139 131//131 132//132
f 135//135 140//140 141//141
f 134//134 140//140 135//135
f 134//134 142//142 140//140
f 136//136 142//142 134//134
f 141//141 138//138 135//135
f 143//143 138//138 141//141
f 143//143 136//136 138//138
f 142//142 136//136 143//143
f 140//140 144//144 141//141
f 140//140 142//142 144//144
f 144//144 143//143 141//141
f 144//144 142//142 143//143
f 147//147 145//145 146//146
f 146//146 145//145 148//148
f 147//147 149//149 145//145
f 145//145 149//149 148//148
f 146//146 150//150 147//147
f 146//146 148//148 150//150
f 150//150 149//149 147//147
f 150//150 148//148 149//149
f 153//153 151//151 152//152
f 152//152 151//151 154//154
f 153//153 155//155 151//151
f 151//151 155//155 154//154
f 152//152 156//156 153//153
f 152//152 154//154 156//156
f 156//156 155//155 153//153
f 156//156 154//154 155//155
f 159//159 157//157 158//158
f 158//158 157//157 160//160
f 159//159 161//161 157//157
f 157//157 161//161 160//160
f 159//159 162//162 163//163
f 158//158 162//162 159//159
f 158//158 164//164 162//162
f 160//160 164//164 158//158
f 163//163 161//161 159//159
f 165//165 161//161 163//163
f 165//165 160//160 161//161
f 164//164 160//160 165//165
f 162//162 166//166 163//163
f 162//162 164//164 166//166
f 168//168 169//169 167//167
f 166//166 165//165 163//163
f 168//168 170//170 171//171
f 168//168 167//167 170//170
f 165//165 166//166 164//164
f 171//171 170//170 172//172
f 174//174 167//167 169//169
f 173//173 167//167 174//174
f 167//167 173//173 170//170
f 170//170 173//173 175//175
f 172//172 175//175 176//176
f 170//170 175//175 172//172
f 174//174 177//177 173//173
f 173//173 178//178 175//175
f 177//177 178//178 173//173
f 175//175 178//178 176//176
f 168//168 179//179 169//169
f 171//171 179//179 168//168
f 180//180 179//179 171//171
f 171//171 172//172 180//180
f 181//181 169//169 179//179
f 174//174 169//169 181//181
f 179//179 180//180 181//181
f 180//180 182//182 181//181
f 180//180 176//176 182//182
f 172//172 176//176 180//180
f 181//181 177//177 174//174
f 182//182 177//177 181//181
f 178//178 177//177 182//182
f 182//182 176//176 178//178
