# Created by Open3D 
# object name: 018.000000
# number of vertices: 248
# number of triangles: 396
v 3.62888 18 5
vn 1 0 0
v 4 17.7668 5
vn 0 1 0
v 4 18 4.70107
vn 0 0 1
v 4 18 5.70215
vn 0 0 -1
v 4 18.8377 5
vn 2.17537e-16 -1 0
v 3.50678 33 4
vn 1 0 0
v 4 32.371 4
vn 0 1 0
v 4 33 3.46326
vn 0 0 1
v 4 33 4.82366
vn 4.10434e-17 0 -1
v 4 33.5655 4
vn 0 -1 0
v 4.13869 18 5
vn -1 0 0
v 4.8725 25 5
vn 1 0 0
v 5 24.8992 5
vn 2.59752e-17 1 0
v 5 25 4.90041
vn -3.32594e-17 0 1
v 5 25 5.11793
vn 0 0 -1
v 5 25.239 5
vn 0 -1 0
v 4.63905 33 4
vn -1 0 0
v 4.89763 34 5
vn 0.910129 0.180493 0.372946
v 5 33.9013 5
vn 0.375292 0.895162 0.240501
v 5 34 4.78073
vn -0.679823 0.403642 0.612302
v 4.43236 34 6
vn 0.984864 0.163216 -0.0583357
v 5 33.6723 6
vn -0.0640904 0.997099 -0.0410715
v 5 34 6.71636
vn 0.270887 0.635697 -0.722848
v 4.76341 35 5
vn 0.966971 -0.177477 0.182948
v 5 35 4.24027
vn 0.179831 -0.106774 0.977886
v 4.78772 35 6
vn 0.922107 -0.379593 -0.0750112
v 4.91023 35 7
vn 0.921952 -0.0913767 -0.376371
v 5 34.5987 7
vn -0.749573 0.318849 -0.580065
v 5 35 7.06777
vn -1.28908e-17 0 -1
v 5 35.4973 5
vn -0.210348 -0.956786 0.200783
v 5 35.4395 6
vn 0.170124 -0.967798 -0.185541
v 5 35.097 7
vn 0.638597 -0.727554 -0.250717
v 5.90908 13 4
vn 0.898423 0.276544 0.341114
v 6 12.7413 4
vn 5.43582e-17 1 0
v 6 13 3.87181
vn -0.189231 0.324204 0.926867
v 6 13 4.33335
vn 0.0642693 0.45488 -0.888231
v 5.59819 14 4
vn 0.999766 0.0175082 0.0127078
v 6 14 3.52265
vn 0.0958704 0.0627995 0.993411
v 6 14 4.71641
vn 0.0862028 -0.0898358 -0.992219
v 5.87118 15 4
vn 0.911923 -0.286858 -0.293444
v 6 15 3.73886
vn 0.351738 -0.341721 0.871497
v 6 15 4.19935
vn 0.025 -0.529508 -0.847937
v 6 15.1559 4
vn 0.0277538 -0.996975 0.0726038
v 5.17951 25 5
vn -1 -4.69408e-17 0
v 5.0732 34 5
vn -0.866475 0.459074 0.196142
v 5.28427 34 6
vn -0.902294 0.417879 -0.106032
v 5.49137 35 5
vn -0.939738 0.0839812 0.331419
v 5.71794 35 6
vn -0.945569 -0.296844 -0.133355
v 5.18032 35 7
vn -0.857622 -0.123661 -0.499191
v 5.57899 36 5
vn 0.945335 0.0446697 0.323028
v 6 35.5847 5
vn 0 0.851972 0.523587
v 6 36 4.66323
vn 0 0 1
v 5.41359 36 6
vn 0.963253 0.0998088 -0.249365
v 6 35.1785 6
vn -5.02746e-17 0.993628 -0.112712
v 6 36 6.62629
vn 0.176112 0.102673 -0.979001
v 6 36.9156 5
vn -0.545557 -0.279412 0.790124
v 5.81126 37 6
vn 0.919919 -0.374115 -0.117421
v 6 37 5.07911
vn 0.531024 -0.779558 0.332118
v 6 37 6.35529
vn -0.355869 -0.20747 -0.911215
v 6 37.3102 6
vn -2.35617e-17 -1 0
v 6.66506 12 5
vn 1 -2.31663e-17 0
v 7 11.6077 5
vn -7.26256e-17 1 0
v 7 12 4.28458
vn 0 0 1
v 7 12 5.1609
vn 0 0 -1
v 6.46224 13 4
vn -0.608979 0.624402 -0.489149
v 7 12.2913 5
vn -3.63128e-17 -1 0
v 7 13.5195 4
vn -0.606834 0.480332 0.633273
v 7 14 3.83705
vn -0.39981 0.179885 0.898773
v 7 14 4.15181
vn -0.512709 0.17558 -0.840417
v 7 15 3.81709
vn -0.254552 -0.267237 0.929402
v 7 15 4.03803
vn -0.371222 -0.275322 -0.886788
v 7 15.0512 4
vn -0.129348 -0.93208 -0.338374
v 6.60829 25 6
vn 1 0 0
v 7 24.7275 6
vn 2.42904e-17 1 0
v 7 25 5.68974
vn 0 0 1
v 7 25 6.19091
vn 2.56077e-17 0 -1
v 7 25.2029 6
vn 0 -1 0
v 6.17839 36 5
vn -0.916417 0.186901 0.353905
v 6.39426 36 6
vn -0.915957 0.274768 -0.292449
v 6.73432 37 6
vn -0.964701 -0.250526 0.0811739
v 7.78415 10 4
vn 0.980112 -0.159139 0.118556
v 8 9.84398 4
vn 0.429734 0.892087 0.139674
v 8 10 3.72456
vn 0.18585 0.197321 0.962561
v 7.78046 10 5
vn 0.979241 0.162548 -0.121096
v 8 9.80657 5
vn 0.392718 0.857218 -0.333092
v 8 10 5.46259
vn 0.162378 -0.384621 -0.90868
v 8 10.4423 4
vn -0.0449406 -0.946631 0.319171
v 8 10.589 5
vn 0.351291 -0.904133 -0.243184
v 7.10117 12 5
vn -1 -5.79157e-18 0
v 7.11783 14 4
vn -0.996594 0.0162474 -0.0808423
v 7.04089 15 4
vn -0.956735 -0.0573302 0.285258
v 7.17828 25 6
vn -1 0 0
v 7.71152 39 6
vn 1 -1.3161e-17 0
v 8 38.8245 6
vn 8.26744e-18 1 0
v 8 39 5.1672
vn 0 0 1
v 8 39 6.15269
vn 0 0 -1
v 7.79434 40 5
vn 1 0 0
v 8 39.1355 5
vn 0 1 0
v 8 40 4.55215
vn -3.60964e-17 0 1
v 8 39.3595 6
vn 3.30697e-17 -1 0
v 8 40 5.41819
vn -3.60964e-17 0 -1
v 8 40.2932 5
vn 0 -1 0
v 9 9.50047 4
vn -0.328889 0.857478 0.39568
v 9 10 3.74846
vn -0.180255 -0.191381 0.964822
v 9 9.30262 5
vn 0.0174525 0.978737 -0.204377
v 9 10 5.50069
vn -0.129797 0.307446 -0.942672
v 9 10.1815 4
vn -0.351507 -0.926264 0.135936
v 9 10.2287 5
vn -0.304191 -0.934479 -0.184978
v 8.13735 39 6
vn -1 6.58049e-18 0
v 8.45855 40 5
vn -1 0 0
v 9.26686 9 4
vn 0.943163 -0.225204 0.244391
v 10 8.17749 4
vn 0 0.967344 0.253466
v 10 9 3.36421
vn 0 0 1
v 9.36717 9 5
vn 0.908935 0.282537 -0.306609
v 10 8.11702 5
vn 8.08438e-17 0.852382 -0.52292
v 10 9 5.34073
vn 2.77483e-17 0 -1
v 9.38943 10 4
vn -0.968337 0 0.249646
v 10 9.6371 4
vn -0.112342 -0.987634 0.109353
v 9.32266 10 5
vn -0.991898 -1.32942e-17 -0.127035
v 10 9.26268 5
vn 0.303224 -0.906056 -0.295157
v 10.8302 7 5
vn 0.730361 0.626262 0.272706
v 11 6.84441 5
vn 0.343141 0.935541 -0.0837688
v 11 7 4.65176
vn -0.22128 -0.227417 0.948323
v 11 7 5.36267
vn 0.306882 0.234389 -0.922434
v 10.4898 8 4
vn 0.84315 -0.0794922 0.531769
v 11 7.73295 4
vn 0.279769 0.686361 0.671296
v 11 8 3.80161
vn 0 0 1
v 10.1187 8 5
vn 0.921141 -0.108014 -0.373943
v 11 8 5.30161
vn -0.081337 -0.373354 -0.924116
v 10.5318 9 4
vn -0.989385 0 0.145316
v 11 8.20332 4
vn -0.223108 -0.960911 0.163929
v 10.2403 9 5
vn -0.968036 -1.34537e-17 -0.250811
v 11 8.2374 5
vn 0.10342 -0.991731 -0.0759881
v 11.7675 7 4
vn 0.618641 0 0.785674
v 12 6.8018 4
vn -0.0207223 0.924583 0.380416
v 12 7 3.86436
vn 2.01929e-17 0 1
v 12 6.46243 5
vn -0.0981933 0.985087 -0.141286
v 12 7 5.38191
vn -0.200907 0.115994 -0.972719
v 11.1556 8 4
vn -0.978851 0.0974307 0.179882
v 12 7.1329 4
vn -0.0557296 -0.966696 0.249787
v 11.2246 8 5
vn -0.868541 -0.336428 0.363939
v 12 7.34255 5
vn -0.340554 -0.919511 0.196273
v 12.7624 6 4
vn 0.935286 -0.324399 0.141442
v 13 5.87677 4
vn 0.204711 0.955618 0.211867
v 13 6 3.84206
vn 0 0 1
v 12.7071 6 5
vn 0.921933 0.355068 -0.154814
v 13 5.88663 5
vn 0.335388 0.882209 -0.330487
v 13 6 5.15848
vn 0.128278 -0.383753 -0.914483
v 12.2864 7 4
vn -0.896617 0 0.442808
v 13 6.336 4
vn -0.0498268 -0.96721 0.249043
v 12.5609 7 5
vn -0.998127 -3.58082e-17 -0.0611721
v 13 6.31278 5
vn 0.314818 -0.923024 -0.22117
v 13.7547 6 4
vn -0.231485 0.643026 0.730022
v 14 5.47688 5
vn -0.096304 0.995326 0.00717667
v 14 6 4.13472
vn -0.708701 -0.495259 0.502456
v 14 6 5.32392
vn -0.0440294 0.131717 -0.990309
v 14 6.2209 5
vn -0.219612 -0.969023 -0.112986
v 14.6333 5 4
vn 1 -7.59219e-17 0
v 15 4.78273 4
vn 0 1 0
v 15 5 3.75674
vn 0 0 1
v 15 5 4.61222
vn -1.11055e-16 0 -1
v 15 5.21007 4
vn 5.54751e-17 -1 0
v 14.4491 6 5
vn -1 0 0
v 15.2181 5 4
vn -1 -7.59219e-17 0
v 19.5445 3 6
vn 1 0 0
v 20 2.65868 6
vn 0 1 0
v 20 3 5.60992
vn 0 0 1
v 20 3 6.70011
vn 4.95798e-17 0 -1
v 20 3.61865 6
vn 0 -1 0
v 20.7108 3 6
vn -1 0 0
v 22.9569 21 4
vn 1 3.50862e-17 0
v 23 20.9138 4
vn -5.47932e-17 1 0
v 23 21 3.91122
vn -5.59051e-17 0 1
v 23 21 4.02352
vn 0 0 -1
v 23 21.0239 4
vn 0 -1 0
v 23.7052 3 7
vn 1 -3.35253e-17 0
v 24 2.59378 7
vn -2.66573e-17 1 0
v 24 3 6.53483
vn -3.18045e-17 0 1
v 24 3 7.23759
vn 3.18045e-17 0 -1
v 24 3.18281 7
vn 2.66573e-17 -1 0
v 23.0273 21 4
vn -1 1.75431e-17 0
v 24.446 3 7
vn -1 6.70506e-17 0
v 25.0844 3 6
vn 1 -1.67831e-16 0
v 26 2.58854 6
vn 0.00297729 0.999966 -0.00765998
v 26 3 5.61593
vn 0.00164471 0.0103317 0.999945
v 26 3 6.20449
vn 0.00177316 -0.00427352 -0.999989
v 26 3.15052 6
vn 0.000654184 -0.999995 0.00303285
v 27 2.99133 6
vn 0.02927 0.999541 0.00776997
v 27 3 5.98879
vn 0.336399 0.501933 0.796805
v 27 3 6.00462
vn 0.000570532 -0.364329 -0.93127
v 27 3.00345 6
vn 0.105856 -0.993865 0.0320591
v 28 2.59524 6
vn 0.226752 0.96899 -0.0981961
v 28 3 5.25087
vn 0.587114 0.446794 0.675036
v 28 3 6.44627
vn 0.195055 -0.340823 -0.91967
v 28 3.1823 6
vn 0.116654 -0.99316 0.00507601
v 28.2377 3 5
vn 0.464904 -0.615987 0.635943
v 29 2.59552 5
vn 0.0355086 0.943468 0.329556
v 29 3 4.60825
vn 0 0 1
v 29 2.59106 6
vn -0.403449 0.886389 -0.227031
v 29 3 6.50375
vn -0.209599 0.368485 -0.905697
v 29 3.18663 5
vn -0.0636406 -0.991009 0.117687
v 29 3.16405 6
vn -0.113932 -0.977741 -0.176188
v 29.4095 3 5
vn -0.981242 0.165633 0.0986451
v 29.2079 3 6
vn -0.910309 -0.355636 -0.211804
v 33.7855 5 4
vn 0.982087 -0.187996 0.0127247
v 34 4.94153 4
vn 0.0159486 0.999869 0.00290831
v 34 5 3.95985
vn 0 0 1
v 33.9729 5 5
vn 0.326794 0.942938 -0.0638238
v 34 4.99343 5
vn -0.272585 0.960847 -0.0497072
v 34 5 5.00475
vn 0 0 -1
v 34 5.06856 4
vn -0.0225864 -0.99973 0.00537468
v 34 5.00922 5
vn 0.24981 -0.966469 -0.0594448
v 34.1553 5 4
vn -0.985877 0.167002 0.0125468
v 34.0235 5 5
vn -0.476581 -0.87666 -0.0658631
v 37.7167 7 4
vn 1 0 0
v 38 6.46433 4
vn 7.69366e-17 1 0
v 38 7 3.67791
vn 5.2501e-17 0 1
v 38 7 4.21147
vn 0 0 -1
v 38 7.24622 4
vn 0 -1 0
v 38.3929 7 4
vn -1 0 0
v 40.8683 10 4
vn 1 -1.30498e-17 0
v 41 9.55317 4
vn 0 1 0
v 41 10 3.77293
vn 3.55156e-17 0 1
v 41 10 4.18672
vn 0 0 -1
v 41 10.1957 4
vn 0 -1 0
v 41.4764 10 4
vn -1 0 0
v 42.6643 11 4
vn 0.981761 0.0250231 0.188465
v 43 10.9505 4
vn 0 1 0
v 43 11 3.93805
vn -0.054982 0.0203317 0.99828
v 43 11 4.10798
vn 0.167282 0.016669 -0.985768
v 42.961 12 4
vn 0.530413 -0.111578 -0.840364
v 43 12 3.97521
vn 0.149129 -0.0551462 0.987279
v 43 12 4.07721
vn -0.623192 -0.0620986 -0.779599
v 43 12.0187 4
vn 0 -1 0
v 43.0606 11 4
vn -0.991062 0.0183875 -0.132127
v 43.0341 12 4
vn -0.938112 -0.0477373 0.343027
v 43.9182 14 6
vn 1 -1.8469e-17 0
v 44 13.886 6
vn 0 1 0
v 44 14 5.79137
vn 0 0 1
v 44 14 6.15489
vn 0 0 -1
v 44 14.1444 6
vn 0 -1 0
v 44.114 14 6
vn -1 3.69379e-17 0
v 44.8381 16 6
vn 1 0 0
v 45 15.6353 6
vn 4.90636e-17 1 0
v 45 16 5.75111
vn -3.89987e-17 0 1
v 45 16 6.14335
vn 3.89987e-17 0 -1
v 45 16.1288 6
vn 0 -1 0
v 45.1986 16 6
vn -1 -1.79247e-17 0
f 3//3 1//1 2//2
f 2//2 1//1 4//4
f 3//3 5//5 1//1
f 1//1 5//5 4//4
f 8//8 6//6 7//7
f 7//7 6//6 9//9
f 8//8 10//10 6//6
f 6//6 10//10 9//9
f 2//2 11//11 3//3
f 2//2 4//4 11//11
f 11//11 5//5 3//3
f 11//11 4//4 5//5
f 14//14 12//12 13//13
f 13//13 12//12 15//15
f 14//14 16//16 12//12
f 12//12 16//16 15//15
f 7//7 17//17 8//8
f 7//7 9//9 17//17
f 17//17 10//10 8//8
f 17//17 9//9 10//10
f 19//19 20//20 18//18
f 19//19 21//21 22//22
f 18//18 21//21 19//19
f 22//22 21//21 23//23
f 25//25 18//18 20//20
f 24//24 18//18 25//25
f 18//18 24//24 21//21
f 21//21 24//24 26//26
f 23//23 27//27 28//28
f 23//23 21//21 27//27
f 21//21 26//26 27//27
f 28//28 27//27 29//29
f 25//25 30//30 24//24
f 24//24 31//31 26//26
f 30//30 31//31 24//24
f 26//26 32//32 27//27
f 31//31 32//32 26//26
f 27//27 32//32 29//29
f 35//35 33//33 34//34
f 34//34 33//33 36//36
f 38//38 33//33 35//35
f 37//37 33//33 38//38
f 36//36 37//37 39//39
f 33//33 37//37 36//36
f 41//41 37//37 38//38
f 40//40 37//37 41//41
f 39//39 40//40 42//42
f 37//37 40//40 39//39
f 41//41 43//43 40//40
f 40//40 43//43 42//42
f 13//13 44//44 14//14
f 13//13 15//15 44//44
f 44//44 16//16 14//14
f 44//44 15//15 16//16
f 19//19 45//45 20//20
f 22//22 45//45 19//19
f 46//46 45//45 22//22
f 22//22 23//23 46//46
f 47//47 20//20 45//45
f 25//25 20//20 47//47
f 45//45 46//46 47//47
f 46//46 48//48 47//47
f 28//28 46//46 23//23
f 28//28 49//49 46//46
f 49//49 48//48 46//46
f 28//28 29//29 49//49
f 51//51 52//52 50//50
f 47//47 30//30 25//25
f 51//51 50//50 54//54
f 54//54 50//50 53//53
f 30//30 47//47 48//48
f 30//30 48//48 31//31
f 31//31 49//49 32//32
f 31//31 48//48 49//49
f 54//54 53//53 55//55
f 49//49 29//29 32//32
f 52//52 56//56 50//50
f 58//58 50//50 56//56
f 58//58 57//57 50//50
f 57//57 53//53 50//50
f 55//55 57//57 59//59
f 53//53 57//57 55//55
f 58//58 60//60 57//57
f 57//57 60//60 59//59
f 63//63 61//61 62//62
f 62//62 61//61 64//64
f 34//34 65//65 35//35
f 63//63 66//66 61//61
f 65//65 34//34 36//36
f 61//61 66//66 64//64
f 67//67 35//35 65//65
f 67//67 68//68 35//35
f 68//68 38//38 35//35
f 65//65 69//69 67//67
f 65//65 36//36 69//69
f 36//36 39//39 69//69
f 68//68 70//70 38//38
f 70//70 41//41 38//38
f 69//69 39//39 71//71
f 71//71 39//39 42//42
f 70//70 43//43 41//41
f 72//72 43//43 70//70
f 72//72 42//42 43//43
f 71//71 42//42 72//72
f 75//75 73//73 74//74
f 74//74 73//73 76//76
f 75//75 77//77 73//73
f 73//73 77//77 76//76
f 51//51 78//78 52//52
f 54//54 78//78 51//51
f 79//79 78//78 54//54
f 54//54 55//55 79//79
f 78//78 56//56 52//52
f 56//56 80//80 58//58
f 56//56 78//78 80//80
f 78//78 79//79 80//80
f 79//79 59//59 80//80
f 55//55 59//59 79//79
f 80//80 60//60 58//58
f 80//80 59//59 60//60
f 83//83 81//81 82//82
f 82//82 84//84 85//85
f 81//81 84//84 82//82
f 85//85 84//84 86//86
f 83//83 87//87 81//81
f 81//81 88//88 84//84
f 87//87 88//88 81//81
f 84//84 88//88 86//86
f 62//62 89//89 63//63
f 62//62 64//64 89//89
f 89//89 66//66 63//63
f 89//89 64//64 66//66
f 67//67 90//90 68//68
f 67//67 69//69 90//90
f 91//91 68//68 90//90
f 70//70 68//68 91//91
f 90//90 71//71 91//91
f 69//69 71//71 90//90
f 91//91 72//72 70//70
f 91//91 71//71 72//72
f 74//74 92//92 75//75
f 74//74 76//76 92//92
f 92//92 77//77 75//75
f 92//92 76//76 77//77
f 95//95 93//93 94//94
f 94//94 93//93 96//96
f 99//99 97//97 98//98
f 98//98 97//97 101//101
f 95//95 100//100 93//93
f 93//93 100//100 96//96
f 99//99 102//102 97//97
f 97//97 102//102 101//101
f 83//83 103//103 104//104
f 82//82 103//103 83//83
f 103//103 82//82 105//105
f 82//82 85//85 105//105
f 85//85 106//106 105//105
f 86//86 106//106 85//85
f 104//104 87//87 83//83
f 107//107 87//87 104//104
f 107//107 108//108 87//87
f 87//87 108//108 88//88
f 108//108 86//86 88//88
f 106//106 86//86 108//108
f 94//94 109//109 95//95
f 94//94 96//96 109//109
f 98//98 110//110 99//99
f 95//95 109//109 100//100
f 98//98 101//101 110//110
f 109//109 96//96 100//100
f 110//110 102//102 99//99
f 110//110 101//101 102//102
f 113//113 111//111 112//112
f 112//112 114//114 115//115
f 111//111 114//114 112//112
f 115//115 114//114 116//116
f 111//111 113//113 118//118
f 103//103 117//117 104//104
f 103//103 119//119 117//117
f 103//103 105//105 119//119
f 118//118 120//120 111//111
f 120//120 114//114 111//111
f 120//120 116//116 114//114
f 119//119 105//105 106//106
f 117//117 107//107 104//104
f 119//119 107//107 117//117
f 108//108 107//107 119//119
f 119//119 106//106 108//108
f 123//123 121//121 122//122
f 122//122 121//121 124//124
f 127//127 125//125 126//126
f 126//126 121//121 123//123
f 126//126 125//125 121//121
f 125//125 128//128 121//121
f 124//124 128//128 129//129
f 121//121 128//128 124//124
f 125//125 127//127 131//131
f 112//112 130//130 113//113
f 112//112 132//132 130//130
f 112//112 115//115 132//132
f 131//131 133//133 125//125
f 133//133 128//128 125//125
f 133//133 129//129 128//128
f 132//132 115//115 116//116
f 130//130 118//118 113//113
f 132//132 118//118 130//130
f 120//120 118//118 132//132
f 132//132 116//116 120//120
f 136//136 134//134 135//135
f 123//123 135//135 134//134
f 123//123 122//122 135//135
f 122//122 137//137 135//135
f 122//122 138//138 137//137
f 124//124 138//138 122//122
f 134//134 136//136 140//140
f 126//126 139//139 127//127
f 140//140 142//142 123//123
f 140//140 123//123 134//134
f 142//142 141//141 123//123
f 126//126 123//123 139//139
f 141//141 139//139 123//123
f 142//142 129//129 141//141
f 142//142 138//138 129//129
f 138//138 124//124 129//129
f 139//139 131//131 127//127
f 141//141 131//131 139//139
f 133//133 131//131 141//141
f 141//141 129//129 133//133
f 145//145 143//143 144//144
f 144//144 146//146 147//147
f 143//143 146//146 144//144
f 147//147 146//146 148//148
f 143//143 145//145 150//150
f 135//135 149//149 136//136
f 135//135 151//151 149//149
f 135//135 137//137 151//151
f 150//150 152//152 143//143
f 152//152 146//146 143//143
f 152//152 148//148 146//146
f 151//151 137//137 138//138
f 149//149 140//140 136//136
f 151//151 140//140 149//149
f 142//142 140//140 151//151
f 151//151 138//138 142//142
f 144//144 153//153 145//145
f 153//153 154//154 155//155
f 153//153 144//144 154//154
f 144//144 147//147 154//154
f 147//147 156//156 154//154
f 148//148 156//156 147//147
f 153//153 150//150 145//145
f 155//155 150//150 153//153
f 155//155 157//157 150//150
f 157//157 152//152 150//150
f 157//157 148//148 152//152
f 156//156 148//148 157//157
f 160//160 158//158 159//159
f 159//159 158//158 161//161
f 160//160 162//162 158//158
f 158//158 162//162 161//161
f 155//155 154//154 163//163
f 154//154 156//156 163//163
f 163//163 157//157 155//155
f 163//163 156//156 157//157
f 159//159 164//164 160//160
f 159//159 161//161 164//164
f 164//164 162//162 160//160
f 164//164 161//161 162//162
f 167//167 165//165 166//166
f 166//166 165//165 168//168
f 167//167 169//169 165//165
f 165//165 169//169 168//168
f 166//166 170//170 167//167
f 166//166 168//168 170//170
f 170//170 169//169 167//167
f 170//170 168//168 169//169
f 173//173 171//171 172//172
f 172//172 171//171 174//174
f 173//173 175//175 171//171
f 171//171 175//175 174//174
f 178//178 176//176 177//177
f 177//177 176//176 179//179
f 178//178 180//180 176//176
f 176//176 180//180 179//179
f 172//172 181//181 173//173
f 172//172 174//174 181//181
f 181//181 175//175 173//173
f 181//181 174//174 175//175
f 177//177 182//182 178//178
f 177//177 179//179 182//182
f 182//182 180//180 178//178
f 182//182 179//179 180//180
f 185//185 183//183 184//184
f 184//184 183//183 186//186
f 185//185 187//187 183//183
f 183//183 187//187 186//186
f 185//185 188//188 189//189
f 184//184 188//188 185//185
f 184//184 190//190 188//188
f 186//186 190//190 184//184
f 189//189 187//187 185//185
f 191//191 187//187 189//189
f 191//191 186//186 187//187
f 190//190 186//186 191//191
f 189//189 192//192 193//193
f 188//188 192//192 189//189
f 188//188 194//194 192//192
f 190//190 194//194 188//188
f 193//193 191//191 189//189
f 195//195 191//191 193//193
f 195//195 190//190 191//191
f 194//194 190//190 195//195
f 198//198 196//196 197//197
f 193//193 197//197 196//196
f 193//193 192//192 197//197
f 192//192 199//199 197//197
f 192//192 200//200 199//199
f 194//194 200//200 192//192
f 198//198 201//201 196//196
f 196//196 195//195 193//193
f 196//196 201//201 195//195
f 201//201 202//202 195//195
f 202//202 194//194 195//195
f 200//200 194//194 202//202
f 197//197 203//203 198//198
f 199//199 203//203 197//197
f 204//204 203//203 199//199
f 199//199 200//200 204//204
f 203//203 201//201 198//198
f 204//204 201//201 203//203
f 202//202 201//201 204//204
f 204//204 200//200 202//202
f 207//207 205//205 206//206
f 206//206 208//208 209//209
f 205//205 208//208 206//206
f 209//209 208//208 210//210
f 207//207 211//211 205//205
f 205//205 212//212 208//208
f 211//211 212//212 205//205
f 208//208 212//212 210//210
f 206//206 213//213 207//207
f 209//209 213//213 206//206
f 214//214 213//213 209//209
f 209//209 210//210 214//214
f 213//213 211//211 207//207
f 214//214 211//211 213//213
f 212//212 211//211 214//214
f 214//214 210//210 212//212
f 217//217 215//215 216//216
f 216//216 215//215 218//218
f 217//217 219//219 215//215
f 215//215 219//219 218//218
f 216//216 220//220 217//217
f 216//216 218//218 220//220
f 220//220 219//219 217//217
f 220//220 218//218 219//219
f 223//223 221//221 222//222
f 222//222 221//221 224//224
f 223//223 225//225 221//221
f 221//221 225//225 224//224
f 222//222 226//226 223//223
f 222//222 224//224 226//226
f 226//226 225//225 223//223
f 226//226 224//224 225//225
f 229//229 227//227 228//228
f 228//228 227//227 230//230
f 232//232 227//227 229//229
f 231//231 227//227 232//232
f 230//230 231//231 233//233
f 227//227 231//231 230//230
f 232//232 234//234 231//231
f 231//231 234//234 233//233
f 228//228 235//235 229//229
f 228//228 230//230 235//235
f 236//236 229//229 235//235
f 232//232 229//229 236//236
f 235//235 233//233 236//236
f 230//230 233//233 235//235
f 236//236 234//234 232//232
f 236//236 233//233 234//234
f 239//239 237//237 238//238
f 238//238 237//237 240//240
f 239//239 241//241 237//237
f 237//237 241//241 240//240
f 238//238 242//242 239//239
f 238//238 240//240 242//242
f 242//242 241//241 239//239
f 242//242 240//240 241//241
f 245//245 243//243 244//244
f 244//244 243//243 246//246
f 245//245 247//247 243//243
f 243//243 247//247 246//246
f 244//244 248//248 245//245
f 244//244 246//246 248//248
f 248//248 247//247 245//245
f 248//248 246//246 247//247
