# Created by Open3D 
# object name: 018.100000
# number of vertices: 230
# number of triangles: 344
v 2.63879 25 6
vn 1 2.32277e-17 0
v 3 24.3931 6
vn -7.48954e-17 1 0
v 3 25 5.60556
vn 3.12244e-17 0 1
v 3 25 6.31137
vn 3.12244e-17 0 -1
v 3 25.2396 6
vn 0 -1 0
v 2.61223 27 4
vn 1 0 0
v 3 26.7311 4
vn 0 1 0
v 3 27 3.86225
vn 0 0 1
v 3 27 4.16686
vn -1.93643e-17 0 -1
v 3 27.142 4
vn -2.61192e-17 -1 0
v 2.49574 28 5
vn 1 0 0
v 3 27.6451 5
vn 5.15175e-17 1 0
v 3 28 4.68746
vn -3.48955e-17 0 1
v 3 28 5.53278
vn -6.97909e-17 0 -1
v 3 28.2691 5
vn -5.15175e-17 -1 0
v 2.67868 29 6
vn 1 0 0
v 3 28.5195 6
vn -6.96062e-17 1 0
v 3 29 5.77003
vn 2.55996e-17 0 1
v 3 29 6.23041
vn 2.55996e-17 0 -1
v 3 29.1454 6
vn 0 -1 0
v 3.52902 18 6
vn 1 2.87739e-17 0
v 4 17.6472 6
vn -2.06282e-17 1 0
v 4 18 5.38115
vn -7.88972e-17 0 1
v 4 18 6.34153
vn -3.94486e-17 0 -1
v 4 18.6515 6
vn 4.12564e-17 -1 0
v 3.16385 25 6
vn -1 0 0
v 3.04829 27 4
vn -1 0 0
v 3.13308 28 5
vn -1 0 0
v 3.11175 29 6
vn -1 1.20406e-17 0
v 3.54173 33 4
vn 1 0 0
v 4 32.4158 4
vn 7.27741e-17 1 0
v 4 33 3.51049
vn 0 0 1
v 4 33 4.93007
vn 9.15428e-17 0 -1
v 4 33.5443 4
vn 0 -1 0
v 4.22953 18 6
vn -1 1.4387e-17 0
v 4.61639 33 4
vn -1 0 0
v 4.65477 34 5
vn 0.969627 -0.00115059 0.244588
v 5 33.744 5
vn 0.0889863 0.995068 0.0438309
v 5 34 4.57737
vn 0 0 1
v 4.71952 34 6
vn 0.876897 0.411278 -0.248802
v 5 33.904 6
vn -0.35983 0.916029 -0.177237
v 5 34 6.16082
vn 0.627836 0.262644 -0.732694
v 5 34.7818 5
vn -0.477898 -0.339472 0.810168
v 4.67993 35 6
vn 0.977688 -0.183856 -0.101603
v 5 35 5.13357
vn 0.372673 -0.751678 0.544146
v 5 35 6.62996
vn -0.0853119 -0.0356888 -0.995715
v 5 35.4443 6
vn 0 -1 0
v 5.21207 34 5
vn -0.902674 0.31987 0.287859
v 5.09826 34 6
vn -0.712152 0.556249 -0.428284
v 5.91154 35 6
vn -0.993356 -0.11323 -0.0205427
v 5.47403 36 6
vn 0.999414 0.0194841 0.0281301
v 6 35.0653 6
vn 0 1 0
v 6 36 5.50821
vn -0.040819 0.0788757 0.996048
v 6 36 6.57427
vn 0.01485 0.0513712 -0.998569
v 5.93862 37 6
vn 0.797732 -0.343352 -0.495715
v 6 37 5.88163
vn 0.229479 -0.103536 0.967791
v 6 37 6.123
vn 0.153181 -0.206525 -0.966376
v 6 37.1275 6
vn 0.756332 -0.538331 0.371702
v 6.60483 12 4
vn 1 1.80636e-17 0
v 7 11.3251 4
vn 0 1 0
v 7 12 3.61901
vn 0 0 1
v 7 12 4.27475
vn 2.56161e-17 0 -1
v 7 12.4967 4
vn -4.57679e-17 -1 0
v 6.62807 25 6
vn 1 6.02255e-17 0
v 7 24.7145 6
vn 2.61025e-17 1 0
v 7 25 5.698
vn 2.68328e-17 0 1
v 7 25 6.1847
vn 0 0 -1
v 7 25.188 6
vn 0 -1 0
v 6.41676 36 6
vn -0.882748 0.469564 -0.0162957
v 7 36.9615 6
vn -0.725534 0.448681 0.521811
v 7 37 5.95523
vn -0.30866 0.107687 0.945057
v 7 37 6.04291
vn -0.315404 0.0780042 -0.945746
v 6.63372 38 6
vn 0.813759 -0.575925 -0.0781437
v 7 38 5.49606
vn 0.0142361 -0.0839989 0.996364
v 7 38 6.31305
vn -0.0608507 -0.0439329 -0.99718
v 7 38.573 6
vn 5.36556e-17 -1 0
v 7.30725 11 4
vn 1 -4.50927e-17 0
v 8 10.1657 4
vn -5.77463e-17 1 0
v 8 11 3.4281
vn 0 0 1
v 8 11 4.31728
vn -1.85437e-17 0 -1
v 7.52964 12 4
vn -1 0 0
v 8 11.5501 4
vn 2.88731e-17 -1 0
v 7.17426 25 6
vn -1 -3.01127e-17 0
v 7.01964 37 6
vn -0.818681 0.193466 -0.540678
v 7.26688 38 6
vn -0.999877 -0.00528464 0.014769
v 7.82203 40 5
vn 1 0 0
v 8 39.6858 5
vn 0 1 0
v 8 40 4.87404
vn -1.30212e-17 0 1
v 8 40 5.76372
vn 1.0417e-16 0 -1
v 8 40.1767 5
vn 0 -1 0
v 8.74331 9 5
vn 0.888794 0.445712 0.106709
v 9 8.7481 5
vn 0.179253 0.942061 -0.283529
v 9 9 4.56484
vn -0.0852997 0.532899 0.841868
v 9 9 5.46383
vn 0.215754 0.127511 -0.968086
v 8.42671 10 4
vn 0.940961 -0.163806 0.296242
v 9 9.81832 4
vn 0.336466 0.62728 0.702361
v 9 10 3.92524
vn 0 0 1
v 8.62834 10 5
vn 0.878771 -0.183724 -0.440462
v 9 10 5.18676
vn -0.228424 -0.434198 -0.871375
v 8.38836 11 4
vn -1 0 0
v 9 10.1448 4
vn -0.147087 -0.983759 0.10288
v 9 10.1236 5
vn 0.123022 -0.988666 -0.0860481
v 8.3648 40 5
vn -1 1.27103e-16 0
v 8.80138 41 5
vn 1 2.27706e-17 0
v 9 40.6012 5
vn 0.0259601 0.996355 -0.0812612
v 9 41 4.79015
vn 0.0281912 0.110033 0.993528
v 9 41 5.30133
vn 0.0687845 -0.125742 -0.989676
v 9 41.1973 5
vn 0.080076 -0.975075 0.20692
v 10 8.60067 5
vn -0.174747 0.945021 0.276403
v 10 9 4.81614
vn -0.362568 0 0.931957
v 10 9 5.19706
vn -0.310349 0.0958359 -0.94578
v 9.07841 10 4
vn -0.81594 -0.152727 0.557599
v 9.12616 10 5
vn -0.722549 -0.689954 -0.0434307
v 10 9.12921 5
vn -0.821332 -0.390194 0.416129
v 10 40.9411 5
vn -0.216095 0.704093 0.676429
v 10 41 4.91434
vn -0.114843 -0.448242 0.886505
v 10 41 5.10961
vn -0.233553 0.426947 -0.873596
v 10 41.1482 5
vn -0.139069 -0.922778 -0.359362
v 10.1186 9 5
vn -1 -1.7233e-17 0
v 10.0513 41 5
vn -1 0 0
v 10.9238 43 5
vn 1 0 0
v 11 42.7441 5
vn 0 1 0
v 11 43 4.93937
vn -2.67355e-18 0 1
v 11 43 5.12942
vn -1.06942e-17 0 -1
v 11 43.0944 5
vn 0 -1 0
v 11.7574 7 5
vn 1 0 0
v 12 6.88662 5
vn -1.5736e-17 1 0
v 12 7 4.83733
vn 0 0 1
v 12 7 5.07622
vn 1.22119e-17 0 -1
v 12 7.19445 5
vn 3.14721e-17 -1 0
v 11.85 43 5
vn -1 2.08464e-16 0
v 12.2189 7 5
vn -1 0 0
v 13.965 6 4
vn 1 0 0
v 14 5.92391 4
vn 0 1 0
v 14 6 3.99137
vn -5.83518e-18 0 1
v 14 6 4.187
vn 1.40044e-16 0 -1
v 14 6.00866 4
vn 0 -1 0
v 14.214 5 4
vn 1 6.31291e-17 0
v 15 4.55302 4
vn 0 1 0
v 15 5 3.52728
vn 2.11326e-17 0 1
v 15 5 4.48142
vn 2.11326e-17 0 -1
v 14.0199 6 4
vn -1 0 0
v 15 5.47462 4
vn 0 -1 0
v 15.8217 4 4
vn 1 0 0
v 16 3.90446 4
vn -1.13549e-17 1 0
v 16 4 3.84635
vn 0 0 1
v 16 4 4.21696
vn 0 0 -1
v 15.6392 5 4
vn -1 6.31291e-17 0
v 16 4.32232 4
vn 0 -1 0
v 15.1439 45 4
vn 0.976471 -0.198139 0.0851183
v 16 44.8303 4
vn 0.0549012 0.998393 0.0140535
v 16 45 3.72705
vn -1.8528e-17 0 1
v 15.8463 45 5
vn 0.513393 0.788477 -0.338721
v 16 44.9245 5
vn -0.400348 0.910615 -0.102481
v 16 45 5.15586
vn 0 0 -1
v 16 45.2211 4
vn -0.191155 -0.964695 0.181175
v 16 45.2599 5
vn 0.187412 -0.966087 -0.177628
v 16.6461 4 4
vn -1 0 0
v 16.1023 45 4
vn -0.986346 0.157888 0.0468344
v 16.0917 45 5
vn -0.984985 -0.165512 -0.049096
v 16.266 46 6
vn 1 -5.19945e-17 0
v 17 45.4885 6
vn 0 1 0
v 17 46 5.47452
vn 1.99432e-17 0 1
v 17 46 6.59611
vn 0 0 -1
v 17 46.4404 6
vn 0 -1 0
v 17.5336 4 5
vn 1 0 0
v 18 3.60192 5
vn -1.94939e-17 1 0
v 18 4 4.76193
vn -9.02009e-18 0 1
v 18 4 5.28185
vn 1.80402e-17 0 -1
v 18 4.16374 5
vn -9.74694e-18 -1 0
v 17.7281 46 6
vn -1 0 0
v 18.9028 4 5
vn -1 0 0
v 19.259 3 6
vn 1 4.0294e-17 0
v 20 2.56145 6
vn 0.0339167 0.998813 -0.0349464
v 20 3 5.13079
vn 0.0291536 0.0448537 0.998568
v 20 3 6.50686
vn 0.0272368 -0.0566435 -0.998023
v 20 3.5626 6
vn 0.0100528 -0.999804 0.0170653
v 21 2.91263 6
vn -0.344199 0.86934 0.354648
v 21 3 5.91778
vn -0.450036 -0.692394 0.563967
v 21 3 6.10133
vn -0.30062 0.625189 -0.720254
v 21 3.0423 6
vn -0.342883 -0.737313 -0.582066
v 21.1212 3 6
vn -1 0 0
v 23.791 3 7
vn 1 0 0
v 24 2.80537 7
vn 0 1 0
v 24 3 6.68596
vn 3.83858e-17 0 1
v 24 3 7.0811
vn 0 0 -1
v 24 3.07938 7
vn -2.66182e-17 -1 0
v 24.1209 3 7
vn -1 0 0
v 26.7644 3 5
vn 1 4.54551e-17 0
v 27 2.64472 5
vn 5.66566e-17 1 0
v 27 3 4.83945
vn -1.68293e-17 0 1
v 27 3 5.14059
vn 3.36586e-17 0 -1
v 27 3.15163 5
vn -2.83283e-17 -1 0
v 27.1711 3 5
vn -1 2.27275e-17 0
v 28.8536 3 5
vn 0.888533 -0.41307 0.199707
v 29 2.71668 5
vn 0.403374 0.879727 0.251736
v 29 3 4.68797
vn 7.93103e-17 0 1
v 28.6577 3 6
vn 0.993309 0.103972 -0.0502673
v 29 2.58546 6
vn -0.205015 0.97036 -0.127945
v 29 3 6.81453
vn -1.54704e-16 0 -1
v 29 3.12537 5
vn -0.24075 -0.966086 0.0933688
v 29 3.20015 6
vn 0.103345 -0.993838 -0.0400796
v 29.2818 3 5
vn -0.960795 0.243972 0.131722
v 29.2414 3 6
vn -0.968277 -0.219879 -0.118714
v 37.7714 7 4
vn 1 0 0
v 38 6.62377 4
vn 0 1 0
v 38 7 3.69683
vn 0 0 1
v 38 7 4.19284
vn 0 0 -1
v 38 7.24457 4
vn 0 -1 0
v 38.3714 7 4
vn -1 -4.50691e-17 0
v 41.0097 10 6
vn 0.997254 0.0239075 0.070094
v 42 9.83583 6
vn 1.13926e-17 1 0
v 42 10 5.64562
vn -0.0986506 0.130745 0.986496
v 42 10 6.17317
vn 0.0751575 0.0164741 -0.997036
v 41.945 11 6
vn 0.404489 -0.29523 -0.86558
v 42 11 5.83209
vn 0.232872 -0.308632 0.922235
v 42 11 6.10546
vn -0.286706 -0.0628444 -0.955955
v 42 11.0594 6
vn 1.62709e-17 -1 0
v 42.1642 10 6
vn -0.889956 0.190531 -0.414338
v 42.335 11 6
vn -0.962793 -0.112903 0.245525
v 43.4244 13 5
vn 0.996114 0.0698928 0.0535959
v 44 12.3583 5
vn -3.43831e-17 1 0
v 44 13 4.04076
vn -0.264965 0.255989 0.929658
v 44 13 5.75108
vn 0.283585 0.155734 -0.946217
v 43.8192 14 5
vn 0.910641 -0.327891 -0.251436
v 44 14 4.44701
vn 0.5176 -0.500065 0.694281
v 44 14 5.51865
vn -0.544992 -0.299289 -0.783205
v 44 14.2446 5
vn -4.53337e-17 -1 0
v 44.3683 13 5
vn -0.978758 0.1698 -0.114893
v 44.3905 14 5
vn -0.961288 -0.228213 0.154417
f 3//3 1//1 2//2
f 2//2 1//1 4//4
f 3//3 5//5 1//1
f 1//1 5//5 4//4
f 8//8 6//6 7//7
f 7//7 6//6 9//9
f 8//8 10//10 6//6
f 9//9 6//6 10//10
f 12//12 13//13 11//11
f 12//12 11//11 14//14
f 13//13 15//15 11//11
f 14//14 11//11 15//15
f 17//17 18//18 16//16
f 17//17 16//16 19//19
f 18//18 20//20 16//16
f 16//16 20//20 19//19
f 23//23 21//21 22//22
f 22//22 21//21 24//24
f 23//23 25//25 21//21
f 21//21 25//25 24//24
f 2//2 26//26 3//3
f 2//2 4//4 26//26
f 26//26 5//5 3//3
f 26//26 4//4 5//5
f 7//7 27//27 8//8
f 7//7 9//9 27//27
f 27//27 10//10 8//8
f 10//10 27//27 9//9
f 13//13 12//12 28//28
f 12//12 14//14 28//28
f 28//28 15//15 13//13
f 15//15 28//28 14//14
f 18//18 17//17 29//29
f 17//17 19//19 29//29
f 29//29 20//20 18//18
f 29//29 19//19 20//20
f 32//32 30//30 31//31
f 31//31 30//30 33//33
f 32//32 34//34 30//30
f 30//30 34//34 33//33
f 22//22 35//35 23//23
f 22//22 24//24 35//35
f 35//35 25//25 23//23
f 35//35 24//24 25//25
f 31//31 36//36 32//32
f 31//31 33//33 36//36
f 36//36 34//34 32//32
f 36//36 33//33 34//34
f 38//38 39//39 37//37
f 38//38 40//40 41//41
f 37//37 40//40 38//38
f 41//41 40//40 42//42
f 39//39 43//43 37//37
f 45//45 37//37 43//43
f 45//45 44//44 37//37
f 44//44 40//40 37//37
f 42//42 44//44 46//46
f 40//40 44//44 42//42
f 45//45 47//47 44//44
f 44//44 47//47 46//46
f 38//38 48//48 39//39
f 41//41 48//48 38//38
f 49//49 48//48 41//41
f 41//41 42//42 49//49
f 48//48 43//43 39//39
f 43//43 50//50 45//45
f 43//43 48//48 50//50
f 48//48 49//49 50//50
f 49//49 46//46 50//50
f 42//42 46//46 49//49
f 52//52 53//53 51//51
f 50//50 47//47 45//45
f 50//50 46//46 47//47
f 52//52 51//51 54//54
f 56//56 51//51 53//53
f 55//55 51//51 56//56
f 54//54 55//55 57//57
f 51//51 55//55 54//54
f 56//56 58//58 55//55
f 55//55 58//58 57//57
f 61//61 59//59 60//60
f 60//60 59//59 62//62
f 61//61 63//63 59//59
f 59//59 63//63 62//62
f 66//66 64//64 65//65
f 65//65 64//64 67//67
f 66//66 68//68 64//64
f 64//64 68//68 67//67
f 52//52 69//69 53//53
f 52//52 54//54 69//69
f 70//70 53//53 69//69
f 70//70 71//71 53//53
f 71//71 56//56 53//53
f 69//69 72//72 70//70
f 69//69 54//54 72//72
f 54//54 57//57 72//72
f 58//58 74//74 73//73
f 58//58 56//56 74//74
f 56//56 71//71 74//74
f 73//73 57//57 58//58
f 73//73 75//75 57//57
f 75//75 72//72 57//57
f 74//74 76//76 73//73
f 73//73 76//76 75//75
f 79//79 77//77 78//78
f 78//78 77//77 80//80
f 77//77 79//79 82//82
f 60//60 81//81 61//61
f 82//82 80//80 77//77
f 81//81 60//60 62//62
f 81//81 63//63 61//61
f 81//81 62//62 63//63
f 65//65 83//83 66//66
f 65//65 67//67 83//83
f 83//83 68//68 66//66
f 83//83 67//67 68//68
f 70//70 84//84 71//71
f 70//70 72//72 84//84
f 85//85 71//71 84//84
f 74//74 71//71 85//85
f 84//84 75//75 85//85
f 72//72 75//75 84//84
f 85//85 76//76 74//74
f 85//85 75//75 76//76
f 88//88 86//86 87//87
f 87//87 86//86 89//89
f 88//88 90//90 86//86
f 86//86 90//90 89//89
f 93//93 91//91 92//92
f 92//92 91//91 94//94
f 97//97 95//95 96//96
f 96//96 91//91 93//93
f 96//96 95//95 91//91
f 95//95 98//98 91//91
f 94//94 98//98 99//99
f 91//91 98//98 94//94
f 95//95 97//97 101//101
f 78//78 100//100 79//79
f 95//95 102//102 98//98
f 95//95 101//101 102//102
f 100//100 78//78 80//80
f 98//98 102//102 99//99
f 100//100 82//82 79//79
f 100//100 80//80 82//82
f 87//87 103//103 88//88
f 87//87 89//89 103//103
f 105//105 106//106 104//104
f 103//103 90//90 88//88
f 103//103 89//89 90//90
f 105//105 104//104 107//107
f 106//106 108//108 104//104
f 104//104 108//108 107//107
f 93//93 109//109 110//110
f 92//92 109//109 93//93
f 92//92 111//111 109//109
f 94//94 111//111 92//92
f 96//96 112//112 97//97
f 114//114 93//93 110//110
f 114//114 112//112 93//93
f 114//114 113//113 112//112
f 96//96 93//93 112//112
f 114//114 99//99 113//113
f 114//114 111//111 99//99
f 111//111 94//94 99//99
f 112//112 101//101 97//97
f 113//113 101//101 112//112
f 102//102 101//101 113//113
f 113//113 99//99 102//102
f 106//106 115//115 116//116
f 105//105 115//115 106//106
f 105//105 117//117 115//115
f 107//107 117//117 105//105
f 116//116 108//108 106//106
f 118//118 108//108 116//116
f 118//118 107//107 108//108
f 117//117 107//107 118//118
f 109//109 119//119 110//110
f 109//109 111//111 119//119
f 119//119 114//114 110//110
f 119//119 111//111 114//114
f 115//115 120//120 116//116
f 115//115 117//117 120//120
f 120//120 118//118 116//116
f 120//120 117//117 118//118
f 123//123 121//121 122//122
f 122//122 121//121 124//124
f 123//123 125//125 121//121
f 121//121 125//125 124//124
f 128//128 126//126 127//127
f 127//127 126//126 129//129
f 128//128 130//130 126//126
f 126//126 130//130 129//129
f 122//122 131//131 123//123
f 122//122 124//124 131//131
f 131//131 125//125 123//123
f 131//131 124//124 125//125
f 127//127 132//132 128//128
f 127//127 129//129 132//132
f 132//132 130//130 128//128
f 132//132 129//129 130//130
f 135//135 133//133 134//134
f 134//134 133//133 136//136
f 135//135 137//137 133//133
f 133//133 137//137 136//136
f 140//140 138//138 139//139
f 139//139 138//138 141//141
f 138//138 140//140 143//143
f 134//134 142//142 135//135
f 143//143 141//141 138//138
f 142//142 134//134 136//136
f 142//142 137//137 135//135
f 142//142 136//136 137//137
f 146//146 144//144 145//145
f 145//145 144//144 147//147
f 144//144 146//146 149//149
f 139//139 148//148 140//140
f 149//149 147//147 144//144
f 148//148 139//139 141//141
f 148//148 143//143 140//140
f 148//148 141//141 143//143
f 152//152 150//150 151//151
f 151//151 153//153 154//154
f 150//150 153//153 151//151
f 154//154 153//153 155//155
f 152//152 156//156 150//150
f 150//150 157//157 153//153
f 156//156 157//157 150//150
f 153//153 157//157 155//155
f 145//145 158//158 146//146
f 145//145 147//147 158//158
f 158//158 149//149 146//146
f 158//158 147//147 149//149
f 151//151 159//159 152//152
f 154//154 159//159 151//151
f 160//160 159//159 154//154
f 154//154 155//155 160//160
f 159//159 156//156 152//152
f 160//160 156//156 159//159
f 157//157 156//156 160//160
f 160//160 155//155 157//157
f 162//162 163//163 161//161
f 162//162 161//161 164//164
f 163//163 165//165 161//161
f 161//161 165//165 164//164
f 168//168 166//166 167//167
f 167//167 166//166 169//169
f 168//168 170//170 166//166
f 166//166 170//170 169//169
f 162//162 171//171 163//163
f 162//162 164//164 171//171
f 171//171 165//165 163//163
f 171//171 164//164 165//165
f 167//167 172//172 168//168
f 167//167 169//169 172//172
f 172//172 170//170 168//168
f 172//172 169//169 170//170
f 175//175 173//173 174//174
f 174//174 173//173 176//176
f 175//175 177//177 173//173
f 173//173 177//177 176//176
f 175//175 178//178 179//179
f 174//174 178//178 175//175
f 174//174 180//180 178//178
f 176//176 180//180 174//174
f 179//179 177//177 175//175
f 181//181 177//177 179//179
f 181//181 176//176 177//177
f 180//180 176//176 181//181
f 178//178 182//182 179//179
f 178//178 180//180 182//182
f 182//182 181//181 179//179
f 182//182 180//180 181//181
f 185//185 183//183 184//184
f 184//184 183//183 186//186
f 185//185 187//187 183//183
f 183//183 187//187 186//186
f 184//184 188//188 185//185
f 184//184 186//186 188//188
f 188//188 187//187 185//185
f 188//188 186//186 187//187
f 191//191 189//189 190//190
f 190//190 189//189 192//192
f 191//191 193//193 189//189
f 189//189 193//193 192//192
f 190//190 194//194 191//191
f 190//190 192//192 194//194
f 194//194 193//193 191//191
f 194//194 192//192 193//193
f 197//197 195//195 196//196
f 196//196 198//198 199//199
f 195//195 198//198 196//196
f 199//199 198//198 200//200
f 197//197 201//201 195//195
f 195//195 202//202 198//198
f 201//201 202//202 195//195
f 198//198 202//202 200//200
f 196//196 203//203 197//197
f 199//199 203//203 196//196
f 204//204 203//203 199//199
f 199//199 200//200 204//204
f 203//203 201//201 197//197
f 204//204 201//201 203//203
f 202//202 201//201 204//204
f 204//204 200//200 202//202
f 207//207 205//205 206//206
f 206//206 205//205 208//208
f 207//207 209//209 205//205
f 205//205 209//209 208//208
f 206//206 210//210 207//207
f 206//206 208//208 210//210
f 210//210 209//209 207//207
f 210//210 208//208 209//209
f 213//213 211//211 212//212
f 212//212 211//211 214//214
f 216//216 211//211 213//213
f 215//215 211//211 216//216
f 214//214 215//215 217//217
f 211//211 215//215 214//214
f 216//216 218//218 215//215
f 215//215 218//218 217//217
f 212//212 219//219 213//213
f 212//212 214//214 219//219
f 220//220 213//213 219//219
f 216//216 213//213 220//220
f 219//219 217//217 220//220
f 214//214 217//217 219//219
f 220//220 218//218 216//216
f 220//220 217//217 218//218
f 223//223 221//221 222//222
f 222//222 221//221 224//224
f 226//226 221//221 223//223
f 225//225 221//221 226//226
f 224//224 225//225 227//227
f 221//221 225//225 224//224
f 226//226 228//228 225//225
f 225//225 228//228 227//227
f 222//222 229//229 223//223
f 222//222 224//224 229//229
f 230//230 223//223 229//229
f 226//226 223//223 230//230
f 229//229 227//227 230//230
f 224//224 227//227 229//229
f 230//230 228//228 226//226
f 230//230 227//227 228//228
