# Created by Open3D 
# object name: 019.800001
# number of vertices: 240
# number of triangles: 376
v 2.57729 26 4
vn 1 0 0
v 3 25.4253 4
vn 0 1 0
v 3 26 3.85502
vn 0 0 1
v 3 26 4.35037
vn 0 0 -1
v 3 26.6493 4
vn 0 -1 0
v 3.09296 26 4
vn -1 1.14443e-17 0
v 3.90608 32 4
vn 1 0 0
v 4 31.9509 4
vn 0 1 0
v 4 32 3.96737
vn 0 0 1
v 4 32 4.23839
vn 0 0 -1
v 4 32.0768 4
vn 1.11155e-16 -1 0
v 4.63173 16 6
vn 1 0 0
v 5 15.7637 6
vn 0 1 0
v 5 16 5.49588
vn -8.92248e-17 0 1
v 5 16 6.30209
vn 4.46124e-17 0 -1
v 5 16.3415 6
vn 3.19751e-17 -1 0
v 4.02125 32 4
vn -1 0 0
v 4.84793 34 4
vn 1 -2.95795e-17 0
v 5 33.8893 4
vn 0 1 0
v 5 34 3.79053
vn -9.77776e-17 0 1
v 5 34 4.63572
vn 0 0 -1
v 5 34.4444 4
vn 0 -1 0
v 5.17008 16 6
vn -1 -1.48952e-17 0
v 5.10361 34 4
vn -1 0 0
v 5.64169 36 4
vn 0.967764 0.140313 0.209154
v 6 35.5992 4
vn 0 1 0
v 6 36 3.76528
vn -0.318637 0.230512 0.919421
v 6 36 4.2869
vn 0.281257 0.116119 -0.952581
v 5.7591 37 4
vn 0.946493 -0.179792 -0.268002
v 6 37 3.61603
vn 0.184661 -0.133589 0.973681
v 6 37 4.29045
vn -0.261736 -0.108059 -0.959071
v 6 37.451 4
vn 0 -1 0
v 6.73802 12 7
vn 1 2.87485e-17 0
v 7 11.6666 7
vn 4.1951e-17 1 0
v 7 12 6.4232
vn -9.09236e-17 0 1
v 7 12 7.14647
vn 2.27309e-17 0 -1
v 7 12.334 7
vn -2.09755e-17 -1 0
v 6.17196 36 4
vn -0.927232 0.174116 -0.331547
v 6.36512 37 4
vn -0.987427 -0.0734974 0.139952
v 6.81784 38 4
vn 1 -1.8428e-17 0
v 7 37.8651 4
vn -5.09307e-17 1 0
v 7 38 3.79037
vn 0 0 1
v 7 38 4.06337
vn -2.01623e-17 0 -1
v 7 38.2099 4
vn -2.54653e-17 -1 0
v 7.1954 12 7
vn -1 -2.15614e-17 0
v 7.06736 38 4
vn -1 1.8428e-17 0
v 7.91631 39 4
vn 1 0 0
v 8 38.9758 4
vn 0 1 0
v 8 39 3.97969
vn 0 0 1
v 8 39 4.06657
vn -6.47183e-17 0 -1
v 8 39.0406 4
vn 0 -1 0
v 8.0196 39 4
vn -1 0 0
v 8.79062 40 5
vn 0.94224 0.136958 0.305658
v 9 39.9049 5
vn 0 1 0
v 9 40 4.87504
vn -0.170211 0.318983 0.932351
v 9 40 5.17414
vn 0.0500834 0.18332 -0.981777
v 8.80488 41 5
vn 0.959908 -0.114622 -0.25581
v 9 41 4.72606
vn 0.182157 -0.0256925 0.982934
v 9 41 5.23516
vn 0.078585 -0.114468 -0.990314
v 9 41.2012 5
vn 0.671009 -0.740298 0.0413018
v 9.99176 8 4
vn 1 0 0
v 10 7.99065 4
vn 0.355084 0.48961 -0.796365
v 10 8 3.98747
vn 0.236032 0.301312 0.92385
v 10 8 4.01543
vn 0.20442 -0.820308 -0.534141
v 10 8.03263 4
vn 0.173161 -0.755556 0.631784
v 9.12049 40 5
vn -0.710606 0.688489 -0.144989
v 10 40.9203 5
vn -0.694339 0.681694 0.230624
v 10 41 4.84159
vn -0.313037 0.173402 0.933777
v 10 41 5.0794
vn -0.271272 0.107093 -0.956526
v 9.95387 42 5
vn 0.613252 -0.735336 -0.288449
v 10 42 4.75959
vn 0.0669092 -0.302599 0.950767
v 10 42 5.03741
vn -0.170993 -0.0699938 -0.982783
v 10 42.0379 5
vn 0 -1 0
v 11 7.24928 4
vn -0.00451841 0.999938 0.0101337
v 11 8 3.74135
vn -0.00734976 -0.0093825 0.999929
v 11 8 4.43335
vn -0.0029316 0.0117641 -0.999927
v 11 8.23985 4
vn -0.00965924 -0.999332 -0.0352421
v 10.0758 41 5
vn -0.795899 0.116347 -0.594146
v 10.7768 42 4
vn 0.980278 0.0489346 0.191471
v 11 41.9647 4
vn 0 1 0
v 11 42 3.96873
vn -0.00889074 0.0915452 0.995761
v 10.2196 42 5
vn -0.985395 -0.0327237 0.167109
v 11 42 4.20353
vn 0.0737125 0.0900089 -0.993209
v 10.9424 43 4
vn 0.849435 -0.130664 -0.511261
v 11 43 3.94796
vn 0.0994045 -0.0284105 0.994641
v 11 43 4.10659
vn 0.0979473 -0.255583 -0.961813
v 11 43.0551 4
vn 0.0821191 -0.911539 0.402931
v 11.1749 7 4
vn 1 0 0
v 12 6.56907 4
vn 0 1 0
v 12 7 3.59689
vn 0 0 1
v 12 7 4.80034
vn 4.38655e-17 0 -1
v 11.3149 8 4
vn -1 0 0
v 12 7.41854 4
vn -3.0963e-17 -1 0
v 11.2181 42 4
vn -0.508493 0.58528 -0.631571
v 12 42.6253 4
vn -0.0419928 0.959756 0.277679
v 12 43 3.90279
vn 0.105937 0.0946363 0.989859
v 12 43 4.1124
vn -0.0106797 0.0142905 -0.999841
v 12 43.1171 4
vn 0.150229 -0.939891 0.306654
v 12.8329 6 5
vn 1 -1.30499e-17 0
v 13 5.8926 5
vn 0.392284 0.849324 -0.353216
v 13 6 4.54664
vn 0.40297 0.447008 0.798623
v 13 6 5.14196
vn 0.291588 -0.544465 -0.78647
v 12.6647 7 4
vn -1 0 0
v 13 6.33918 5
vn 0.227764 -0.924939 0.304321
v 12.9038 42 4
vn 0.239439 0.338293 0.91007
v 13 41.9874 4
vn 0 1 0
v 13 42 3.97077
vn -0.0516028 0.295694 0.953888
v 13 42 4.01283
vn 0.110507 0.217597 -0.969763
v 13 43 3.66965
vn -0.0464767 -0.0623424 0.996972
v 13 43 4.2105
vn -0.0720674 -0.00591318 -0.997382
v 13 43.3345 4
vn -0.0509871 -0.992038 -0.115159
v 14 5.4377 5
vn -0.0442786 0.998223 0.0398689
v 14 6 4.39352
vn -0.187591 -0.208092 0.959952
v 14 6 5.65724
vn -0.0407299 0.0760524 -0.996272
v 14 6.42815 5
vn -0.105113 -0.984493 -0.140444
v 13.0411 42 4
vn -0.350394 0.218345 -0.910796
v 13.6579 43 4
vn -0.998417 -0.0131137 0.054702
v 14.7691 6 5
vn -1 0 0
v 17.6487 46 6
vn 1 -4.19859e-17 0
v 18 45.7566 6
vn -1.5371e-17 1 0
v 18 46 5.21748
vn 0 0 1
v 18 46 6.37924
vn -3.13826e-17 0 -1
v 18 46.3256 6
vn 0 -1 0
v 18.1532 46 5
vn 1 -5.89935e-17 0
v 19 45.6789 5
vn 1.72517e-17 1 0
v 19 46 4.38112
vn 0 0 1
v 18.4259 46 6
vn -1 4.19859e-17 0
v 19 46 5.53258
vn 0 0 -1
v 19 46.4961 5
vn 0 -1 0
v 19.5504 46 5
vn -1 -5.89935e-17 0
v 21.6685 3 4
vn 0.991362 -0.123626 0.0437961
v 22 2.68104 4
vn 0.145801 0.988447 0.0414078
v 22 3 3.84872
vn -1.56514e-17 0 1
v 21.9381 3 5
vn 0.798405 0.567558 -0.201065
v 22 2.89686 5
vn -0.40173 0.908623 -0.114092
v 22 3 5.06427
vn 6.67704e-18 0 -1
v 22 3.08147 4
vn -0.0337705 -0.999118 0.0249472
v 22 3.03531 5
vn 0.0973422 -0.99265 -0.0719094
v 22.2221 3 4
vn -0.806112 0.581931 0.107429
v 22.4073 3 5
vn -0.711678 -0.690833 -0.127533
v 27.6444 3 6
vn 1 3.35605e-17 0
v 28 2.78656 6
vn 0.132678 0.969699 -0.205135
v 28 3 5.50502
vn 0.249944 0.748948 0.613681
v 28 3 6.11069
vn 0.0910739 -0.225323 -0.970018
v 28 3.12792 6
vn 0.106638 -0.987616 0.115083
v 29 2.7942 6
vn -0.0785962 0.989473 0.121518
v 29 3 5.18408
vn -0.200555 -0.600956 0.773712
v 29 3 6.1518
vn -0.0610731 0.151099 -0.98663
v 29 3.19075 6
vn -0.0868475 -0.991803 -0.0937253
v 29.2844 3 6
vn -1 3.6163e-17 0
v 30.8718 4 6
vn 1 2.04111e-17 0
v 31 3.88075 6
vn 0.290584 0.934451 -0.205821
v 31 4 5.13543
vn 0.572211 0.810015 0.128258
v 31 4 6.09989
vn 0.174934 -0.474097 -0.862919
v 31 4.05699 6
vn 0.282311 -0.957892 -0.0523734
v 31.0226 4 5
vn 0.566415 -0.554397 0.609769
v 32 3.4858 5
vn 0.08701 0.985915 0.142835
v 32 4 4.5232
vn 0.0760429 0.142909 0.98681
v 32 3.77424 6
vn -0.143182 0.936581 -0.319867
v 32 4 6.24645
vn -0.0358041 0.0970343 -0.994637
v 32 4.37973 5
vn 0.193567 -0.950516 0.243006
v 32 4.24973 6
vn 0.0204536 -0.937691 -0.346868
v 33 3.84762 5
vn -0.30678 0.949033 0.0722712
v 33 4 4.72195
vn -0.187554 -0.352474 0.916834
v 32.9027 4 6
vn -0.324246 -0.627691 -0.70772
v 33 4 5.88127
vn -0.669884 0.674649 -0.310007
v 33 4.51814 5
vn -0.272091 -0.960575 -0.0571187
v 33.2833 4 5
vn -1 -3.57055e-17 0
v 33.8535 5 4
vn 0.587581 -0.755272 0.290366
v 34 4.8675 4
vn 0.298791 0.898643 0.321192
v 34 5 3.89199
vn -1.29608e-17 0 1
v 33.3313 5 5
vn 0.956466 -0.255513 0.14102
v 34 4.57401 5
vn 0.00857776 0.999963 -0.000230087
v 33.4338 5 6
vn 0.683846 0.650352 -0.330752
v 34 4.84201 6
vn -0.349162 0.883148 -0.313265
v 34 5 6.15201
vn -1.11281e-17 0 -1
v 34 5.10962 4
vn -0.256063 -0.958896 0.122275
v 34 5.25195 5
vn 0.0121359 -0.999917 0.00432321
v 34 5.08259 6
vn 0.173784 -0.976109 -0.13042
v 34.4063 5 4
vn -0.879594 0.419361 0.224614
v 34.331 5 5
vn -0.974598 -0.194799 -0.110505
v 34.0818 5 6
vn -0.828419 -0.518252 -0.212454
v 37.9302 7 5
vn 0.959264 -0.274209 0.0679768
v 38 6.87982 5
vn 0.127397 0.988198 0.0850607
v 38 7 4.81203
vn 0.813129 -0.566219 0.13497
v 37.89 7 6
vn 0.991301 0.127749 -0.0316692
v 38 6.80697 6
vn -0.0614697 0.992821 -0.102603
v 38 7 6.3141
vn -4.2065e-17 0 -1
v 38 7.09612 5
vn 0.0929799 -0.989963 0.106432
v 38 7.12772 6
vn 0.0572726 -0.995004 -0.0817688
v 37.7991 43 4
vn 1 -2.2754e-17 0
v 38 42.7804 4
vn 0 1 0
v 38 43 3.63417
vn 4.27834e-17 0 1
v 38 43 4.18768
vn 2.13917e-17 0 -1
v 38 43.3313 4
vn -2.12923e-17 -1 0
v 38.8407 7 4
vn 0.677686 0.0638578 0.732573
v 39 6.93942 4
vn 0.020252 0.992128 0.12358
v 39 7 3.91796
vn -0.323881 0.0981184 0.940996
v 39 6.94874 5
vn -0.144838 0.989449 0.0034887
v 38.4043 7 6
vn -0.712188 -0.283973 -0.641987
v 39 7 5.18632
vn -0.594606 0.697325 -0.400227
v 38.8922 8 4
vn 0.772432 -0.634269 -0.0324294
v 39 8 3.86738
vn 0.186827 -0.0565984 0.980761
v 39 7.10048 5
vn 0.0418136 -0.930928 -0.362802
v 39 8 4.18019
vn -0.235383 -0.681181 -0.693244
v 39 8.07927 4
vn 0 -1 0
v 38.3879 43 4
vn -1 -4.55081e-17 0
v 39.0686 7 4
vn -0.98649 0.160251 0.0340126
v 39.0393 7 5
vn -0.98684 -0.0313843 -0.158622
v 39.1436 8 4
vn -0.997984 -0.0571355 0.0276403
v 41.9964 11 5
vn 1 0 0
v 42 10.9928 5
vn 0 1 0
v 42 11 4.99531
vn 0 0 1
v 42 11 5.01941
vn -6.43407e-17 0 -1
v 42 11.004 5
vn -2.97689e-17 -1 0
v 42.0153 11 5
vn -1 0 0
v 45.6331 17 4
vn 1 0 0
v 46 16.7005 4
vn 0 1 0
v 46 17 3.8501
vn 0 0 1
v 46 17 4.27611
vn 0 0 -1
v 46 17.3851 4
vn 0 -1 0
v 45.9551 18 5
vn 1 -9.32192e-18 0
v 46 17.8939 5
vn 0 1 0
v 46 18 4.83688
vn 0 0 1
v 46 18 5.04551
vn 0 0 -1
v 46 18.1169 5
vn 5.49642e-17 -1 0
v 45.7482 31 3
vn 1 -3.99415e-17 0
v 46 30.7962 3
vn -4.63851e-17 1 0
v 46 31 2.78723
vn 0 0 1
v 46 31 3.35883
vn -8.72347e-17 0 -1
v 46 31.404 3
vn 0 -1 0
v 46.1229 17 4
vn -1 0 0
v 46.1064 18 5
vn -1 0 0
v 46.592 21 6
vn 1 -4.07779e-17 0
v 47 20.3387 6
vn 9.86307e-17 1 0
v 47 21 5.5233
vn 3.59332e-17 0 1
v 47 21 6.93178
vn 0 0 -1
v 47 21.3052 6
vn 0 -1 0
v 46.2717 31 3
vn -1 0 0
v 47.3912 21 6
vn -1 4.07779e-17 0
f 3//3 1//1 2//2
f 2//2 1//1 4//4
f 3//3 5//5 1//1
f 1//1 5//5 4//4
f 2//2 6//6 3//3
f 2//2 4//4 6//6
f 6//6 5//5 3//3
f 6//6 4//4 5//5
f 9//9 7//7 8//8
f 8//8 7//7 10//10
f 9//9 11//11 7//7
f 7//7 11//11 10//10
f 14//14 12//12 13//13
f 13//13 12//12 15//15
f 14//14 16//16 12//12
f 12//12 16//16 15//15
f 8//8 17//17 9//9
f 8//8 10//10 17//17
f 17//17 11//11 9//9
f 17//17 10//10 11//11
f 20//20 18//18 19//19
f 19//19 18//18 21//21
f 20//20 22//22 18//18
f 18//18 22//22 21//21
f 13//13 23//23 14//14
f 13//13 15//15 23//23
f 23//23 16//16 14//14
f 23//23 15//15 16//16
f 19//19 24//24 20//20
f 19//19 21//21 24//24
f 24//24 22//22 20//20
f 24//24 21//21 22//22
f 27//27 25//25 26//26
f 26//26 25//25 28//28
f 30//30 25//25 27//27
f 29//29 25//25 30//30
f 28//28 29//29 31//31
f 25//25 29//29 28//28
f 30//30 32//32 29//29
f 29//29 32//32 31//31
f 35//35 33//33 34//34
f 34//34 33//33 36//36
f 35//35 37//37 33//33
f 33//33 37//37 36//36
f 26//26 38//38 27//27
f 26//26 28//28 38//38
f 39//39 27//27 38//38
f 30//30 27//27 39//39
f 38//38 31//31 39//39
f 28//28 31//31 38//38
f 41//41 42//42 40//40
f 39//39 32//32 30//30
f 39//39 31//31 32//32
f 41//41 40//40 43//43
f 42//42 44//44 40//40
f 40//40 44//44 43//43
f 34//34 45//45 35//35
f 34//34 36//36 45//45
f 45//45 37//37 35//35
f 45//45 36//36 37//37
f 41//41 46//46 42//42
f 41//41 43//43 46//46
f 48//48 49//49 47//47
f 46//46 44//44 42//42
f 46//46 43//43 44//44
f 48//48 47//47 50//50
f 49//49 51//51 47//47
f 47//47 51//51 50//50
f 48//48 52//52 49//49
f 48//48 50//50 52//52
f 52//52 51//51 49//49
f 52//52 50//50 51//51
f 54//54 55//55 53//53
f 54//54 53//53 56//56
f 58//58 53//53 55//55
f 57//57 53//53 58//58
f 56//56 57//57 59//59
f 53//53 57//57 56//56
f 58//58 60//60 57//57
f 57//57 60//60 59//59
f 63//63 61//61 62//62
f 62//62 61//61 64//64
f 63//63 65//65 61//61
f 61//61 65//65 64//64
f 54//54 66//66 55//55
f 54//54 56//56 66//66
f 67//67 55//55 66//66
f 67//67 68//68 55//55
f 68//68 58//58 55//55
f 66//66 69//69 67//67
f 66//66 56//56 69//69
f 56//56 59//59 69//69
f 60//60 71//71 70//70
f 60//60 58//58 71//71
f 58//58 68//68 71//71
f 70//70 59//59 60//60
f 70//70 72//72 59//59
f 72//72 69//69 59//59
f 71//71 73//73 70//70
f 70//70 73//73 72//72
f 63//63 74//74 75//75
f 62//62 74//74 63//63
f 62//62 76//76 74//74
f 64//64 76//76 62//62
f 75//75 65//65 63//63
f 77//77 65//65 75//75
f 77//77 64//64 65//65
f 76//76 64//64 77//77
f 67//67 78//78 68//68
f 67//67 69//69 78//78
f 81//81 79//79 80//80
f 82//82 68//68 78//78
f 82//82 71//71 68//68
f 79//79 83//83 80//80
f 78//78 72//72 82//82
f 69//69 72//72 78//78
f 85//85 79//79 81//81
f 84//84 79//79 85//85
f 83//83 84//84 86//86
f 83//83 79//79 84//84
f 71//71 82//82 73//73
f 82//82 72//72 73//73
f 85//85 87//87 84//84
f 84//84 87//87 86//86
f 90//90 88//88 89//89
f 89//89 88//88 91//91
f 88//88 90//90 93//93
f 74//74 92//92 75//75
f 93//93 91//91 88//88
f 92//92 74//74 76//76
f 92//92 77//77 75//75
f 92//92 76//76 77//77
f 80//80 94//94 81//81
f 80//80 83//83 94//94
f 95//95 81//81 94//94
f 95//95 96//96 81//81
f 96//96 85//85 81//81
f 94//94 97//97 95//95
f 94//94 83//83 97//97
f 83//83 86//86 97//97
f 96//96 87//87 85//85
f 98//98 87//87 96//96
f 98//98 86//86 87//87
f 97//97 86//86 98//98
f 101//101 99//99 100//100
f 100//100 99//99 102//102
f 89//89 103//103 90//90
f 101//101 104//104 99//99
f 103//103 89//89 91//91
f 99//99 104//104 102//102
f 103//103 93//93 90//90
f 103//103 91//91 93//93
f 107//107 105//105 106//106
f 106//106 105//105 108//108
f 105//105 96//96 95//95
f 105//105 107//107 96//96
f 107//107 109//109 96//96
f 95//95 108//108 105//105
f 95//95 97//97 108//108
f 97//97 110//110 108//108
f 109//109 98//98 96//96
f 111//111 98//98 109//109
f 111//111 97//97 98//98
f 110//110 97//97 111//111
f 101//101 112//112 113//113
f 100//100 112//112 101//101
f 100//100 114//114 112//112
f 102//102 114//114 100//100
f 113//113 104//104 101//101
f 115//115 104//104 113//113
f 115//115 102//102 104//104
f 114//114 102//102 115//115
f 106//106 116//116 107//107
f 106//106 108//108 116//116
f 117//117 107//107 116//116
f 109//109 107//107 117//117
f 116//116 110//110 117//117
f 108//108 110//110 116//116
f 117//117 111//111 109//109
f 117//117 110//110 111//111
f 112//112 118//118 113//113
f 112//112 114//114 118//118
f 118//118 115//115 113//113
f 118//118 114//114 115//115
f 121//121 119//119 120//120
f 120//120 119//119 122//122
f 121//121 123//123 119//119
f 119//119 123//123 122//122
f 126//126 124//124 125//125
f 128//128 125//125 124//124
f 127//127 121//121 120//120
f 120//120 122//122 127//127
f 126//126 129//129 124//124
f 124//124 129//129 128//128
f 121//121 127//127 123//123
f 127//127 122//122 123//123
f 125//125 130//130 126//126
f 125//125 128//128 130//130
f 130//130 129//129 126//126
f 130//130 128//128 129//129
f 133//133 131//131 132//132
f 132//132 134//134 135//135
f 131//131 134//134 132//132
f 135//135 134//134 136//136
f 133//133 137//137 131//131
f 131//131 138//138 134//134
f 137//137 138//138 131//131
f 134//134 138//138 136//136
f 132//132 139//139 133//133
f 135//135 139//139 132//132
f 140//140 139//139 135//135
f 135//135 136//136 140//140
f 139//139 137//137 133//133
f 140//140 137//137 139//139
f 138//138 137//137 140//140
f 140//140 136//136 138//138
f 143//143 141//141 142//142
f 142//142 141//141 144//144
f 143//143 145//145 141//141
f 141//141 145//145 144//144
f 143//143 146//146 147//147
f 142//142 146//146 143//143
f 142//142 148//148 146//146
f 144//144 148//148 142//142
f 147//147 145//145 143//143
f 149//149 145//145 147//147
f 149//149 144//144 145//145
f 148//148 144//144 149//149
f 146//146 150//150 147//147
f 146//146 148//148 150//150
f 150//150 149//149 147//147
f 150//150 148//148 149//149
f 153//153 151//151 152//152
f 152//152 151//151 154//154
f 153//153 155//155 151//151
f 151//151 155//155 154//154
f 158//158 156//156 157//157
f 153//153 157//157 156//156
f 153//153 152//152 157//157
f 152//152 159//159 157//157
f 152//152 160//160 159//159
f 154//154 160//160 152//152
f 158//158 161//161 156//156
f 156//156 155//155 153//153
f 156//156 161//161 155//155
f 161//161 162//162 155//155
f 162//162 154//154 155//155
f 160//160 154//154 162//162
f 158//158 163//163 164//164
f 157//157 163//163 158//158
f 166//166 159//159 165//165
f 166//166 163//163 159//159
f 163//163 157//157 159//159
f 159//159 160//160 165//165
f 164//164 161//161 158//158
f 167//167 161//161 164//164
f 165//165 167//167 166//166
f 165//165 162//162 167//167
f 162//162 161//161 167//167
f 165//165 160//160 162//162
f 163//163 168//168 164//164
f 163//163 166//166 168//168
f 171//171 169//169 170//170
f 172//172 170//170 169//169
f 172//172 173//173 170//170
f 168//168 167//167 164//164
f 173//173 174//174 175//175
f 173//173 172//172 174//174
f 167//167 168//168 166//166
f 175//175 174//174 176//176
f 171//171 177//177 169//169
f 169//169 178//178 172//172
f 177//177 178//178 169//169
f 172//172 179//179 174//174
f 178//178 179//179 172//172
f 174//174 179//179 176//176
f 170//170 180//180 171//171
f 173//173 180//180 170//170
f 181//181 180//180 173//173
f 175//175 181//181 173//173
f 182//182 181//181 175//175
f 175//175 176//176 182//182
f 180//180 177//177 171//171
f 181//181 177//177 180//180
f 178//178 177//177 181//181
f 182//182 178//178 181//181
f 179//179 178//178 182//182
f 182//182 176//176 179//179
f 185//185 183//183 184//184
f 184//184 186//186 187//187
f 183//183 186//186 184//184
f 187//187 186//186 188//188
f 185//185 189//189 183//183
f 183//183 190//190 186//186
f 189//189 190//190 183//183
f 186//186 190//190 188//188
f 193//193 191//191 192//192
f 192//192 191//191 194//194
f 193//193 195//195 191//191
f 191//191 195//195 194//194
f 198//198 196//196 197//197
f 185//185 197//197 196//196
f 185//185 184//184 197//197
f 184//184 199//199 197//197
f 201//201 187//187 200//200
f 201//201 199//199 187//187
f 199//199 184//184 187//187
f 187//187 188//188 200//200
f 203//203 196//196 198//198
f 202//202 196//196 203//203
f 185//185 196//196 202//202
f 185//185 202//202 204//204
f 185//185 204//204 189//189
f 205//205 204//204 202//202
f 200//200 204//204 201//201
f 200//200 190//190 204//204
f 190//190 189//189 204//204
f 200//200 188//188 190//190
f 203//203 206//206 202//202
f 202//202 206//206 205//205
f 192//192 207//207 193//193
f 192//192 194//194 207//207
f 207//207 195//195 193//193
f 207//207 194//194 195//195
f 197//197 208//208 198//198
f 199//199 208//208 197//197
f 209//209 208//208 199//199
f 199//199 201//201 209//209
f 210//210 198//198 208//208
f 203//203 198//198 210//210
f 205//205 209//209 204//204
f 205//205 210//210 209//209
f 210//210 208//208 209//209
f 209//209 201//201 204//204
f 210//210 206//206 203//203
f 210//210 205//205 206//206
f 213//213 211//211 212//212
f 212//212 211//211 214//214
f 213//213 215//215 211//211
f 211//211 215//215 214//214
f 212//212 216//216 213//213
f 212//212 214//214 216//216
f 216//216 215//215 213//213
f 216//216 214//214 215//215
f 219//219 217//217 218//218
f 218//218 217//217 220//220
f 219//219 221//221 217//217
f 220//220 217//217 221//221
f 223//223 224//224 222//222
f 223//223 222//222 225//225
f 224//224 226//226 222//222
f 222//222 226//226 225//225
f 229//229 227//227 228//228
f 228//228 227//227 230//230
f 229//229 231//231 227//227
f 227//227 231//231 230//230
f 218//218 232//232 219//219
f 218//218 220//220 232//232
f 232//232 221//221 219//219
f 221//221 232//232 220//220
f 224//224 223//223 233//233
f 223//223 225//225 233//233
f 233//233 226//226 224//224
f 233//233 225//225 226//226
f 236//236 234//234 235//235
f 235//235 234//234 237//237
f 236//236 238//238 234//234
f 234//234 238//238 237//237
f 228//228 239//239 229//229
f 228//228 230//230 239//239
f 239//239 231//231 229//229
f 239//239 230//230 231//231
f 235//235 240//240 236//236
f 235//235 237//237 240//240
f 240//240 238//238 236//236
f 240//240 237//237 238//238
