# :)

o Cube
v    1   1   1
v    1   1  -1
v    1  -1   1
v    1  -1  -1
v   -1   1   1
v   -1   1  -1
v   -1  -1   1
v   -1  -1  -1
v    0   0   1
v   -1   0   0
v    0   0  -1
v    0   1   0
v    1   0   0
v    0  -1   0
vn  -1   0   0
vn   0   0  -1
vn   0   1   0
vn   0  -1   0
vn   1   0   0
vn   0   0   1

s off
f 8//1 7//1 10//1
f 6//2 2//2 11//2
f 6//3 5//3 12//3
f 4//4 3//4 14//4
f 2//5 1//5 13//5
f 1//6 5//6 9//6
f 5//6 7//6 9//6
f 7//6 3//6 9//6
f 3//6 1//6 9//6
f 7//1 5//1 10//1
f 5//1 6//1 10//1
f 6//1 8//1 10//1
f 2//2 4//2 11//2
f 4//2 8//2 11//2
f 8//2 6//2 11//2
f 5//3 1//3 12//3
f 1//3 2//3 12//3
f 2//3 6//3 12//3
f 1//5 3//5 13//5
f 3//5 4//5 13//5
f 4//5 2//5 13//5
f 3//4 7//4 14//4
f 7//4 8//4 14//4
f 8//4 4//4 14//4
