# Created by Open3D 
# object name: 000.450000
# number of vertices: 70
# number of triangles: 136
v 1.63873 2.325 2.55
vn 0.871313 0.260813 0.415682
v 1.65 2.31507 2.55
vn 0.227393 0.973042 0.0385
v 1.65 2.325 2.53353
vn 0.711001 0.414066 0.568354
v 1.61377 2.325 2.625
vn 0.869799 0.480022 0.114143
v 1.65 2.30967 2.625
vn 0.0463431 0.987556 -0.150287
v 1.65 2.325 2.63846
vn 0.0802844 0.21383 -0.973566
v 1.62202 2.4 2.55
vn 0.885249 0.0716655 0.459563
v 1.65 2.4 2.50893
vn 0.804604 0.078816 0.588558
v 1.58413 2.4 2.625
vn 0.972649 -0.0392441 -0.228939
v 1.65 2.4 2.65088
vn 0.0969973 -0.0441376 -0.994305
v 1.63854 2.475 2.55
vn 0.834488 -0.42957 0.345107
v 1.65 2.475 2.5332
vn 0.774723 -0.251217 0.580253
v 1.61466 2.475 2.625
vn 0.743052 -0.497642 -0.447466
v 1.65 2.475 2.63841
vn 0.0359746 -0.295498 -0.954666
v 1.65 2.48514 2.55
vn 0.233059 -0.970592 0.0602801
v 1.65 2.49027 2.625
vn 0.119342 -0.989482 -0.0817533
v 1.69795 2.325 2.475
vn 0.777281 0.324667 0.538911
v 1.725 2.3078 2.475
vn 0.157214 0.975792 0.15203
v 1.725 2.325 2.43111
vn 0.599547 0.637489 0.483892
v 1.725 2.29583 2.55
vn 0.00641186 0.997198 -0.0745263
v 1.725 2.31901 2.625
vn -0.0881001 0.966928 -0.23935
v 1.725 2.325 2.62995
vn -0.142289 0.2858 -0.947667
v 1.72222 2.4 2.4
vn 0.849551 -0.0436294 0.525699
v 1.725 2.38651 2.4
vn 0.762247 0.272876 0.586957
v 1.725 2.4 2.39685
vn 0.46566 0.0371886 0.884182
v 1.6747 2.4 2.475
vn 0.819821 -0.0452043 0.570832
v 1.725 2.4 2.6417
vn -0.207919 0.0442797 -0.977143
v 1.725 2.41359 2.4
vn 0.56655 -0.259213 0.782195
v 1.69778 2.475 2.475
vn 0.755226 -0.382506 0.53228
v 1.725 2.475 2.4308
vn 0.714745 -0.4656 0.521878
v 1.725 2.475 2.62985
vn -0.192226 -0.176519 -0.965345
v 1.725 2.49231 2.475
vn 0.152973 -0.976577 0.151317
v 1.725 2.50429 2.55
vn 0.00532988 -0.997095 -0.0759852
v 1.725 2.48088 2.625
vn -0.0650093 -0.961887 -0.265607
v 1.75534 2.325 2.4
vn 0.502023 0.452794 0.736852
v 1.8 2.30774 2.4
vn 0.118204 0.963024 0.242099
v 1.8 2.325 2.37756
vn 0.19498 0.386627 0.901389
v 1.8 2.3024 2.475
vn -0.128556 0.987835 -0.0874925
v 1.8 2.31411 2.55
vn -0.237672 0.959483 -0.151345
v 1.73579 2.325 2.625
vn -0.574761 0.235178 -0.783799
v 1.8 2.325 2.56915
vn -0.641472 0.38414 -0.66404
v 1.8 2.4 2.35671
vn 0.214488 -0.0616831 0.974777
v 1.76038 2.4 2.625
vn -0.573406 -0.0811022 -0.815247
v 1.8 2.4 2.59297
vn -0.716932 0.0723543 -0.693378
v 1.75513 2.475 2.4
vn 0.471322 -0.628208 0.619039
v 1.8 2.475 2.37761
vn 0.270912 -0.352617 0.895694
v 1.73554 2.475 2.625
vn -0.587913 -0.373097 -0.717744
v 1.8 2.475 2.56905
vn -0.683974 -0.27648 -0.675084
v 1.8 2.49226 2.4
vn 0.0879209 -0.960177 0.265199
v 1.8 2.49776 2.475
vn -0.142488 -0.9857 -0.0899546
v 1.8 2.48595 2.55
vn -0.212364 -0.964771 -0.1553
v 1.875 2.31119 2.4
vn -0.190741 0.973736 0.124326
v 1.875 2.325 2.37849
vn -0.37876 0.382354 0.84282
v 1.85068 2.325 2.475
vn -0.757512 0.487159 -0.434571
v 1.875 2.325 2.44064
vn -0.652318 0.63488 -0.414016
v 1.813 2.325 2.55
vn -0.831295 0.265152 -0.488512
v 1.875 2.4 2.35506
vn -0.307025 0.0383411 0.950929
v 1.875 2.38723 2.475
vn -0.828139 0.257695 -0.497775
v 1.83058 2.4 2.55
vn -0.854842 -0.0117203 -0.518756
v 1.875 2.4 2.47936
vn -0.817167 0.226338 -0.530103
v 1.875 2.475 2.37869
vn -0.112208 -0.437119 0.892377
v 1.85087 2.475 2.475
vn -0.714234 -0.550754 -0.431903
v 1.875 2.41282 2.475
vn -0.803731 -0.286575 -0.521432
v 1.875 2.475 2.44067
vn -0.785068 -0.421124 -0.454228
v 1.8129 2.475 2.55
vn -0.761357 -0.520358 -0.386734
v 1.875 2.48872 2.4
vn -0.245088 -0.96945 -0.0099392
v 1.89599 2.325 2.4
vn -0.89779 0.354023 -0.261992
v 1.92048 2.4 2.4
vn -0.994857 0.0254922 0.0980299
v 1.87738 2.4 2.475
vn -0.876096 -0.0397472 -0.480496
v 1.89608 2.475 2.4
vn -0.933787 -0.357644 0.011507
f 3//3 1//1 2//2
f 2//2 4//4 5//5
f 1//1 4//4 2//2
f 5//5 4//4 6//6
f 8//8 1//1 3//3
f 7//7 1//1 8//8
f 1//1 7//7 4//4
f 4//4 7//7 9//9
f 6//6 9//9 10//10
f 4//4 9//9 6//6
f 12//12 7//7 8//8
f 11//11 7//7 12//12
f 7//7 11//11 9//9
f 9//9 11//11 13//13
f 10//10 13//13 14//14
f 9//9 13//13 10//10
f 12//12 15//15 11//11
f 11//11 16//16 13//13
f 15//15 16//16 11//11
f 13//13 16//16 14//14
f 19//19 17//17 18//18
f 3//3 18//18 17//17
f 3//3 2//2 18//18
f 2//2 20//20 18//18
f 20//20 2//2 21//21
f 2//2 5//5 21//21
f 5//5 22//22 21//21
f 6//6 22//22 5//5
f 25//25 23//23 24//24
f 24//24 17//17 19//19
f 24//24 23//23 17//17
f 23//23 26//26 17//17
f 17//17 26//26 8//8
f 3//3 17//17 8//8
f 22//22 6//6 27//27
f 27//27 6//6 10//10
f 25//25 28//28 23//23
f 30//30 23//23 28//28
f 30//30 29//29 23//23
f 29//29 26//26 23//23
f 26//26 29//29 12//12
f 8//8 26//26 12//12
f 27//27 10//10 31//31
f 31//31 10//10 14//14
f 30//30 32//32 29//29
f 29//29 15//15 12//12
f 29//29 32//32 15//15
f 32//32 33//33 15//15
f 33//33 34//34 15//15
f 15//15 34//34 16//16
f 34//34 14//14 16//16
f 31//31 14//14 34//34
f 37//37 35//35 36//36
f 19//19 36//36 35//35
f 19//19 18//18 36//36
f 18//18 38//38 36//36
f 38//38 18//18 39//39
f 18//18 20//20 39//39
f 41//41 21//21 40//40
f 41//41 39//39 21//21
f 39//39 20//20 21//21
f 21//21 22//22 40//40
f 35//35 25//25 24//24
f 35//35 37//37 25//25
f 37//37 42//42 25//25
f 35//35 24//24 19//19
f 44//44 41//41 40//40
f 43//43 44//44 40//40
f 40//40 27//27 43//43
f 22//22 27//27 40//40
f 28//28 46//46 45//45
f 28//28 25//25 46//46
f 25//25 42//42 46//46
f 28//28 45//45 30//30
f 48//48 44//44 43//43
f 47//47 48//48 43//43
f 43//43 31//31 47//47
f 27//27 31//31 43//43
f 46//46 49//49 45//45
f 45//45 32//32 30//30
f 45//45 49//49 32//32
f 49//49 50//50 32//32
f 50//50 51//51 32//32
f 32//32 51//51 33//33
f 47//47 51//51 48//48
f 47//47 34//34 51//51
f 34//34 33//33 51//51
f 47//47 31//31 34//34
f 37//37 52//52 53//53
f 36//36 52//52 37//37
f 55//55 38//38 54//54
f 55//55 52//52 38//38
f 52//52 36//36 38//38
f 39//39 54//54 38//38
f 56//56 54//54 39//39
f 39//39 41//41 56//56
f 53//53 57//57 37//37
f 57//57 42//42 37//37
f 55//55 54//54 58//58
f 60//60 58//58 54//54
f 60//60 54//54 59//59
f 59//59 54//54 56//56
f 56//56 44//44 59//59
f 41//41 44//44 56//56
f 57//57 61//61 42//42
f 61//61 46//46 42//42
f 64//64 63//63 62//62
f 63//63 60//60 59//59
f 63//63 59//59 62//62
f 62//62 59//59 65//65
f 59//59 48//48 65//65
f 44//44 48//48 59//59
f 61//61 49//49 46//46
f 66//66 49//49 61//61
f 62//62 66//66 64//64
f 62//62 50//50 66//66
f 50//50 49//49 66//66
f 65//65 50//50 62//62
f 51//51 50//50 65//65
f 65//65 48//48 51//51
f 52//52 67//67 53//53
f 52//52 55//55 67//67
f 68//68 53//53 67//67
f 57//57 53//53 68//68
f 58//58 67//67 55//55
f 58//58 69//69 67//67
f 69//69 68//68 67//67
f 58//58 60//60 69//69
f 70//70 57//57 68//68
f 61//61 57//57 70//70
f 64//64 69//69 63//63
f 64//64 70//70 69//69
f 70//70 68//68 69//69
f 69//69 60//60 63//63
f 70//70 66//66 61//61
f 70//70 64//64 66//66
