# Created by Open3D 
# object name: 000.700000
# number of vertices: 114
# number of triangles: 224
v 1.63852 2.325 2.55
vn 0.864084 0.25846 0.431923
v 1.65 2.3149 2.55
vn 0.225505 0.972615 0.0562888
v 1.65 2.325 2.53421
vn 0.697971 0.390873 0.600046
v 1.61224 2.325 2.625
vn 0.863234 0.489394 0.123773
v 1.65 2.30878 2.625
vn 0.0502139 0.986795 -0.153996
v 1.65 2.325 2.63927
vn 0.0832174 0.217441 -0.97252
v 1.62204 2.4 2.55
vn 0.873482 0.0735273 0.481272
v 1.65 2.4 2.51136
vn 0.785742 0.0766278 0.613789
v 1.58124 2.4 2.625
vn 0.974289 -0.035726 -0.22245
v 1.65 2.4 2.65159
vn 0.100114 -0.0436659 -0.994017
v 1.63907 2.475 2.55
vn 0.820446 -0.435874 0.369977
v 1.65 2.475 2.53517
vn 0.753418 -0.255285 0.605962
v 1.61216 2.475 2.625
vn 0.736433 -0.507648 -0.447169
v 1.65 2.475 2.63927
vn 0.0406713 -0.302131 -0.952398
v 1.65 2.48457 2.55
vn 0.223332 -0.971734 0.0765209
v 1.65 2.49116 2.625
vn 0.119877 -0.989969 -0.0747692
v 1.70232 2.325 2.475
vn 0.769436 0.317645 0.554139
v 1.725 2.31091 2.475
vn 0.148441 0.975107 0.164716
v 1.725 2.325 2.43901
vn 0.615789 0.614075 0.493676
v 1.725 2.29589 2.55
vn 0.00642849 0.998743 -0.0497184
v 1.725 2.31838 2.625
vn -0.0915259 0.967665 -0.235047
v 1.725 2.325 2.6305
vn -0.147933 0.292945 -0.944616
v 1.72361 2.4 2.4
vn 0.854894 -0.0549405 0.515886
v 1.725 2.39377 2.4
vn 0.752915 0.317832 0.576282
v 1.725 2.4 2.39755
vn 0.850188 0.132252 0.509598
v 1.67802 2.4 2.475
vn 0.814767 -0.0526178 0.577396
v 1.725 2.4 2.64234
vn -0.211986 0.0450832 -0.976232
v 1.725 2.40612 2.4
vn 0.774497 -0.380999 0.50497
v 1.70324 2.475 2.475
vn 0.748574 -0.378901 0.544124
v 1.725 2.475 2.44001
vn 0.708798 -0.468311 0.527532
v 1.725 2.475 2.63064
vn -0.196437 -0.177963 -0.964231
v 1.725 2.48865 2.475
vn 0.147045 -0.976028 0.160462
v 1.725 2.50396 2.55
vn 0.0102569 -0.998884 -0.0461004
v 1.725 2.48173 2.625
vn -0.0661079 -0.963661 -0.258817
v 1.76022 2.325 2.4
vn 0.6753 0.578835 0.457078
v 1.8 2.30991 2.4
vn 0.0908937 0.98756 0.128307
v 1.8 2.325 2.32738
vn 0.634692 0.66386 0.395544
v 1.8 2.30412 2.475
vn -0.12503 0.990665 -0.0543171
v 1.8 2.31394 2.55
vn -0.231269 0.964218 -0.129608
v 1.73695 2.325 2.625
vn -0.57051 0.241713 -0.784916
v 1.8 2.325 2.56981
vn -0.641731 0.396413 -0.656535
v 1.76902 2.4 2.325
vn 0.879419 0.00756478 0.475989
v 1.8 2.32644 2.325
vn 0.827418 0.376785 0.416428
v 1.8 2.4 2.25952
vn 0.895701 0.0190409 0.444249
v 1.76185 2.4 2.625
vn -0.568445 -0.0812606 -0.818698
v 1.8 2.4 2.59456
vn -0.720758 0.0745102 -0.68917
v 1.8 2.47447 2.325
vn 0.820194 -0.344618 0.45664
v 1.76043 2.475 2.4
vn 0.623876 -0.653652 0.42839
v 1.8 2.475 2.32587
vn 0.690877 -0.621992 0.368531
v 1.7372 2.475 2.625
vn -0.585326 -0.383132 -0.714565
v 1.8 2.475 2.56998
vn -0.687591 -0.281296 -0.669396
v 1.8 2.4902 2.4
vn 0.0762214 -0.990446 0.114926
v 1.8 2.49586 2.475
vn -0.14286 -0.987804 -0.0619164
v 1.8 2.48612 2.55
vn -0.205684 -0.969552 -0.132905
v 1.85492 2.325 2.25
vn 0.752312 0.54737 0.366624
v 1.875 2.31759 2.25
vn 0.0500584 0.995214 0.0839285
v 1.875 2.325 2.18287
vn -0.0878441 0.981526 0.169969
v 1.80318 2.325 2.325
vn 0.530607 0.772434 0.349003
v 1.875 2.31433 2.325
vn -0.0485103 0.998303 0.0322242
v 1.875 2.31914 2.4
vn -0.216629 0.9754 -0.0408327
v 1.84726 2.325 2.475
vn -0.771013 0.501175 -0.392891
v 1.875 2.325 2.4236
vn -0.7083 0.611441 -0.352777
v 1.8132 2.325 2.55
vn -0.840101 0.273318 -0.468538
v 1.84134 2.4 2.175
vn 0.912072 -0.00311851 0.410019
v 1.875 2.32739 2.175
vn 0.787258 0.492143 0.37151
v 1.875 2.4 2.12199
vn 0.679748 0.0438132 0.732136
v 1.80496 2.4 2.25
vn 0.86075 4.63595e-05 0.509027
v 1.875 2.39512 2.475
vn -0.8593 0.296388 -0.416842
v 1.8313 2.4 2.55
vn -0.868144 -0.0110774 -0.496188
v 1.875 2.4 2.47678
vn -0.81949 0.284956 -0.497229
v 1.875 2.47303 2.175
vn 0.547276 -0.65266 0.52395
v 1.85453 2.475 2.25
vn 0.666208 -0.668726 0.330109
v 1.875 2.475 2.18146
vn 0.541173 -0.810106 0.225522
v 1.80117 2.475 2.325
vn 0.413348 -0.848705 0.329914
v 1.84689 2.475 2.475
vn -0.753265 -0.527129 -0.393353
v 1.875 2.40478 2.475
vn -0.823249 -0.319374 -0.469319
v 1.875 2.475 2.42247
vn -0.834551 -0.385082 -0.394001
v 1.81332 2.475 2.55
vn -0.776987 -0.5175 -0.358448
v 1.875 2.48256 2.25
vn -0.0617922 -0.99727 0.0404304
v 1.875 2.48574 2.325
vn -0.0247337 -0.998314 0.0525117
v 1.875 2.4806 2.4
vn -0.23049 -0.971013 -0.0633118
v 1.88205 2.325 2.175
vn 0.354928 0.879195 0.317871
v 1.95 2.31651 2.175
vn 5.64509e-18 1 0
v 1.95 2.325 2.12572
vn -0.0318942 0.919401 0.392027
v 1.92892 2.325 2.25
vn -0.476955 0.867274 -0.142656
v 1.95 2.325 2.23073
vn 7.70824e-18 0.975255 -0.221081
v 1.90355 2.325 2.325
vn -0.734811 0.64265 -0.21692
v 1.88361 2.325 2.4
vn -0.856519 0.385863 -0.34276
v 1.90905 2.4 2.1
vn 0.502391 0.166964 0.848367
v 1.95 2.3437 2.1
vn 0.169384 0.454355 0.874569
v 1.95 2.4 2.08676
vn 0.0657023 0.0498145 0.996595
v 1.95 2.33351 2.25
vn -0.691757 0.633103 -0.347351
v 1.94818 2.4 2.325
vn -0.918317 0.0200034 -0.395339
v 1.95 2.4 2.32104
vn -0.880471 0.130719 -0.455723
v 1.91073 2.4 2.4
vn -0.909758 -0.110182 -0.400251
v 1.87589 2.4 2.475
vn -0.913745 -0.0311031 -0.405096
v 1.95 2.45569 2.1
vn 0.0059724 -0.708396 0.70579
v 1.88079 2.475 2.175
vn 0.139687 -0.990196 0
v 1.95 2.475 2.12618
vn 0.0186129 -0.933412 0.358323
v 1.93018 2.475 2.25
vn -0.47758 -0.865697 -0.149954
v 1.95 2.46696 2.25
vn -0.657149 -0.665257 -0.354385
v 1.95 2.475 2.23186
vn -0.430383 -0.845987 -0.314765
v 1.9036 2.475 2.325
vn -0.718828 -0.648163 -0.251339
v 1.88319 2.475 2.4
vn -0.844224 -0.444628 -0.29932
v 1.95 2.48361 2.175
vn 1.1019e-17 -1 0
v 1.9735 2.325 2.175
vn -0.802419 0.56942 -0.178563
v 2.025 2.35677 2.1
vn -0.553561 0.739636 0.382765
v 2.025 2.4 2.08918
vn -0.109738 -0.0832017 0.990472
v 2.02208 2.4 2.175
vn -0.871396 0.326968 -0.365732
v 2.025 2.4 2.16166
vn -0.809916 -0.573647 -0.122329
v 1.97885 2.4 2.25
vn -0.910441 -0.0117736 -0.413472
v 2.025 2.4431 2.1
vn -0.532292 -0.846561 0
v 1.9739 2.475 2.175
vn -0.79578 -0.599091 -0.0884538
v 2.03857 2.4 2.1
vn -1 1.73287e-17 0
f 3//3 1//1 2//2
f 2//2 4//4 5//5
f 1//1 4//4 2//2
f 5//5 4//4 6//6
f 8//8 1//1 3//3
f 7//7 1//1 8//8
f 1//1 7//7 4//4
f 4//4 7//7 9//9
f 6//6 9//9 10//10
f 4//4 9//9 6//6
f 12//12 7//7 8//8
f 11//11 7//7 12//12
f 7//7 11//11 9//9
f 9//9 11//11 13//13
f 10//10 13//13 14//14
f 9//9 13//13 10//10
f 12//12 15//15 11//11
f 11//11 16//16 13//13
f 15//15 16//16 11//11
f 13//13 16//16 14//14
f 19//19 17//17 18//18
f 3//3 18//18 17//17
f 3//3 2//2 18//18
f 2//2 20//20 18//18
f 20//20 2//2 21//21
f 2//2 5//5 21//21
f 5//5 22//22 21//21
f 6//6 22//22 5//5
f 25//25 23//23 24//24
f 24//24 17//17 19//19
f 24//24 23//23 17//17
f 23//23 26//26 17//17
f 17//17 26//26 8//8
f 3//3 17//17 8//8
f 22//22 6//6 27//27
f 27//27 6//6 10//10
f 25//25 28//28 23//23
f 30//30 23//23 28//28
f 30//30 29//29 23//23
f 29//29 26//26 23//23
f 26//26 29//29 12//12
f 8//8 26//26 12//12
f 27//27 10//10 31//31
f 31//31 10//10 14//14
f 30//30 32//32 29//29
f 29//29 15//15 12//12
f 29//29 32//32 15//15
f 32//32 33//33 15//15
f 33//33 34//34 15//15
f 15//15 34//34 16//16
f 34//34 14//14 16//16
f 31//31 14//14 34//34
f 37//37 35//35 36//36
f 19//19 36//36 35//35
f 19//19 18//18 36//36
f 18//18 38//38 36//36
f 38//38 18//18 39//39
f 18//18 20//20 39//39
f 41//41 21//21 40//40
f 41//41 39//39 21//21
f 39//39 20//20 21//21
f 21//21 22//22 40//40
f 44//44 42//42 43//43
f 35//35 25//25 24//24
f 37//37 25//25 35//35
f 37//37 42//42 25//25
f 37//37 43//43 42//42
f 35//35 24//24 19//19
f 46//46 41//41 40//40
f 45//45 46//46 40//40
f 40//40 27//27 45//45
f 22//22 27//27 40//40
f 44//44 47//47 42//42
f 49//49 48//48 28//28
f 47//47 49//49 28//28
f 47//47 28//28 25//25
f 47//47 25//25 42//42
f 28//28 48//48 30//30
f 51//51 46//46 45//45
f 50//50 51//51 45//45
f 45//45 31//31 50//50
f 27//27 31//31 45//45
f 49//49 52//52 48//48
f 48//48 32//32 30//30
f 48//48 52//52 32//32
f 52//52 53//53 32//32
f 53//53 54//54 32//32
f 32//32 54//54 33//33
f 50//50 54//54 51//51
f 50//50 34//34 54//54
f 34//34 33//33 54//54
f 50//50 31//31 34//34
f 57//57 55//55 56//56
f 56//56 58//58 59//59
f 55//55 58//58 56//56
f 37//37 59//59 58//58
f 37//37 36//36 59//59
f 36//36 60//60 59//59
f 62//62 38//38 61//61
f 62//62 60//60 38//38
f 60//60 36//36 38//38
f 39//39 61//61 38//38
f 63//63 61//61 39//39
f 39//39 41//41 63//63
f 66//66 64//64 65//65
f 65//65 55//55 57//57
f 65//65 64//64 55//55
f 64//64 67//67 55//55
f 44//44 43//43 58//58
f 44//44 58//58 67//67
f 67//67 58//58 55//55
f 58//58 43//43 37//37
f 62//62 61//61 68//68
f 70//70 68//68 61//61
f 70//70 61//61 69//69
f 69//69 61//61 63//63
f 63//63 46//46 69//69
f 41//41 46//46 63//63
f 66//66 71//71 64//64
f 73//73 64//64 71//71
f 73//73 72//72 64//64
f 72//72 67//67 64//64
f 47//47 44//44 67//67
f 47//47 67//67 74//74
f 74//74 67//67 72//72
f 47//47 74//74 49//49
f 77//77 76//76 75//75
f 76//76 70//70 69//69
f 76//76 69//69 75//75
f 75//75 69//69 78//78
f 69//69 51//51 78//78
f 46//46 51//51 69//69
f 73//73 79//79 72//72
f 72//72 80//80 74//74
f 79//79 80//80 72//72
f 74//74 52//52 49//49
f 74//74 80//80 52//52
f 80//80 81//81 52//52
f 75//75 81//81 77//77
f 75//75 53//53 81//81
f 53//53 52//52 81//81
f 78//78 53//53 75//75
f 54//54 53//53 78//78
f 78//78 51//51 54//54
f 84//84 82//82 83//83
f 86//86 83//83 82//82
f 85//85 57//57 56//56
f 59//59 85//85 56//56
f 87//87 85//85 59//59
f 60//60 87//87 59//59
f 88//88 87//87 60//60
f 60//60 62//62 88//88
f 91//91 89//89 90//90
f 82//82 66//66 65//65
f 84//84 66//66 82//82
f 84//84 89//89 66//66
f 84//84 90//90 89//89
f 57//57 85//85 92//92
f 57//57 92//92 65//65
f 86//86 82//82 92//92
f 82//82 65//65 92//92
f 94//94 92//92 85//85
f 94//94 85//85 93//93
f 93//93 85//85 87//87
f 87//87 88//88 93//93
f 88//88 95//95 93//93
f 68//68 88//88 62//62
f 68//68 96//96 88//88
f 96//96 95//95 88//88
f 68//68 70//70 96//96
f 91//91 97//97 89//89
f 99//99 98//98 71//71
f 97//97 99//99 71//71
f 97//97 71//71 66//66
f 97//97 66//66 89//89
f 100//100 73//73 71//71
f 100//100 71//71 101//101
f 98//98 102//102 71//71
f 102//102 101//101 71//71
f 101//101 94//94 93//93
f 101//101 93//93 100//100
f 100//100 93//93 103//103
f 93//93 95//95 103//103
f 95//95 104//104 103//103
f 77//77 96//96 76//76
f 77//77 104//104 96//96
f 104//104 95//95 96//96
f 96//96 70//70 76//76
f 99//99 105//105 98//98
f 98//98 105//105 102//102
f 73//73 100//100 79//79
f 103//103 79//79 100//100
f 80//80 79//79 103//103
f 104//104 80//80 103//103
f 81//81 80//80 104//104
f 104//104 77//77 81//81
f 83//83 106//106 84//84
f 83//83 86//86 106//106
f 91//91 107//107 108//108
f 90//90 107//107 91//91
f 84//84 107//107 90//90
f 84//84 109//109 107//107
f 84//84 106//106 109//109
f 109//109 110//110 107//107
f 92//92 106//106 86//86
f 92//92 111//111 106//106
f 111//111 109//109 106//106
f 92//92 94//94 111//111
f 108//108 97//97 91//91
f 112//112 97//97 108//108
f 110//110 109//109 113//113
f 110//110 113//113 97//97
f 110//110 97//97 112//112
f 99//99 97//97 113//113
f 102//102 111//111 101//101
f 102//102 113//113 111//111
f 113//113 109//109 111//111
f 111//111 94//94 101//101
f 113//113 105//105 99//99
f 113//113 102//102 105//105
f 107//107 114//114 108//108
f 107//107 110//110 114//114
f 114//114 112//112 108//108
f 114//114 110//110 112//112
