# Created by Open3D 
# object name: 000.800000
# number of vertices: 134
# number of triangles: 264
v 1.63892 2.325 2.55
vn 0.867777 0.2621 0.422216
v 1.65 2.31527 2.55
vn 0.228456 0.972245 0.0504746
v 1.65 2.325 2.53469
vn 0.699744 0.393847 0.596023
v 1.61406 2.325 2.625
vn 0.867295 0.48352 0.118357
v 1.65 2.30959 2.625
vn 0.0508043 0.987159 -0.151448
v 1.65 2.325 2.6386
vn 0.0838857 0.215528 -0.972888
v 1.62198 2.4 2.55
vn 0.88027 0.0756846 0.468399
v 1.65 2.4 2.51097
vn 0.787104 0.0800328 0.611606
v 1.58333 2.4 2.625
vn 0.973584 -0.0366073 -0.225377
v 1.65 2.4 2.6511
vn 0.100057 -0.0439565 -0.99401
v 1.6388 2.475 2.55
vn 0.829663 -0.432642 0.352817
v 1.65 2.475 2.53468
vn 0.754423 -0.254985 0.604837
v 1.61413 2.475 2.625
vn 0.740972 -0.501117 -0.447037
v 1.65 2.475 2.63859
vn 0.039421 -0.298912 -0.953466
v 1.65 2.48483 2.55
vn 0.226766 -0.971317 0.0715538
v 1.65 2.49041 2.625
vn 0.121208 -0.989506 -0.0786528
v 1.70216 2.325 2.475
vn 0.769695 0.319431 0.55275
v 1.725 2.31069 2.475
vn 0.150696 0.97469 0.165135
v 1.725 2.325 2.43842
vn 0.617273 0.612798 0.493409
v 1.725 2.29571 2.55
vn 0.0114485 0.998598 -0.0516753
v 1.725 2.31845 2.625
vn -0.0861089 0.967154 -0.23916
v 1.725 2.325 2.63045
vn -0.141329 0.288675 -0.946939
v 1.7237 2.4 2.4
vn 0.852481 -0.0546457 0.519894
v 1.725 2.39407 2.4
vn 0.755441 0.31196 0.576186
v 1.725 2.4 2.39774
vn 0.845103 0.134081 0.517516
v 1.67778 2.4 2.475
vn 0.814043 -0.0507707 0.578582
v 1.725 2.4 2.64217
vn -0.207518 0.0445188 -0.977218
v 1.725 2.40564 2.4
vn 0.767676 -0.390187 0.508357
v 1.70276 2.475 2.475
vn 0.746751 -0.380044 0.54583
v 1.725 2.475 2.43999
vn 0.701924 -0.471018 0.534271
v 1.725 2.475 2.63033
vn -0.1918 -0.178564 -0.965053
v 1.725 2.48891 2.475
vn 0.147038 -0.975536 0.163431
v 1.725 2.50423 2.55
vn 0.010641 -0.998699 -0.049872
v 1.725 2.48142 2.625
vn -0.0623304 -0.962752 -0.263105
v 1.75979 2.325 2.4
vn 0.672483 0.575117 0.46584
v 1.8 2.30983 2.4
vn 0.0875855 0.987551 0.130656
v 1.8 2.325 2.32935
vn 0.633186 0.66001 0.404304
v 1.8 2.30396 2.475
vn -0.127279 0.990511 -0.051848
v 1.8 2.31355 2.55
vn -0.232147 0.963842 -0.130829
v 1.73683 2.325 2.625
vn -0.568931 0.238336 -0.787092
v 1.8 2.325 2.57026
vn -0.639661 0.394698 -0.659581
v 1.76986 2.4 2.325
vn 0.873285 0.0144415 0.486995
v 1.8 2.32776 2.325
vn 0.805457 0.388485 0.447569
v 1.8 2.4 2.26425
vn 0.880944 0.0362556 0.47183
v 1.76148 2.4 2.625
vn -0.566566 -0.0815297 -0.819973
v 1.8 2.4 2.59446
vn -0.717483 0.0729737 -0.692743
v 1.8 2.47168 2.325
vn 0.797069 -0.373295 0.474691
v 1.76112 2.475 2.4
vn 0.618646 -0.65009 0.441204
v 1.8 2.475 2.33028
vn 0.67566 -0.634042 0.376131
v 1.73664 2.475 2.625
vn -0.581708 -0.382666 -0.717763
v 1.8 2.475 2.5703
vn -0.683518 -0.281379 -0.673519
v 1.8 2.48995 2.4
vn 0.0745383 -0.989926 0.120373
v 1.8 2.496 2.475
vn -0.144152 -0.987811 -0.0587256
v 1.8 2.48643 2.55
vn -0.206472 -0.969109 -0.134899
v 1.86085 2.325 2.25
vn 0.74265 0.545108 0.389009
v 1.875 2.31979 2.25
vn 0.0663541 0.992853 0.0992018
v 1.875 2.325 2.21572
vn -0.113974 0.946244 0.302709
v 1.80604 2.325 2.325
vn 0.531602 0.755122 0.383655
v 1.875 2.31481 2.325
vn -0.0441398 0.997922 0.0469312
v 1.875 2.3195 2.4
vn -0.217167 0.97542 -0.0373341
v 1.84733 2.325 2.475
vn -0.770024 0.505687 -0.38903
v 1.875 2.325 2.42253
vn -0.70546 0.619049 -0.345116
v 1.81368 2.325 2.55
vn -0.839324 0.274552 -0.469208
v 1.87471 2.4 2.1
vn 0.849714 -0.40903 0.332687
v 1.875 2.39907 2.1
vn 0.66082 0.667898 0.342387
v 1.875 2.4 2.09921
vn 0.900815 0.253514 0.352508
v 1.84517 2.4 2.175
vn 0.927091 -0.0158326 0.374503
v 1.875 2.34044 2.175
vn 0.519079 0.789996 0.326287
v 1.80763 2.4 2.25
vn 0.850131 -0.0124888 0.526423
v 1.875 2.39313 2.475
vn -0.860211 0.302576 -0.410469
v 1.83168 2.4 2.55
vn -0.866842 -0.0108779 -0.498464
v 1.875 2.4 2.47759
vn -0.819803 0.276899 -0.501248
v 1.875 2.40094 2.1
vn 0.715919 -0.628429 0.304199
v 1.875 2.46007 2.175
vn 0.518069 -0.816466 0.254927
v 1.86024 2.475 2.25
vn 0.639914 -0.679552 0.358775
v 1.875 2.475 2.21404
vn 0.538736 -0.787051 0.300525
v 1.80723 2.475 2.325
vn 0.41459 -0.841127 0.347305
v 1.84749 2.475 2.475
vn -0.750393 -0.532939 -0.391007
v 1.875 2.40691 2.475
vn -0.824887 -0.318389 -0.467107
v 1.875 2.475 2.42264
vn -0.839648 -0.384324 -0.383779
v 1.81376 2.475 2.55
vn -0.774789 -0.519701 -0.360018
v 1.875 2.48046 2.25
vn -0.0894936 -0.994746 0.0497065
v 1.875 2.48513 2.325
vn -0.0329678 -0.9978 0.0575196
v 1.875 2.48049 2.4
vn -0.228659 -0.971788 -0.0578179
v 1.94091 2.325 2.1
vn 0.712861 0.692345 0.111748
v 1.95 2.32221 2.1
vn 0.0349284 0.999262 0.0160041
v 1.95 2.325 2.04738
vn 0.493286 0.834507 0.245493
v 1.93068 2.325 2.175
vn 0.448213 0.881074 0.151044
v 1.95 2.32289 2.175
vn -0.0573279 0.99801 -0.0262676
v 1.91816 2.325 2.25
vn -0.514889 0.841833 -0.161884
v 1.95 2.325 2.20188
vn 0 0.98564 -0.168859
v 1.90244 2.325 2.325
vn -0.742503 0.647797 -0.170435
v 1.88307 2.325 2.4
vn -0.85764 0.388278 -0.337184
v 1.90949 2.4 2.025
vn 0.857211 0.0773222 0.509128
v 1.95 2.32805 2.025
vn 0.491647 0.746949 0.447604
v 1.95 2.4 1.98299
vn 0.379626 0.0074318 0.92511
v 1.95 2.33574 2.25
vn -0.531142 0.820869 -0.209913
v 1.94769 2.4 2.325
vn -0.928905 -0.00806923 -0.370229
v 1.95 2.4 2.32011
vn -0.850099 0.194952 -0.489209
v 1.91047 2.4 2.4
vn -0.912581 -0.111562 -0.393384
v 1.87629 2.4 2.475
vn -0.917875 -0.0280036 -0.39588
v 1.95 2.47234 2.025
vn 0.415989 -0.812419 0.40857
v 1.94025 2.475 2.1
vn 0.575372 -0.781092 0.242576
v 1.95 2.475 2.04416
vn 0.625921 -0.770984 0.117503
v 1.92909 2.475 2.175
vn 0.223363 -0.974503 -0.0212995
v 1.91817 2.475 2.25
vn -0.496492 -0.863376 -0.0898715
v 1.95 2.46382 2.25
vn -0.559601 -0.781042 -0.277165
v 1.95 2.475 2.20221
vn -0.399811 -0.891459 -0.213196
v 1.9019 2.475 2.325
vn -0.739198 -0.636757 -0.219378
v 1.88304 2.475 2.4
vn -0.850177 -0.439668 -0.289641
v 1.95 2.478 2.1
vn -0.0442444 -0.998979 0.00911654
v 1.95 2.47726 2.175
vn 0.0650373 -0.997793 -0.0134009
v 1.96626 2.325 2.025
vn 0.217333 0.937135 0.273028
v 2.025 2.32041 2.025
vn 0 1 0
v 2.025 2.325 2.01087
vn -0.164506 0.565359 0.808274
v 1.96505 2.325 2.1
vn -0.612419 0.766051 -0.195216
v 2.025 2.325 2.04587
vn 3.70585e-17 0.890431 -0.455118
v 1.95536 2.325 2.175
vn -0.812761 0.550438 -0.190886
v 2.025 2.4 1.96199
vn -0.33443 -0.0302638 0.941934
v 2.025 2.35875 2.1
vn -0.485183 0.796179 -0.36152
v 2.01068 2.4 2.175
vn -0.931541 -0.0783348 -0.3551
v 2.025 2.4 2.14269
vn -0.774506 0.398089 -0.491595
v 1.9783 2.4 2.25
vn -0.950273 -0.00778623 -0.31132
v 1.96444 2.475 2.025
vn 0.0966949 -0.995314 2.03234e-17
v 2.025 2.475 2.01093
vn 0.111484 -0.565966 0.816856
v 1.96623 2.475 2.1
vn -0.580854 -0.799366 -0.153696
v 2.025 2.44164 2.1
vn -0.49993 -0.793492 -0.347045
v 2.025 2.475 2.04632
vn -0.312903 -0.826091 -0.468684
v 1.95571 2.475 2.175
vn -0.761854 -0.614549 -0.204716
v 2.025 2.47962 2.025
vn 0 -1 0
v 2.03573 2.325 2.025
vn -0.822134 0.495634 -0.280075
v 2.08269 2.4 2.025
vn -0.988024 0.0248831 0.152282
v 2.04199 2.4 2.1
vn -0.909426 -0.0239743 -0.415173
v 2.0359 2.475 2.025
vn -0.842471 -0.532536 0.0815326
f 3//3 1//1 2//2
f 2//2 4//4 5//5
f 1//1 4//4 2//2
f 5//5 4//4 6//6
f 8//8 1//1 3//3
f 7//7 1//1 8//8
f 1//1 7//7 4//4
f 4//4 7//7 9//9
f 6//6 9//9 10//10
f 4//4 9//9 6//6
f 12//12 7//7 8//8
f 11//11 7//7 12//12
f 7//7 11//11 9//9
f 9//9 11//11 13//13
f 10//10 13//13 14//14
f 9//9 13//13 10//10
f 12//12 15//15 11//11
f 11//11 16//16 13//13
f 15//15 16//16 11//11
f 13//13 16//16 14//14
f 19//19 17//17 18//18
f 3//3 18//18 17//17
f 3//3 2//2 18//18
f 2//2 20//20 18//18
f 20//20 2//2 21//21
f 2//2 5//5 21//21
f 5//5 22//22 21//21
f 6//6 22//22 5//5
f 25//25 23//23 24//24
f 24//24 17//17 19//19
f 24//24 23//23 17//17
f 23//23 26//26 17//17
f 17//17 26//26 8//8
f 3//3 17//17 8//8
f 22//22 6//6 27//27
f 27//27 6//6 10//10
f 25//25 28//28 23//23
f 30//30 23//23 28//28
f 30//30 29//29 23//23
f 29//29 26//26 23//23
f 26//26 29//29 12//12
f 8//8 26//26 12//12
f 27//27 10//10 31//31
f 31//31 10//10 14//14
f 30//30 32//32 29//29
f 29//29 15//15 12//12
f 29//29 32//32 15//15
f 32//32 33//33 15//15
f 33//33 34//34 15//15
f 15//15 34//34 16//16
f 34//34 14//14 16//16
f 31//31 14//14 34//34
f 37//37 35//35 36//36
f 19//19 36//36 35//35
f 19//19 18//18 36//36
f 18//18 38//38 36//36
f 38//38 18//18 39//39
f 18//18 20//20 39//39
f 41//41 21//21 40//40
f 41//41 39//39 21//21
f 39//39 20//20 21//21
f 21//21 22//22 40//40
f 44//44 42//42 43//43
f 35//35 25//25 24//24
f 37//37 25//25 35//35
f 37//37 42//42 25//25
f 37//37 43//43 42//42
f 35//35 24//24 19//19
f 46//46 41//41 40//40
f 45//45 46//46 40//40
f 40//40 27//27 45//45
f 22//22 27//27 40//40
f 44//44 47//47 42//42
f 49//49 48//48 28//28
f 47//47 49//49 28//28
f 47//47 28//28 25//25
f 47//47 25//25 42//42
f 28//28 48//48 30//30
f 51//51 46//46 45//45
f 50//50 51//51 45//45
f 45//45 31//31 50//50
f 27//27 31//31 45//45
f 49//49 52//52 48//48
f 48//48 32//32 30//30
f 48//48 52//52 32//32
f 52//52 53//53 32//32
f 53//53 54//54 32//32
f 32//32 54//54 33//33
f 50//50 54//54 51//51
f 50//50 34//34 54//54
f 34//34 33//33 54//54
f 50//50 31//31 34//34
f 57//57 55//55 56//56
f 56//56 58//58 59//59
f 55//55 58//58 56//56
f 37//37 59//59 58//58
f 37//37 36//36 59//59
f 36//36 60//60 59//59
f 62//62 38//38 61//61
f 62//62 60//60 38//38
f 60//60 36//36 38//38
f 39//39 61//61 38//38
f 63//63 61//61 39//39
f 39//39 41//41 63//63
f 66//66 64//64 65//65
f 65//65 67//67 68//68
f 64//64 67//67 65//65
f 68//68 55//55 57//57
f 68//68 67//67 55//55
f 67//67 69//69 55//55
f 44//44 43//43 58//58
f 44//44 58//58 69//69
f 69//69 58//58 55//55
f 58//58 43//43 37//37
f 62//62 61//61 70//70
f 72//72 70//70 61//61
f 72//72 61//61 71//71
f 71//71 61//61 63//63
f 63//63 46//46 71//71
f 41//41 46//46 63//63
f 66//66 73//73 64//64
f 64//64 74//74 67//67
f 73//73 74//74 64//64
f 76//76 67//67 74//74
f 76//76 75//75 67//67
f 75//75 69//69 67//67
f 47//47 44//44 69//69
f 47//47 69//69 77//77
f 77//77 69//69 75//75
f 47//47 77//77 49//49
f 80//80 79//79 78//78
f 79//79 72//72 71//71
f 79//79 71//71 78//78
f 78//78 71//71 81//81
f 71//71 51//51 81//81
f 46//46 51//51 71//71
f 76//76 82//82 75//75
f 75//75 83//83 77//77
f 82//82 83//83 75//75
f 77//77 52//52 49//49
f 77//77 83//83 52//52
f 83//83 84//84 52//52
f 78//78 84//84 80//80
f 78//78 53//53 84//84
f 53//53 52//52 84//84
f 81//81 53//53 78//78
f 54//54 53//53 81//81
f 81//81 51//51 54//54
f 87//87 85//85 86//86
f 86//86 88//88 89//89
f 85//85 88//88 86//86
f 91//91 89//89 88//88
f 90//90 57//57 56//56
f 59//59 90//90 56//56
f 92//92 90//90 59//59
f 60//60 92//92 59//59
f 93//93 92//92 60//60
f 60//60 62//62 93//93
f 96//96 94//94 95//95
f 85//85 66//66 65//65
f 87//87 66//66 85//85
f 87//87 94//94 66//66
f 87//87 95//95 94//94
f 88//88 85//85 65//65
f 68//68 88//88 65//65
f 57//57 90//90 97//97
f 57//57 97//97 68//68
f 91//91 88//88 97//97
f 88//88 68//68 97//97
f 99//99 97//97 90//90
f 99//99 90//90 98//98
f 98//98 90//90 92//92
f 92//92 93//93 98//98
f 93//93 100//100 98//98
f 70//70 93//93 62//62
f 70//70 101//101 93//93
f 101//101 100//100 93//93
f 70//70 72//72 101//101
f 96//96 102//102 94//94
f 104//104 103//103 73//73
f 102//102 104//104 73//73
f 102//102 73//73 66//66
f 102//102 66//66 94//94
f 74//74 73//73 103//103
f 105//105 74//74 103//103
f 106//106 76//76 74//74
f 106//106 74//74 107//107
f 105//105 108//108 74//74
f 108//108 107//107 74//74
f 107//107 99//99 98//98
f 107//107 98//98 106//106
f 106//106 98//98 109//109
f 98//98 100//100 109//109
f 100//100 110//110 109//109
f 80//80 101//101 79//79
f 80//80 110//110 101//101
f 110//110 100//100 101//101
f 101//101 72//72 79//79
f 104//104 111//111 103//103
f 103//103 112//112 105//105
f 111//111 112//112 103//103
f 105//105 112//112 108//108
f 76//76 106//106 82//82
f 109//109 82//82 106//106
f 83//83 82//82 109//109
f 110//110 83//83 109//109
f 84//84 83//83 110//110
f 110//110 80//80 84//84
f 115//115 113//113 114//114
f 117//117 114//114 113//113
f 116//116 87//87 86//86
f 89//89 116//116 86//86
f 118//118 116//116 89//89
f 89//89 91//91 118//118
f 113//113 96//96 95//95
f 113//113 115//115 96//96
f 115//115 119//119 96//96
f 87//87 116//116 120//120
f 87//87 120//120 95//95
f 117//117 113//113 120//120
f 113//113 95//95 120//120
f 122//122 120//120 116//116
f 122//122 116//116 121//121
f 121//121 116//116 118//118
f 97//97 118//118 91//91
f 97//97 123//123 118//118
f 123//123 121//121 118//118
f 97//97 99//99 123//123
f 102//102 125//125 124//124
f 102//102 96//96 125//125
f 96//96 119//119 125//125
f 126//126 104//104 102//102
f 126//126 102//102 127//127
f 124//124 128//128 102//102
f 128//128 127//127 102//102
f 127//127 122//122 121//121
f 127//127 121//121 126//126
f 126//126 121//121 129//129
f 108//108 123//123 107//107
f 108//108 129//129 123//123
f 129//129 121//121 123//123
f 123//123 99//99 107//107
f 125//125 130//130 124//124
f 124//124 130//130 128//128
f 104//104 126//126 111//111
f 129//129 111//111 126//126
f 112//112 111//111 129//129
f 129//129 108//108 112//112
f 114//114 131//131 115//115
f 114//114 117//117 131//131
f 132//132 115//115 131//131
f 119//119 115//115 132//132
f 120//120 131//131 117//117
f 120//120 133//133 131//131
f 133//133 132//132 131//131
f 120//120 122//122 133//133
f 134//134 119//119 132//132
f 125//125 119//119 134//134
f 128//128 133//133 127//127
f 128//128 134//134 133//133
f 134//134 132//132 133//133
f 133//133 122//122 127//127
f 134//134 130//130 125//125
f 134//134 128//128 130//130
