# Created by Open3D 
# object name: 000.650000
# number of vertices: 106
# number of triangles: 208
v 1.63854 2.325 2.55
vn 0.863707 0.256354 0.433927
v 1.65 2.31494 2.55
vn 0.223132 0.97319 0.0558005
v 1.65 2.325 2.53428
vn 0.697707 0.389559 0.601206
v 1.61184 2.325 2.625
vn 0.863551 0.488566 0.124832
v 1.65 2.30884 2.625
vn 0.0480754 0.987213 -0.151983
v 1.65 2.325 2.63926
vn 0.0823283 0.217161 -0.972658
v 1.62227 2.4 2.55
vn 0.873176 0.0711808 0.482179
v 1.65 2.4 2.51155
vn 0.786333 0.0761341 0.613094
v 1.58129 2.4 2.625
vn 0.974484 -0.0380469 -0.221208
v 1.65 2.4 2.6515
vn 0.10021 -0.0431471 -0.99403
v 1.63946 2.475 2.55
vn 0.819786 -0.43532 0.372084
v 1.65 2.475 2.5356
vn 0.755702 -0.254435 0.603471
v 1.61217 2.475 2.625
vn 0.737852 -0.5075 -0.444993
v 1.65 2.475 2.63937
vn 0.040876 -0.301296 -0.952654
v 1.65 2.48426 2.55
vn 0.223411 -0.97173 0.0763432
v 1.65 2.49122 2.625
vn 0.118063 -0.990382 -0.0721383
v 1.7025 2.325 2.475
vn 0.770664 0.318143 0.552144
v 1.725 2.31103 2.475
vn 0.148961 0.975339 0.162865
v 1.725 2.325 2.43899
vn 0.614274 0.62045 0.487555
v 1.725 2.29609 2.55
vn 0.00583627 0.998702 -0.0506006
v 1.725 2.31863 2.625
vn -0.0916207 0.967888 -0.234089
v 1.725 2.325 2.63032
vn -0.148775 0.294049 -0.94414
v 1.72326 2.4 2.4
vn 0.8577 -0.0519479 0.51152
v 1.725 2.39224 2.4
vn 0.756029 0.319831 0.571076
v 1.725 2.4 2.39686
vn 0.800777 0.336392 0.495577
v 1.678 2.4 2.475
vn 0.816839 -0.0513443 0.574577
v 1.725 2.4 2.64234
vn -0.211969 0.0458338 -0.976201
v 1.725 2.40779 2.4
vn 0.764194 -0.36931 0.528789
v 1.70305 2.475 2.475
vn 0.751721 -0.377882 0.540481
v 1.725 2.475 2.43916
vn 0.714347 -0.467478 0.520743
v 1.725 2.475 2.63067
vn -0.196775 -0.177058 -0.964329
v 1.725 2.48881 2.475
vn 0.148127 -0.976298 0.157797
v 1.725 2.50384 2.55
vn 0.0113296 -0.998826 -0.0470994
v 1.725 2.48173 2.625
vn -0.0658318 -0.964244 -0.256709
v 1.79855 2.325 2.325
vn 0.842053 0.350656 0.409863
v 1.8 2.32405 2.325
vn 0.106698 0.991716 0.0715232
v 1.8 2.325 2.32162
vn 0.679177 0.579613 0.450298
v 1.75978 2.325 2.4
vn 0.725621 0.514006 0.457462
v 1.8 2.30967 2.4
vn 0.0801084 0.982867 0.165997
v 1.8 2.30405 2.475
vn -0.124406 0.990619 -0.0565398
v 1.8 2.31406 2.55
vn -0.229613 0.964455 -0.130783
v 1.73648 2.325 2.625
vn -0.572051 0.241668 -0.783807
v 1.8 2.325 2.5695
vn -0.641389 0.393319 -0.658727
v 1.76783 2.4 2.325
vn 0.884346 -0.00426705 0.466812
v 1.8 2.4 2.2546
vn 0.870743 0.175488 0.459358
v 1.76162 2.4 2.625
vn -0.571148 -0.0800196 -0.816938
v 1.8 2.4 2.5942
vn -0.720377 0.0749518 -0.689522
v 1.79831 2.475 2.325
vn 0.731598 -0.569501 0.374743
v 1.8 2.475 2.32106
vn 0.795581 -0.409799 0.446225
v 1.75942 2.475 2.4
vn 0.685705 -0.574088 0.447472
v 1.73716 2.475 2.625
vn -0.587971 -0.380658 -0.713716
v 1.8 2.475 2.56964
vn -0.68854 -0.279613 -0.669125
v 1.8 2.4761 2.325
vn 0.0908086 -0.993409 0.0699457
v 1.8 2.49053 2.4
vn 0.0640742 -0.985933 0.154371
v 1.8 2.49593 2.475
vn -0.143355 -0.987531 -0.0650552
v 1.8 2.48596 2.55
vn -0.205617 -0.969435 -0.133856
v 1.84815 2.325 2.25
vn 0.72943 0.513691 0.451722
v 1.875 2.31493 2.25
vn 0.0566623 0.996788 0.0565876
v 1.875 2.325 2.20157
vn 0.339139 0.88853 0.30903
v 1.875 2.3137 2.325
vn -0.0412214 0.998125 -0.045252
v 1.875 2.31899 2.4
vn -0.130795 0.991306 0.014316
v 1.84757 2.325 2.475
vn -0.769732 0.500632 -0.396081
v 1.875 2.325 2.42424
vn -0.706226 0.614627 -0.351394
v 1.81305 2.325 2.55
vn -0.839437 0.271412 -0.47083
v 1.85395 2.4 2.175
vn 0.835787 -0.0259885 0.548439
v 1.875 2.34711 2.175
vn 0.668577 0.406746 0.622545
v 1.875 2.4 2.15988
vn 0.251328 0.0124848 0.967821
v 1.80238 2.4 2.25
vn 0.819166 -0.14924 0.553801
v 1.875 2.39438 2.475
vn -0.860202 0.294183 -0.416543
v 1.83102 2.4 2.55
vn -0.86665 -0.0117327 -0.498778
v 1.875 2.4 2.47702
vn -0.818415 0.279014 -0.502343
v 1.875 2.45312 2.175
vn 0.424559 -0.371639 0.825612
v 1.84778 2.475 2.25
vn 0.711179 -0.531276 0.460402
v 1.875 2.475 2.201
vn 0.65031 -0.645032 0.401286
v 1.84703 2.475 2.475
vn -0.750527 -0.528813 -0.396316
v 1.875 2.40546 2.475
vn -0.821312 -0.318678 -0.473172
v 1.875 2.475 2.42335
vn -0.833081 -0.387202 -0.395033
v 1.81309 2.475 2.55
vn -0.776233 -0.516946 -0.360874
v 1.875 2.48522 2.25
vn 0.0594155 -0.99617 0.0641532
v 1.875 2.48643 2.325
vn -0.0571039 -0.997157 -0.049158
v 1.875 2.48089 2.4
vn -0.141238 -0.989973 -0.00245435
v 1.91101 2.325 2.175
vn 0.242284 0.508049 0.82655
v 1.95 2.31831 2.175
vn -0.0313064 0.99701 0.0706489
v 1.95 2.325 2.16648
vn -0.0671125 0.309471 0.948538
v 1.95 2.3237 2.25
vn -0.152367 0.98748 -0.0408462
v 1.90487 2.325 2.325
vn -0.717344 0.619096 -0.319588
v 1.95 2.325 2.25488
vn -0.684863 0.586404 -0.432543
v 1.88384 2.325 2.4
vn -0.857184 0.381283 -0.346208
v 1.95 2.4 2.14359
vn -0.120634 -0.0193416 0.992509
v 1.94823 2.4 2.325
vn -0.901136 -0.037111 -0.431945
v 1.95 2.4 2.32174
vn -0.870258 0.166322 -0.463668
v 1.91085 2.4 2.4
vn -0.909393 -0.105782 -0.402262
v 1.87602 2.4 2.475
vn -0.914057 -0.0307799 -0.404416
v 1.91126 2.475 2.175
vn 0.220592 -0.88491 0.410211
v 1.95 2.475 2.16673
vn 0.117439 -0.314785 0.941869
v 1.90507 2.475 2.325
vn -0.759577 -0.541901 -0.359703
v 1.95 2.475 2.2556
vn -0.796499 -0.409639 -0.44473
v 1.88361 2.475 2.4
vn -0.841669 -0.446405 -0.303835
v 1.95 2.4815 2.175
vn -0.0706935 -0.99638 0.0472177
v 1.95 2.4765 2.25
vn -0.168585 -0.983523 -0.0652809
v 1.9716 2.325 2.175
vn -0.743033 0.669042 0.0168521
v 1.95206 2.325 2.25
vn -0.832143 0.43357 -0.345769
v 2.02276 2.4 2.175
vn -0.964568 0.126105 0.231746
v 1.98457 2.4 2.25
vn -0.905736 -0.128048 -0.404037
v 1.97135 2.475 2.175
vn -0.814134 -0.559987 0.153624
v 1.95238 2.475 2.25
vn -0.815609 -0.537855 -0.213294
f 3//3 1//1 2//2
f 2//2 4//4 5//5
f 1//1 4//4 2//2
f 5//5 4//4 6//6
f 8//8 1//1 3//3
f 7//7 1//1 8//8
f 1//1 7//7 4//4
f 4//4 7//7 9//9
f 6//6 9//9 10//10
f 4//4 9//9 6//6
f 12//12 7//7 8//8
f 11//11 7//7 12//12
f 7//7 11//11 9//9
f 9//9 11//11 13//13
f 10//10 13//13 14//14
f 9//9 13//13 10//10
f 12//12 15//15 11//11
f 11//11 16//16 13//13
f 15//15 16//16 11//11
f 13//13 16//16 14//14
f 19//19 17//17 18//18
f 3//3 18//18 17//17
f 3//3 2//2 18//18
f 2//2 20//20 18//18
f 20//20 2//2 21//21
f 2//2 5//5 21//21
f 5//5 22//22 21//21
f 6//6 22//22 5//5
f 25//25 23//23 24//24
f 24//24 17//17 19//19
f 24//24 23//23 17//17
f 23//23 26//26 17//17
f 17//17 26//26 8//8
f 3//3 17//17 8//8
f 22//22 6//6 27//27
f 27//27 6//6 10//10
f 25//25 28//28 23//23
f 30//30 23//23 28//28
f 30//30 29//29 23//23
f 29//29 26//26 23//23
f 26//26 29//29 12//12
f 8//8 26//26 12//12
f 27//27 10//10 31//31
f 31//31 10//10 14//14
f 30//30 32//32 29//29
f 29//29 15//15 12//12
f 29//29 32//32 15//15
f 32//32 33//33 15//15
f 33//33 34//34 15//15
f 15//15 34//34 16//16
f 34//34 14//14 16//16
f 31//31 14//14 34//34
f 37//37 35//35 36//36
f 36//36 38//38 39//39
f 35//35 38//38 36//36
f 19//19 39//39 38//38
f 19//19 18//18 39//39
f 18//18 40//40 39//39
f 40//40 18//18 41//41
f 18//18 20//20 41//41
f 43//43 21//21 42//42
f 43//43 41//41 21//21
f 41//41 20//20 21//21
f 21//21 22//22 42//42
f 45//45 35//35 37//37
f 44//44 35//35 45//45
f 25//25 24//24 38//38
f 25//25 38//38 44//44
f 44//44 38//38 35//35
f 38//38 24//24 19//19
f 47//47 43//43 42//42
f 46//46 47//47 42//42
f 42//42 27//27 46//46
f 22//22 27//27 42//42
f 49//49 44//44 45//45
f 48//48 44//44 49//49
f 28//28 25//25 44//44
f 28//28 44//44 50//50
f 50//50 44//44 48//48
f 28//28 50//50 30//30
f 52//52 47//47 46//46
f 51//51 52//52 46//46
f 46//46 31//31 51//51
f 27//27 31//31 46//46
f 49//49 53//53 48//48
f 48//48 54//54 50//50
f 53//53 54//54 48//48
f 50//50 32//32 30//30
f 50//50 54//54 32//32
f 54//54 55//55 32//32
f 55//55 56//56 32//32
f 32//32 56//56 33//33
f 51//51 56//56 52//52
f 51//51 34//34 56//56
f 34//34 33//33 56//56
f 51//51 31//31 34//34
f 59//59 57//57 58//58
f 37//37 58//58 57//57
f 37//37 36//36 58//58
f 36//36 60//60 58//58
f 60//60 36//36 61//61
f 36//36 39//39 61//61
f 63//63 40//40 62//62
f 63//63 61//61 40//40
f 61//61 39//39 40//40
f 41//41 62//62 40//40
f 64//64 62//62 41//41
f 41//41 43//43 64//64
f 67//67 65//65 66//66
f 66//66 57//57 59//59
f 66//66 65//65 57//57
f 65//65 68//68 57//57
f 57//57 68//68 45//45
f 37//37 57//57 45//45
f 63//63 62//62 69//69
f 71//71 69//69 62//62
f 71//71 62//62 70//70
f 70//70 62//62 64//64
f 64//64 47//47 70//70
f 43//43 47//47 64//64
f 67//67 72//72 65//65
f 74//74 65//65 72//72
f 74//74 73//73 65//65
f 73//73 68//68 65//65
f 68//68 73//73 49//49
f 45//45 68//68 49//49
f 77//77 76//76 75//75
f 76//76 71//71 70//70
f 76//76 70//70 75//75
f 75//75 70//70 78//78
f 70//70 52//52 78//78
f 47//47 52//52 70//70
f 74//74 79//79 73//73
f 73//73 53//53 49//49
f 73//73 79//79 53//53
f 79//79 80//80 53//53
f 80//80 81//81 53//53
f 53//53 81//81 54//54
f 75//75 81//81 77//77
f 75//75 55//55 81//81
f 55//55 54//54 81//81
f 78//78 55//55 75//75
f 56//56 55//55 78//78
f 78//78 52//52 56//56
f 84//84 82//82 83//83
f 59//59 83//83 82//82
f 59//59 58//58 83//83
f 58//58 85//85 83//83
f 87//87 60//60 86//86
f 87//87 85//85 60//60
f 85//85 58//58 60//60
f 61//61 86//86 60//60
f 88//88 86//86 61//61
f 61//61 63//63 88//88
f 82//82 67//67 66//66
f 82//82 84//84 67//67
f 84//84 89//89 67//67
f 82//82 66//66 59//59
f 91//91 87//87 86//86
f 90//90 91//91 86//86
f 86//86 88//88 90//90
f 88//88 92//92 90//90
f 69//69 88//88 63//63
f 69//69 93//93 88//88
f 93//93 92//92 88//88
f 69//69 71//71 93//93
f 72//72 95//95 94//94
f 72//72 67//67 95//95
f 67//67 89//89 95//95
f 72//72 94//94 74//74
f 97//97 91//91 90//90
f 96//96 97//97 90//90
f 90//90 92//92 96//96
f 92//92 98//98 96//96
f 77//77 93//93 76//76
f 77//77 98//98 93//93
f 98//98 92//92 93//93
f 93//93 71//71 76//76
f 95//95 99//99 94//94
f 94//94 79//79 74//74
f 94//94 99//99 79//79
f 99//99 100//100 79//79
f 96//96 100//100 97//97
f 96//96 80//80 100//100
f 80//80 79//79 100//100
f 98//98 80//80 96//96
f 81//81 80//80 98//98
f 98//98 77//77 81//81
f 83//83 101//101 84//84
f 85//85 101//101 83//83
f 102//102 101//101 85//85
f 85//85 87//87 102//102
f 103//103 84//84 101//101
f 89//89 84//84 103//103
f 101//101 102//102 103//103
f 102//102 104//104 103//103
f 102//102 91//91 104//104
f 87//87 91//91 102//102
f 105//105 89//89 103//103
f 95//95 89//89 105//105
f 103//103 104//104 105//105
f 104//104 106//106 105//105
f 104//104 97//97 106//106
f 91//91 97//97 104//104
f 105//105 99//99 95//95
f 106//106 99//99 105//105
f 100//100 99//99 106//106
f 106//106 97//97 100//100
