# Created by Open3D 
# object name: 000.050000
# number of vertices: 10
# number of triangles: 16
v 1.61493 2.4 2.625
vn 0.899367 -0.306606 0.311661
v 1.65 2.36285 2.625
vn 0.299483 0.90293 0.308264
v 1.65 2.4 2.62215
vn 2.55054e-18 0 1
v 1.61101 2.4 2.7
vn 0.920174 0.274567 -0.279094
v 1.65 2.36184 2.7
vn -0.284438 0.912894 -0.292778
v 1.65 2.4 2.70304
vn 2.25335e-18 0 -1
v 1.65 2.43536 2.625
vn -0.306898 -0.902374 0.302546
v 1.65 2.43909 2.7
vn 0.280104 -0.919398 -0.276132
v 1.68821 2.4 2.625
vn -0.901573 0.308937 0.302861
v 1.68887 2.4 2.7
vn -0.907685 -0.299671 -0.293778
f 3//3 1//1 2//2
f 2//2 4//4 5//5
f 1//1 4//4 2//2
f 5//5 4//4 6//6
f 3//3 7//7 1//1
f 1//1 8//8 4//4
f 7//7 8//8 1//1
f 4//4 8//8 6//6
f 2//2 9//9 3//3
f 5//5 9//9 2//2
f 10//10 9//9 5//5
f 5//5 6//6 10//10
f 9//9 7//7 3//3
f 10//10 7//7 9//9
f 8//8 7//7 10//10
f 10//10 6//6 8//8
