# Created by Open3D 
# object name: 000.200000
# number of vertices: 26
# number of triangles: 48
v 1.6062 2.325 2.625
vn 0.804606 0.437101 0.401935
v 1.65 2.30336 2.625
vn 0.124768 0.97729 -0.17128
v 1.65 2.325 2.58398
vn 0.278447 0.646162 0.710593
v 1.65 2.325 2.6421
vn 0.136902 0.217234 -0.966472
v 1.58039 2.4 2.625
vn 0.999669 -0.0256937 0.000973712
v 1.65 2.4 2.56054
vn 0.454438 0.0468839 0.889544
v 1.65 2.4 2.65399
vn 0.152791 -0.0387825 -0.987497
v 1.60596 2.475 2.625
vn 0.740138 -0.46015 -0.490365
v 1.65 2.475 2.58361
vn 0.462109 -0.430874 0.775115
v 1.65 2.475 2.64242
vn 0.0946926 -0.32611 -0.940577
v 1.65 2.49702 2.625
vn 0.119118 -0.984793 0.126465
v 1.725 2.30648 2.625
vn -0.109811 0.982454 0.150749
v 1.725 2.325 2.57107
vn -0.17412 0.618868 0.765953
v 1.725 2.325 2.63861
vn -0.129384 0.314607 -0.940363
v 1.69392 2.4 2.55
vn 0.232496 -0.196277 0.952586
v 1.725 2.36929 2.55
vn 0.0988476 0.32609 0.940157
v 1.725 2.4 2.54703
vn 0 0 1
v 1.725 2.4 2.64963
vn -0.191594 0.0435453 -0.980508
v 1.725 2.42949 2.55
vn -0.454656 -0.402572 0.794496
v 1.725 2.475 2.57178
vn -0.0487452 -0.650948 0.757556
v 1.725 2.475 2.63891
vn -0.177218 -0.196871 -0.96428
v 1.725 2.49382 2.625
vn -0.171066 -0.968376 -0.181618
v 1.76105 2.325 2.625
vn -0.872332 0.474066 -0.119579
v 1.7502 2.4 2.55
vn -0.814729 0.0359791 0.578725
v 1.78657 2.4 2.625
vn -0.925515 -0.0189592 -0.378237
v 1.76171 2.475 2.625
vn -0.833751 -0.488635 0.257091
f 3//3 1//1 2//2
f 2//2 1//1 4//4
f 6//6 1//1 3//3
f 5//5 1//1 6//6
f 4//4 5//5 7//7
f 1//1 5//5 4//4
f 9//9 5//5 6//6
f 8//8 5//5 9//9
f 7//7 8//8 10//10
f 5//5 8//8 7//7
f 9//9 11//11 8//8
f 8//8 11//11 10//10
f 3//3 12//12 13//13
f 2//2 12//12 3//3
f 2//2 14//14 12//12
f 4//4 14//14 2//2
f 17//17 15//15 16//16
f 16//16 15//15 6//6
f 16//16 6//6 13//13
f 13//13 6//6 3//3
f 14//14 4//4 18//18
f 18//18 4//4 7//7
f 17//17 19//19 15//15
f 15//15 19//19 20//20
f 15//15 20//20 6//6
f 6//6 20//20 9//9
f 18//18 7//7 21//21
f 21//21 7//7 10//10
f 20//20 11//11 9//9
f 22//22 11//11 20//20
f 22//22 10//10 11//11
f 21//21 10//10 22//22
f 12//12 23//23 13//13
f 12//12 14//14 23//23
f 16//16 24//24 17//17
f 13//13 24//24 16//16
f 13//13 23//23 24//24
f 23//23 25//25 24//24
f 23//23 18//18 25//25
f 14//14 18//18 23//23
f 24//24 19//19 17//17
f 19//19 26//26 20//20
f 19//19 24//24 26//26
f 24//24 25//25 26//26
f 25//25 21//21 26//26
f 18//18 21//21 25//25
f 26//26 22//22 20//20
f 26//26 21//21 22//22
