# Created by Open3D 
# object name: 001.550000
# number of vertices: 224
# number of triangles: 444
v 1.63916 2.325 2.55
vn 0.865296 0.261357 0.427732
v 1.65 2.31553 2.55
vn 0.222384 0.973577 0.0518909
v 1.65 2.325 2.53518
vn 0.698321 0.390723 0.599736
v 1.61336 2.325 2.625
vn 0.864862 0.486476 0.123913
v 1.65 2.3095 2.625
vn 0.0469073 0.988253 -0.145447
v 1.65 2.325 2.63872
vn 0.0818303 0.216195 -0.972915
v 1.62213 2.4 2.55
vn 0.876892 0.0758483 0.474666
v 1.65 2.4 2.51131
vn 0.786275 0.0820418 0.612405
v 1.58249 2.4 2.625
vn 0.974261 -0.0361077 -0.222512
v 1.65 2.4 2.65109
vn 0.0990315 -0.04403 -0.99411
v 1.63915 2.475 2.55
vn 0.824765 -0.434586 0.361797
v 1.65 2.475 2.53523
vn 0.754762 -0.255324 0.604272
v 1.61322 2.475 2.625
vn 0.738072 -0.505121 -0.447328
v 1.65 2.475 2.63868
vn 0.0384693 -0.298505 -0.953632
v 1.65 2.48441 2.55
vn 0.223025 -0.972186 0.0715134
v 1.65 2.49039 2.625
vn 0.116575 -0.990378 -0.0745826
v 1.70296 2.325 2.475
vn 0.768898 0.321683 0.552555
v 1.725 2.31127 2.475
vn 0.148365 0.975673 0.161402
v 1.725 2.325 2.43965
vn 0.6174 0.614605 0.490997
v 1.725 2.29635 2.55
vn 0.00920092 0.998664 -0.050857
v 1.725 2.31891 2.625
vn -0.0871305 0.968571 -0.232977
v 1.725 2.325 2.63012
vn -0.144336 0.29096 -0.945785
v 1.72359 2.4 2.4
vn 0.854079 -0.0518258 0.517555
v 1.725 2.39369 2.4
vn 0.753902 0.321252 0.573088
v 1.725 2.4 2.39753
vn 0.846644 0.135464 0.51463
v 1.67786 2.4 2.475
vn 0.81524 -0.0490646 0.577042
v 1.725 2.4 2.64214
vn -0.208712 0.0452659 -0.976929
v 1.725 2.40618 2.4
vn 0.767726 -0.390185 0.508284
v 1.70304 2.475 2.475
vn 0.748 -0.379978 0.544162
v 1.725 2.475 2.44013
vn 0.704572 -0.471156 0.530651
v 1.725 2.475 2.63025
vn -0.192761 -0.178285 -0.964913
v 1.725 2.48869 2.475
vn 0.144963 -0.976573 0.15903
v 1.725 2.50373 2.55
vn 0.00902597 -0.998741 -0.0493379
v 1.725 2.48128 2.625
vn -0.0634214 -0.964094 -0.257878
v 1.76044 2.325 2.4
vn 0.674327 0.57874 0.458631
v 1.8 2.30995 2.4
vn 0.0880189 0.98787 0.127925
v 1.8 2.325 2.32848
vn 0.633456 0.662592 0.399632
v 1.8 2.30428 2.475
vn -0.123691 0.99084 -0.0541854
v 1.8 2.31415 2.55
vn -0.227706 0.965047 -0.129749
v 1.73597 2.325 2.625
vn -0.571723 0.24145 -0.784114
v 1.8 2.325 2.56926
vn -0.639955 0.391816 -0.661012
v 1.7697 2.4 2.325
vn 0.871974 0.0116309 0.489414
v 1.8 2.32716 2.325
vn 0.809858 0.379865 0.447025
v 1.8 2.4 2.26475
vn 0.880381 0.0293406 0.473358
v 1.76125 2.4 2.625
vn -0.570589 -0.0827002 -0.817061
v 1.8 2.4 2.59413
vn -0.717604 0.074542 -0.692451
v 1.8 2.47147 2.325
vn 0.794078 -0.376443 0.477212
v 1.76093 2.475 2.4
vn 0.617109 -0.652139 0.440331
v 1.8 2.475 2.33063
vn 0.67255 -0.63635 0.377804
v 1.73632 2.475 2.625
vn -0.588711 -0.377909 -0.714566
v 1.8 2.475 2.56915
vn -0.685278 -0.281887 -0.671516
v 1.8 2.48997 2.4
vn 0.0750765 -0.990128 0.118367
v 1.8 2.49563 2.475
vn -0.14175 -0.987952 -0.0621116
v 1.8 2.48576 2.55
vn -0.204944 -0.969671 -0.133178
v 1.86113 2.325 2.25
vn 0.737725 0.541122 0.403668
v 1.875 2.31995 2.25
vn 0.0679247 0.992589 0.100762
v 1.875 2.325 2.21986
vn -0.12007 0.932853 0.33966
v 1.80488 2.325 2.325
vn 0.531324 0.752979 0.388224
v 1.875 2.31492 2.325
vn -0.0441074 0.997898 0.0474825
v 1.875 2.31953 2.4
vn -0.215395 0.97581 -0.0374166
v 1.84709 2.325 2.475
vn -0.769273 0.504388 -0.392189
v 1.875 2.325 2.42241
vn -0.706229 0.616598 -0.347919
v 1.81301 2.325 2.55
vn -0.838934 0.27422 -0.470099
v 1.84695 2.4 2.175
vn 0.918203 -0.0220093 0.395499
v 1.875 2.34388 2.175
vn 0.476407 0.80849 0.345515
v 1.875 2.4 2.10993
vn 0.823689 0.127998 0.552406
v 1.80805 2.4 2.25
vn 0.843439 -0.0199696 0.536853
v 1.875 2.39398 2.475
vn -0.858934 0.302875 -0.412916
v 1.83129 2.4 2.55
vn -0.866757 -0.0124709 -0.498575
v 1.875 2.4 2.47723
vn -0.818036 0.282108 -0.501231
v 1.875 2.45537 2.175
vn 0.474961 -0.838424 0.267314
v 1.86173 2.475 2.25
vn 0.630105 -0.681933 0.371395
v 1.875 2.475 2.22114
vn 0.531865 -0.779196 0.331622
v 1.80761 2.475 2.325
vn 0.413837 -0.839366 0.352424
v 1.84663 2.475 2.475
vn -0.749455 -0.531474 -0.394782
v 1.875 2.40593 2.475
vn -0.820375 -0.323893 -0.471252
v 1.875 2.475 2.42257
vn -0.832525 -0.389635 -0.39381
v 1.81284 2.475 2.55
vn -0.775398 -0.519228 -0.359389
v 1.875 2.47994 2.25
vn -0.100979 -0.993383 0.0547161
v 1.875 2.48525 2.325
vn -0.0349661 -0.99763 0.059265
v 1.875 2.48061 2.4
vn -0.22764 -0.971841 -0.0608644
v 1.93955 2.325 2.175
vn 0.395881 0.891859 0.218784
v 1.95 2.32381 2.175
vn 4.26745e-18 1 0
v 1.95 2.325 2.13296
vn -0.137258 0.986471 -0.0896383
v 1.91614 2.325 2.25
vn -0.520599 0.838315 -0.161878
v 1.95 2.325 2.19198
vn 0 0.986121 -0.166031
v 1.90216 2.325 2.325
vn -0.741956 0.650963 -0.160461
v 1.8831 2.325 2.4
vn -0.856074 0.391339 -0.337626
v 1.94352 2.4 1.95
vn 0.87766 -0.348925 0.32858
v 1.95 2.38541 1.95
vn 0.572846 0.785306 0.234824
v 1.95 2.4 1.93256
vn 0.803585 0.470059 0.365098
v 1.91345 2.4 2.025
vn 0.921073 -0.188322 0.340821
v 1.95 2.34368 2.025
vn 0.378696 0.897229 0.22709
v 1.87958 2.4 2.1
vn 0.918509 0.249969 0.30636
v 1.95 2.32634 2.1
vn 0.220046 0.961204 0.166331
v 1.95 2.33644 2.25
vn -0.512278 0.838485 -0.185781
v 1.94799 2.4 2.325
vn -0.931753 -0.0124564 -0.362879
v 1.95 2.4 2.32075
vn -0.846602 0.207657 -0.490044
v 1.91066 2.4 2.4
vn -0.911629 -0.110209 -0.395962
v 1.87612 2.4 2.475
vn -0.915611 -0.0280859 -0.401084
v 1.95 2.41454 1.95
vn 0.549804 -0.804766 0.223757
v 1.95 2.45603 2.025
vn 0.29296 -0.934569 0.201879
v 1.95 2.47342 2.1
vn 0.198291 -0.956527 0.213863
v 1.94135 2.475 2.175
vn 0.265319 -0.964161 0
v 1.95 2.475 2.1391
vn 0.245084 -0.968186 0.0504985
v 1.91481 2.475 2.25
vn -0.500182 -0.863532 -0.0642654
v 1.95 2.46305 2.25
vn -0.531876 -0.809321 -0.249213
v 1.95 2.475 2.18931
vn -0.37347 -0.909192 -0.184093
v 1.90237 2.475 2.325
vn -0.744578 -0.633872 -0.209307
v 1.88324 2.475 2.4
vn -0.848022 -0.441705 -0.29284
v 1.95 2.47601 2.175
vn 0 -1 0
v 1.95301 2.325 2.175
vn -0.822921 0.544639 -0.161767
v 2.00179 2.4 1.8
vn 0.923179 -0.236274 0.303176
v 2.025 2.3632 1.8
vn 0.450292 0.877179 0.166717
v 2.025 2.4 1.73139
vn 0.81478 0.438399 0.379394
v 1.9734 2.4 1.875
vn 0.934371 0.0198627 0.355748
v 2.025 2.34092 1.875
vn 0.362276 0.901947 0.235047
v 2.025 2.33276 1.95
vn -0.160967 0.982416 -0.0946003
v 2.025 2.33887 2.025
vn -0.318242 0.943686 -0.0904391
v 2.025 2.36671 2.1
vn -0.578972 0.784458 -0.2223
v 2.01005 2.4 2.175
vn -0.897592 0.23908 -0.370364
v 2.025 2.4 2.13891
vn -0.778211 -0.56747 -0.269009
v 1.97815 2.4 2.25
vn -0.95397 -0.00603791 -0.299842
v 2.025 2.43745 1.8
vn 0.389453 -0.909931 0.142658
v 2.025 2.45944 1.875
vn 0.403681 -0.88317 0.238856
v 2.025 2.46704 1.95
vn -0.267877 -0.953912 -0.135256
v 2.025 2.46066 2.025
vn -0.276012 -0.958621 -0.0697388
v 2.025 2.43304 2.1
vn -0.442031 -0.86825 -0.225278
v 1.95255 2.475 2.175
vn -0.753818 -0.634781 -0.169741
v 2.0798 2.4 1.575
vn 0.924024 -0.257996 0.282167
v 2.1 2.36975 1.575
vn 0.415467 0.899534 0.135007
v 2.1 2.4 1.51094
vn 0.799361 0.487692 0.350968
v 2.05407 2.4 1.65
vn 0.946512 -0.166735 0.27625
v 2.1 2.3486 1.65
vn 0.344136 0.915974 0.206304
v 2.02736 2.4 1.725
vn 0.933534 -0.0872248 0.347715
v 2.1 2.33924 1.725
vn -0.0190029 0.999443 0.0274311
v 2.1 2.34532 1.8
vn -0.393648 0.901671 -0.178968
v 2.1 2.36492 1.875
vn -0.493268 0.859541 -0.133702
v 2.0945 2.4 1.95
vn -0.942442 -0.0607631 -0.328803
v 2.1 2.4 1.93466
vn -0.830908 0.419514 -0.365514
v 2.06639 2.4 2.025
vn -0.94782 -0.153357 -0.279497
v 2.03886 2.4 2.1
vn -0.924919 -0.237178 -0.297105
v 2.1 2.43055 1.575
vn 0.354337 -0.928169 0.113789
v 2.1 2.45178 1.65
vn 0.31003 -0.926921 0.211421
v 2.1 2.46112 1.725
vn -0.0169803 -0.999493 0.0269291
v 2.1 2.45516 1.8
vn -0.386633 -0.903433 -0.185265
v 2.1 2.43534 1.875
vn -0.447476 -0.886408 -0.118515
v 2.17176 2.4 1.275
vn 0.853031 -0.46501 0.236862
v 2.175 2.39442 1.275
vn 0.473497 0.875147 0.0995918
v 2.175 2.4 1.26297
vn 0.715613 0.661802 0.223419
v 2.15021 2.4 1.35
vn 0.940092 -0.225113 0.256031
v 2.175 2.36708 1.35
vn 0.263137 0.953287 0.148334
v 2.12725 2.4 1.425
vn 0.957541 -0.155094 0.243024
v 2.175 2.35075 1.425
vn 0.253844 0.953185 0.164322
v 2.10394 2.4 1.5
vn 0.948065 -0.0674408 0.310844
v 2.175 2.34431 1.5
vn -0.0500731 0.998585 0.017889
v 2.175 2.35213 1.575
vn -0.363553 0.913765 -0.181279
v 2.175 2.3713 1.65
vn -0.45136 0.885832 -0.107592
v 2.16927 2.4 1.725
vn -0.951919 -0.0489284 -0.302417
v 2.175 2.4 1.70753
vn -0.812746 0.477038 -0.334482
v 2.14424 2.4 1.8
vn -0.955282 -0.151655 -0.253845
v 2.11912 2.4 1.875
vn -0.93442 -0.227649 -0.273925
v 2.175 2.40549 1.275
vn 0.461222 -0.881668 0.0996825
v 2.175 2.43262 1.35
vn 0.156592 -0.978971 0.130746
v 2.175 2.44918 1.425
vn 0.217717 -0.96091 0.171032
v 2.175 2.45591 1.5
vn -0.0321759 -0.999284 0.0199113
v 2.175 2.44796 1.575
vn -0.335175 -0.922968 -0.189176
v 2.175 2.42855 1.65
vn -0.407016 -0.908861 -0.0911573
v 2.23374 2.4 1.05
vn 0.932207 -0.278438 0.231218
v 2.25 2.37744 1.05
vn 0.365924 0.926671 0.0859099
v 2.25 2.4 0.986886
vn 0.762079 0.576298 0.295153
v 2.21343 2.4 1.125
vn 0.958613 -0.16886 0.229231
v 2.25 2.35947 1.125
vn 0.310787 0.93191 0.186963
v 2.19267 2.4 1.2
vn 0.962906 0.0988853 0.251065
v 2.25 2.34909 1.2
vn 0.0582429 0.99815 0.0174596
v 2.25 2.3509 1.275
vn -0.189785 0.97574 -0.10915
v 2.25 2.36267 1.35
vn -0.208562 0.972773 -0.101065
v 2.25 2.38569 1.425
vn -0.459794 0.8838 -0.0865267
v 2.23723 2.4 1.5
vn -0.963501 0.0338351 -0.265556
v 2.25 2.4 1.45588
vn -0.774639 0.571841 -0.270062
v 2.21489 2.4 1.575
vn -0.958492 -0.156664 -0.238222
v 2.19208 2.4 1.65
vn -0.93402 -0.249811 -0.255346
v 2.25 2.42235 1.05
vn 0.310353 -0.94833 0.0659659
v 2.25 2.43972 1.125
vn 0.254514 -0.948742 0.18738
v 2.25 2.45007 1.2
vn 0.0315161 -0.999417 0.0131111
v 2.25 2.44839 1.275
vn -0.16809 -0.979271 -0.113019
v 2.25 2.43691 1.35
vn -0.124325 -0.988855 -0.0819122
v 2.25 2.41431 1.425
vn -0.440778 -0.894045 -0.0799903
v 2.32149 2.4 0.75
vn 0.816346 -0.462596 0.34581
v 2.325 2.39278 0.75
vn 0.442057 0.862635 0.245858
v 2.325 2.4 0.746608
vn 0.343526 0.405232 0.847217
v 2.28865 2.4 0.825
vn 0.951379 -0.18326 0.247575
v 2.325 2.35227 0.825
vn 0.225628 0.96981 0.0925282
v 2.27317 2.4 0.9
vn 0.981993 -0.11384 0.150767
v 2.325 2.35032 0.9
vn 0.151258 0.987573 0.0426763
v 2.25419 2.4 0.975
vn 0.968861 -0.052568 0.241961
v 2.325 2.35127 0.975
vn -0.0734545 0.997132 -0.0182356
v 2.325 2.36114 1.05
vn -0.318238 0.930891 -0.179351
v 2.325 2.37869 1.125
vn -0.382009 0.920963 -0.0767847
v 2.31923 2.4 1.2
vn -0.967963 -0.0325799 -0.24897
v 2.325 2.4 1.18228
vn -0.768028 0.570764 -0.29045
v 2.29997 2.4 1.275
vn -0.970003 -0.137877 -0.200211
v 2.27909 2.4 1.35
vn -0.954219 -0.18825 -0.232441
v 2.25831 2.4 1.425
vn -0.909972 -0.342445 -0.233843
v 2.325 2.40742 0.75
vn 0.330957 -0.850204 0.409416
v 2.325 2.44884 0.825
vn 0.128963 -0.987755 0.0877997
v 2.325 2.45053 0.9
vn 0.169202 -0.984933 0.0357484
v 2.325 2.4491 0.975
vn -0.0447939 -0.998865 -0.0162235
v 2.325 2.43872 1.05
vn -0.264277 -0.945759 -0.188938
v 2.325 2.42093 1.125
vn -0.328147 -0.94236 -0.0654015
v 2.4 2.34385 0.75
vn -0.0379816 0.926994 0.373149
v 2.4 2.4 0.715806
vn -0.0148097 -0.0174698 0.999738
v 2.4 2.35958 0.825
vn -0.295126 0.943755 -0.149088
v 2.4 2.39951 0.9
vn -0.495443 0.849556 -0.181083
v 2.37952 2.4 0.975
vn -0.961906 0.139583 -0.23506
v 2.4 2.4 0.900993
vn -0.662039 0.726134 -0.185563
v 2.36 2.4 1.05
vn -0.960468 -0.168683 -0.221465
v 2.3399 2.4 1.125
vn -0.929768 -0.287414 -0.230055
v 2.4 2.45654 0.75
vn -0.233851 -0.939112 0.251759
v 2.4 2.44097 0.825
vn -0.171663 -0.977505 -0.122535
v 2.4 2.40049 0.9
vn -0.48461 -0.858758 -0.166399
v 2.44925 2.4 0.75
vn -0.977425 0.129272 0.167118
v 2.42705 2.4 0.825
vn -0.939391 -0.209364 -0.271497
v 2.40026 2.4 0.9
vn -0.805208 -0.518982 -0.286877
f 3//3 1//1 2//2
f 2//2 4//4 5//5
f 1//1 4//4 2//2
f 5//5 4//4 6//6
f 8//8 1//1 3//3
f 7//7 1//1 8//8
f 1//1 7//7 4//4
f 4//4 7//7 9//9
f 6//6 9//9 10//10
f 4//4 9//9 6//6
f 12//12 7//7 8//8
f 11//11 7//7 12//12
f 7//7 11//11 9//9
f 9//9 11//11 13//13
f 10//10 13//13 14//14
f 9//9 13//13 10//10
f 12//12 15//15 11//11
f 11//11 16//16 13//13
f 15//15 16//16 11//11
f 13//13 16//16 14//14
f 19//19 17//17 18//18
f 3//3 18//18 17//17
f 3//3 2//2 18//18
f 2//2 20//20 18//18
f 20//20 2//2 21//21
f 2//2 5//5 21//21
f 5//5 22//22 21//21
f 6//6 22//22 5//5
f 25//25 23//23 24//24
f 24//24 17//17 19//19
f 24//24 23//23 17//17
f 23//23 26//26 17//17
f 17//17 26//26 8//8
f 3//3 17//17 8//8
f 22//22 6//6 27//27
f 27//27 6//6 10//10
f 25//25 28//28 23//23
f 30//30 23//23 28//28
f 30//30 29//29 23//23
f 29//29 26//26 23//23
f 26//26 29//29 12//12
f 8//8 26//26 12//12
f 27//27 10//10 31//31
f 31//31 10//10 14//14
f 30//30 32//32 29//29
f 29//29 15//15 12//12
f 29//29 32//32 15//15
f 32//32 33//33 15//15
f 33//33 34//34 15//15
f 15//15 34//34 16//16
f 34//34 14//14 16//16
f 31//31 14//14 34//34
f 37//37 35//35 36//36
f 19//19 36//36 35//35
f 19//19 18//18 36//36
f 18//18 38//38 36//36
f 38//38 18//18 39//39
f 18//18 20//20 39//39
f 41//41 21//21 40//40
f 41//41 39//39 21//21
f 39//39 20//20 21//21
f 21//21 22//22 40//40
f 44//44 42//42 43//43
f 35//35 25//25 24//24
f 37//37 25//25 35//35
f 37//37 42//42 25//25
f 37//37 43//43 42//42
f 35//35 24//24 19//19
f 46//46 41//41 40//40
f 45//45 46//46 40//40
f 40//40 27//27 45//45
f 22//22 27//27 40//40
f 44//44 47//47 42//42
f 49//49 48//48 28//28
f 47//47 49//49 28//28
f 47//47 28//28 25//25
f 47//47 25//25 42//42
f 28//28 48//48 30//30
f 51//51 46//46 45//45
f 50//50 51//51 45//45
f 45//45 31//31 50//50
f 27//27 31//31 45//45
f 49//49 52//52 48//48
f 48//48 32//32 30//30
f 48//48 52//52 32//32
f 52//52 53//53 32//32
f 53//53 54//54 32//32
f 32//32 54//54 33//33
f 50//50 54//54 51//51
f 50//50 34//34 54//54
f 34//34 33//33 54//54
f 50//50 31//31 34//34
f 57//57 55//55 56//56
f 56//56 58//58 59//59
f 55//55 58//58 56//56
f 37//37 59//59 58//58
f 37//37 36//36 59//59
f 36//36 60//60 59//59
f 62//62 38//38 61//61
f 62//62 60//60 38//38
f 60//60 36//36 38//38
f 39//39 61//61 38//38
f 63//63 61//61 39//39
f 39//39 41//41 63//63
f 66//66 64//64 65//65
f 65//65 55//55 57//57
f 65//65 64//64 55//55
f 64//64 67//67 55//55
f 44//44 43//43 58//58
f 44//44 58//58 67//67
f 67//67 58//58 55//55
f 58//58 43//43 37//37
f 62//62 61//61 68//68
f 70//70 68//68 61//61
f 70//70 61//61 69//69
f 69//69 61//61 63//63
f 63//63 46//46 69//69
f 41//41 46//46 63//63
f 66//66 71//71 64//64
f 73//73 64//64 71//71
f 73//73 72//72 64//64
f 72//72 67//67 64//64
f 47//47 44//44 67//67
f 47//47 67//67 74//74
f 74//74 67//67 72//72
f 47//47 74//74 49//49
f 77//77 76//76 75//75
f 76//76 70//70 69//69
f 76//76 69//69 75//75
f 75//75 69//69 78//78
f 69//69 51//51 78//78
f 46//46 51//51 69//69
f 73//73 79//79 72//72
f 72//72 80//80 74//74
f 79//79 80//80 72//72
f 74//74 52//52 49//49
f 74//74 80//80 52//52
f 80//80 81//81 52//52
f 75//75 81//81 77//77
f 75//75 53//53 81//81
f 53//53 52//52 81//81
f 78//78 53//53 75//75
f 54//54 53//53 78//78
f 78//78 51//51 54//54
f 84//84 82//82 83//83
f 86//86 83//83 82//82
f 85//85 57//57 56//56
f 59//59 85//85 56//56
f 87//87 85//85 59//59
f 60//60 87//87 59//59
f 88//88 87//87 60//60
f 60//60 62//62 88//88
f 91//91 89//89 90//90
f 90//90 92//92 93//93
f 89//89 92//92 90//90
f 93//93 94//94 95//95
f 92//92 94//94 93//93
f 82//82 66//66 65//65
f 84//84 66//66 82//82
f 84//84 94//94 66//66
f 84//84 95//95 94//94
f 57//57 85//85 96//96
f 57//57 96//96 65//65
f 86//86 82//82 96//96
f 82//82 65//65 96//96
f 98//98 96//96 85//85
f 98//98 85//85 97//97
f 97//97 85//85 87//87
f 87//87 88//88 97//97
f 88//88 99//99 97//97
f 68//68 88//88 62//62
f 68//68 100//100 88//88
f 100//100 99//99 88//88
f 68//68 70//70 100//100
f 91//91 101//101 89//89
f 89//89 102//102 92//92
f 101//101 102//102 89//89
f 92//92 103//103 94//94
f 102//102 103//103 92//92
f 105//105 104//104 71//71
f 103//103 105//105 71//71
f 103//103 71//71 66//66
f 103//103 66//66 94//94
f 106//106 73//73 71//71
f 106//106 71//71 107//107
f 104//104 108//108 71//71
f 108//108 107//107 71//71
f 107//107 98//98 97//97
f 107//107 97//97 106//106
f 106//106 97//97 109//109
f 97//97 99//99 109//109
f 99//99 110//110 109//109
f 77//77 100//100 76//76
f 77//77 110//110 100//100
f 110//110 99//99 100//100
f 100//100 70//70 76//76
f 105//105 111//111 104//104
f 104//104 111//111 108//108
f 73//73 106//106 79//79
f 109//109 79//79 106//106
f 80//80 79//79 109//109
f 110//110 80//80 109//109
f 81//81 80//80 110//110
f 110//110 77//77 81//81
f 83//83 112//112 84//84
f 83//83 86//86 112//112
f 115//115 113//113 114//114
f 114//114 116//116 117//117
f 113//113 116//116 114//114
f 91//91 117//117 116//116
f 91//91 90//90 117//117
f 90//90 118//118 117//117
f 118//118 90//90 119//119
f 90//90 93//93 119//119
f 119//119 93//93 120//120
f 93//93 95//95 120//120
f 84//84 120//120 95//95
f 84//84 121//121 120//120
f 84//84 112//112 121//121
f 121//121 122//122 120//120
f 96//96 112//112 86//86
f 96//96 123//123 112//112
f 123//123 121//121 112//112
f 96//96 98//98 123//123
f 115//115 124//124 113//113
f 113//113 125//125 116//116
f 124//124 125//125 113//113
f 116//116 101//101 91//91
f 116//116 125//125 101//101
f 125//125 126//126 101//101
f 126//126 127//127 101//101
f 101//101 127//127 102//102
f 127//127 128//128 102//102
f 102//102 128//128 103//103
f 122//122 121//121 129//129
f 122//122 129//129 103//103
f 122//122 103//103 128//128
f 105//105 103//103 129//129
f 108//108 123//123 107//107
f 108//108 129//129 123//123
f 129//129 121//121 123//123
f 123//123 98//98 107//107
f 129//129 111//111 105//105
f 129//129 108//108 111//111
f 132//132 130//130 131//131
f 131//131 133//133 134//134
f 130//130 133//133 131//131
f 134//134 135//135 136//136
f 133//133 135//135 134//134
f 115//115 136//136 135//135
f 115//115 114//114 136//136
f 114//114 137//137 136//136
f 137//137 114//114 138//138
f 114//114 117//117 138//138
f 140//140 118//118 139//139
f 140//140 138//138 118//118
f 138//138 117//117 118//118
f 119//119 139//139 118//118
f 141//141 139//139 119//119
f 120//120 141//141 119//119
f 142//142 141//141 120//120
f 120//120 122//122 142//142
f 132//132 143//143 130//130
f 130//130 144//144 133//133
f 143//143 144//144 130//130
f 133//133 145//145 135//135
f 144//144 145//145 133//133
f 135//135 124//124 115//115
f 135//135 145//145 124//124
f 145//145 146//146 124//124
f 146//146 147//147 124//124
f 124//124 147//147 125//125
f 139//139 147//147 140//140
f 139//139 126//126 147//147
f 126//126 125//125 147//147
f 141//141 126//126 139//139
f 127//127 126//126 141//141
f 142//142 127//127 141//141
f 128//128 127//127 142//142
f 142//142 122//122 128//128
f 150//150 148//148 149//149
f 149//149 151//151 152//152
f 148//148 151//151 149//149
f 152//152 153//153 154//154
f 151//151 153//153 152//152
f 154//154 155//155 156//156
f 153//153 155//155 154//154
f 132//132 156//156 155//155
f 132//132 131//131 156//156
f 131//131 157//157 156//156
f 157//157 131//131 158//158
f 131//131 134//134 158//158
f 160//160 136//136 159//159
f 160//160 158//158 136//136
f 158//158 134//134 136//136
f 137//137 159//159 136//136
f 161//161 159//159 137//137
f 138//138 161//161 137//137
f 162//162 161//161 138//138
f 138//138 140//140 162//162
f 150//150 163//163 148//148
f 148//148 164//164 151//151
f 163//163 164//164 148//148
f 151//151 165//165 153//153
f 164//164 165//165 151//151
f 153//153 166//166 155//155
f 165//165 166//166 153//153
f 155//155 143//143 132//132
f 155//155 166//166 143//143
f 166//166 167//167 143//143
f 167//167 168//168 143//143
f 143//143 168//168 144//144
f 159//159 168//168 160//160
f 159//159 145//145 168//168
f 145//145 144//144 168//168
f 161//161 145//145 159//159
f 146//146 145//145 161//161
f 162//162 146//146 161//161
f 147//147 146//146 162//162
f 162//162 140//140 147//147
f 171//171 169//169 170//170
f 170//170 172//172 173//173
f 169//169 172//172 170//170
f 173//173 174//174 175//175
f 172//172 174//174 173//173
f 150//150 175//175 174//174
f 150//150 149//149 175//175
f 149//149 176//176 175//175
f 176//176 149//149 177//177
f 149//149 152//152 177//177
f 177//177 152//152 178//178
f 152//152 154//154 178//178
f 180//180 156//156 179//179
f 180//180 178//178 156//156
f 178//178 154//154 156//156
f 157//157 179//179 156//156
f 181//181 179//179 157//157
f 158//158 181//181 157//157
f 182//182 181//181 158//158
f 158//158 160//160 182//182
f 171//171 183//183 169//169
f 169//169 184//184 172//172
f 183//183 184//184 169//169
f 172//172 185//185 174//174
f 184//184 185//185 172//172
f 174//174 163//163 150//150
f 174//174 185//185 163//163
f 185//185 186//186 163//163
f 186//186 187//187 163//163
f 163//163 187//187 164//164
f 187//187 188//188 164//164
f 164//164 188//188 165//165
f 179//179 188//188 180//180
f 179//179 166//166 188//188
f 166//166 165//165 188//188
f 181//181 166//166 179//179
f 167//167 166//166 181//181
f 182//182 167//167 181//181
f 168//168 167//167 182//182
f 182//182 160//160 168//168
f 191//191 189//189 190//190
f 190//190 192//192 193//193
f 189//189 192//192 190//190
f 193//193 194//194 195//195
f 192//192 194//194 193//193
f 195//195 196//196 197//197
f 194//194 196//196 195//195
f 171//171 197//197 196//196
f 171//171 170//170 197//197
f 170//170 198//198 197//197
f 198//198 170//170 199//199
f 170//170 173//173 199//199
f 201//201 175//175 200//200
f 201//201 199//199 175//175
f 199//199 173//173 175//175
f 176//176 200//200 175//175
f 202//202 200//200 176//176
f 177//177 202//202 176//176
f 203//203 202//202 177//177
f 178//178 203//203 177//177
f 204//204 203//203 178//178
f 178//178 180//180 204//204
f 191//191 205//205 189//189
f 189//189 206//206 192//192
f 205//205 206//206 189//189
f 192//192 207//207 194//194
f 206//206 207//207 192//192
f 194//194 208//208 196//196
f 207//207 208//208 194//194
f 196//196 183//183 171//171
f 196//196 208//208 183//183
f 208//208 209//209 183//183
f 209//209 210//210 183//183
f 183//183 210//210 184//184
f 200//200 210//210 201//201
f 200//200 185//185 210//210
f 185//185 184//184 210//210
f 202//202 185//185 200//200
f 186//186 185//185 202//202
f 203//203 186//186 202//202
f 187//187 186//186 203//203
f 204//204 187//187 203//203
f 188//188 187//187 204//204
f 204//204 180//180 188//188
f 191//191 211//211 212//212
f 190//190 211//211 191//191
f 211//211 190//190 213//213
f 190//190 193//193 213//213
f 213//213 193//193 214//214
f 193//193 195//195 214//214
f 216//216 197//197 215//215
f 216//216 214//214 197//197
f 214//214 195//195 197//197
f 198//198 215//215 197//197
f 217//217 215//215 198//198
f 199//199 217//217 198//198
f 218//218 217//217 199//199
f 199//199 201//201 218//218
f 212//212 205//205 191//191
f 219//219 205//205 212//212
f 219//219 220//220 205//205
f 205//205 220//220 206//206
f 220//220 221//221 206//206
f 206//206 221//221 207//207
f 215//215 221//221 216//216
f 215//215 208//208 221//221
f 208//208 207//207 221//221
f 217//217 208//208 215//215
f 209//209 208//208 217//217
f 218//218 209//209 217//217
f 210//210 209//209 218//218
f 218//218 201//201 210//210
f 211//211 222//222 212//212
f 213//213 222//222 211//211
f 223//223 222//222 213//213
f 214//214 223//223 213//213
f 224//224 223//223 214//214
f 214//214 216//216 224//224
f 222//222 219//219 212//212
f 223//223 219//219 222//222
f 220//220 219//219 223//223
f 224//224 220//220 223//223
f 221//221 220//220 224//224
f 224//224 216//216 221//221
