# Created by Open3D 
# object name: 001.250000
# number of vertices: 176
# number of triangles: 348
v 1.63856 2.325 2.55
vn 0.868662 0.257264 0.423369
v 1.65 2.3149 2.55
vn 0.223382 0.97344 0.0501535
v 1.65 2.325 2.53427
vn 0.697613 0.390055 0.600993
v 1.61359 2.325 2.625
vn 0.868661 0.481242 0.117618
v 1.65 2.30946 2.625
vn 0.0454727 0.987436 -0.151336
v 1.65 2.325 2.63854
vn 0.0801915 0.215675 -0.973167
v 1.62232 2.4 2.55
vn 0.880328 0.0700894 0.46916
v 1.65 2.4 2.5114
vn 0.786246 0.075128 0.613329
v 1.58335 2.4 2.625
vn 0.973897 -0.0419064 -0.22309
v 1.65 2.4 2.65106
vn 0.0979709 -0.044272 -0.994204
v 1.63968 2.475 2.55
vn 0.8281 -0.433352 0.355608
v 1.65 2.475 2.53585
vn 0.754916 -0.256169 0.603722
v 1.6145 2.475 2.625
vn 0.742154 -0.503055 -0.44288
v 1.65 2.475 2.63845
vn 0.0377006 -0.298141 -0.953777
v 1.65 2.48412 2.55
vn 0.225713 -0.971633 0.0705871
v 1.65 2.49025 2.625
vn 0.115059 -0.99067 -0.0730414
v 1.70249 2.325 2.475
vn 0.769187 0.317325 0.554668
v 1.725 2.311 2.475
vn 0.149842 0.975036 0.163869
v 1.725 2.325 2.43911
vn 0.619118 0.612212 0.491822
v 1.725 2.29603 2.55
vn 0.00706407 0.998521 -0.0539021
v 1.725 2.3191 2.625
vn -0.0888475 0.96708 -0.23846
v 1.725 2.325 2.62988
vn -0.143399 0.287733 -0.946914
v 1.72374 2.4 2.4
vn 0.854534 -0.0551319 0.51646
v 1.725 2.3943 2.4
vn 0.755664 0.315583 0.573916
v 1.725 2.4 2.3978
vn 0.847394 0.133145 0.514
v 1.67811 2.4 2.475
vn 0.814889 -0.0538404 0.577111
v 1.725 2.4 2.64186
vn -0.208703 0.0459345 -0.9769
v 1.725 2.40553 2.4
vn 0.771282 -0.384382 0.507321
v 1.70339 2.475 2.475
vn 0.74991 -0.377529 0.543237
v 1.725 2.475 2.44027
vn 0.708704 -0.467156 0.528682
v 1.725 2.475 2.63008
vn -0.192206 -0.177601 -0.96515
v 1.725 2.48865 2.475
vn 0.148692 -0.975849 0.160032
v 1.725 2.50398 2.55
vn 0.0125376 -0.998663 -0.0501561
v 1.725 2.48112 2.625
vn -0.0607926 -0.963884 -0.25929
v 1.75987 2.325 2.4
vn 0.675427 0.576102 0.460332
v 1.8 2.30969 2.4
vn 0.0908649 0.987368 0.129803
v 1.8 2.325 2.32829
vn 0.634413 0.66039 0.401752
v 1.8 2.30397 2.475
vn -0.124714 0.990669 -0.054968
v 1.8 2.31384 2.55
vn -0.229194 0.96432 -0.1325
v 1.73568 2.325 2.625
vn -0.569329 0.237784 -0.786971
v 1.8 2.325 2.56974
vn -0.638204 0.389317 -0.664174
v 1.76966 2.4 2.325
vn 0.872337 0.0109076 0.488784
v 1.8 2.32708 2.325
vn 0.811833 0.377539 0.445412
v 1.8 2.4 2.26472
vn 0.881386 0.0271057 0.471619
v 1.76084 2.4 2.625
vn -0.568844 -0.0811668 -0.81843
v 1.8 2.4 2.59395
vn -0.715737 0.0733098 -0.694511
v 1.8 2.47245 2.325
vn 0.801621 -0.364442 0.473906
v 1.76058 2.475 2.4
vn 0.622708 -0.648807 0.437362
v 1.8 2.475 2.32902
vn 0.680566 -0.627986 0.377443
v 1.73607 2.475 2.625
vn -0.585777 -0.377344 -0.71727
v 1.8 2.475 2.56952
vn -0.683701 -0.280289 -0.673788
v 1.8 2.49027 2.4
vn 0.0762035 -0.989994 0.118768
v 1.8 2.49594 2.475
vn -0.142507 -0.987785 -0.0630208
v 1.8 2.486 2.55
vn -0.204528 -0.969574 -0.134518
v 1.86112 2.325 2.25
vn 0.737122 0.541971 0.403632
v 1.875 2.31987 2.25
vn 0.0698345 0.992111 0.104109
v 1.875 2.325 2.21975
vn -0.122488 0.932148 0.340729
v 1.80453 2.325 2.325
vn 0.532491 0.751651 0.389197
v 1.875 2.31458 2.325
vn -0.0437036 0.997817 0.0495138
v 1.875 2.31911 2.4
vn -0.218611 0.975027 -0.0391317
v 1.84766 2.325 2.475
vn -0.769395 0.502402 -0.394491
v 1.875 2.325 2.42395
vn -0.705141 0.617875 -0.34786
v 1.81329 2.325 2.55
vn -0.838781 0.271641 -0.471865
v 1.84657 2.4 2.175
vn 0.918971 -0.0197424 0.393831
v 1.875 2.34379 2.175
vn 0.4783 0.80832 0.343288
v 1.875 2.4 2.10897
vn 0.823934 0.128777 0.551861
v 1.80797 2.4 2.25
vn 0.84425 -0.0105048 0.535847
v 1.875 2.39351 2.475
vn -0.861153 0.295692 -0.4135
v 1.8312 2.4 2.55
vn -0.86597 -0.013076 -0.499924
v 1.875 2.4 2.47736
vn -0.818671 0.275313 -0.503965
v 1.875 2.45677 2.175
vn 0.480497 -0.833531 0.272669
v 1.86085 2.475 2.25
vn 0.63025 -0.681424 0.372083
v 1.875 2.475 2.21857
vn 0.527247 -0.784424 0.326635
v 1.80555 2.475 2.325
vn 0.411202 -0.841046 0.351503
v 1.847 2.475 2.475
vn -0.749749 -0.531015 -0.394842
v 1.875 2.4063 2.475
vn -0.821439 -0.321136 -0.471286
v 1.875 2.475 2.42278
vn -0.835026 -0.387548 -0.390562
v 1.81308 2.475 2.55
vn -0.775749 -0.517806 -0.360681
v 1.875 2.48026 2.25
vn -0.0962724 -0.993934 0.0531646
v 1.875 2.48534 2.325
vn -0.0343459 -0.997599 0.0601428
v 1.875 2.48067 2.4
vn -0.231186 -0.970983 -0.0611902
v 1.93886 2.325 2.175
vn 0.399926 0.891025 0.214785
v 1.95 2.3237 2.175
vn 0 1 0
v 1.95 2.325 2.13132
vn -0.139429 0.98621 -0.0891577
v 1.91634 2.325 2.25
vn -0.526292 0.835322 -0.158917
v 1.95 2.325 2.19305
vn -4.93524e-17 0.985355 -0.170517
v 1.90269 2.325 2.325
vn -0.744944 0.647827 -0.159307
v 1.88362 2.325 2.4
vn -0.859053 0.385746 -0.336494
v 1.94391 2.4 1.95
vn 0.87448 -0.355592 0.329907
v 1.95 2.38611 1.95
vn 0.573927 0.785172 0.232622
v 1.95 2.4 1.93352
vn 0.802853 0.474048 0.361534
v 1.91369 2.4 2.025
vn 0.918837 -0.191537 0.34504
v 1.95 2.34419 2.025
vn 0.379285 0.89581 0.231661
v 1.87917 2.4 2.1
vn 0.917109 0.246423 0.313348
v 1.95 2.32634 2.1
vn 0.222207 0.95949 0.173216
v 1.95 2.33668 2.25
vn -0.513161 0.837656 -0.187076
v 1.94753 2.4 2.325
vn -0.931984 -0.01078 -0.362339
v 1.95 2.4 2.31972
vn -0.847626 0.206169 -0.488901
v 1.91061 2.4 2.4
vn -0.912504 -0.111905 -0.393463
v 1.87619 2.4 2.475
vn -0.916288 -0.0304163 -0.399364
v 1.95 2.41365 1.95
vn 0.5517 -0.803104 0.225057
v 1.95 2.4557 2.025
vn 0.293902 -0.933386 0.20594
v 1.95 2.47366 2.1
vn 0.194743 -0.954829 0.224448
v 1.93775 2.475 2.175
vn 0.253139 -0.96743 0
v 1.95 2.475 2.13002
vn 0.225819 -0.972452 0.0578173
v 1.91688 2.475 2.25
vn -0.500781 -0.862559 -0.0721771
v 1.95 2.46337 2.25
vn -0.546897 -0.79656 -0.257672
v 1.95 2.475 2.19412
vn -0.383705 -0.903059 -0.193016
v 1.90227 2.475 2.325
vn -0.742799 -0.634339 -0.214158
v 1.88325 2.475 2.4
vn -0.849034 -0.440532 -0.291672
v 1.95 2.47639 2.175
vn 6.71001e-18 -1 0
v 1.95329 2.325 2.175
vn -0.823988 0.54304 -0.161713
v 2.00216 2.4 1.8
vn 0.921716 -0.23911 0.305394
v 2.025 2.36307 1.8
vn 0.452278 0.875904 0.168037
v 2.025 2.4 1.73254
vn 0.814112 0.438359 0.380871
v 1.97364 2.4 1.875
vn 0.934847 0.0219499 0.354372
v 2.025 2.34056 1.875
vn 0.363941 0.901835 0.232897
v 2.025 2.33285 1.95
vn -0.157322 0.982856 -0.0961464
v 2.025 2.33889 2.025
vn -0.313597 0.945507 -0.0875929
v 2.025 2.36623 2.1
vn -0.575977 0.786433 -0.223101
v 2.00989 2.4 2.175
vn -0.895116 0.246134 -0.371733
v 2.025 2.4 2.13912
vn -0.781107 -0.562526 -0.270991
v 1.97773 2.4 2.25
vn -0.953178 -0.00574422 -0.302356
v 2.025 2.4363 1.8
vn 0.387594 -0.910827 0.142005
v 2.025 2.45886 1.875
vn 0.403056 -0.882493 0.242387
v 2.025 2.46715 1.95
vn -0.26366 -0.955811 -0.13003
v 2.025 2.46106 2.025
vn -0.271863 -0.959956 -0.067642
v 2.025 2.43351 2.1
vn -0.440427 -0.869072 -0.225251
v 1.95351 2.475 2.175
vn -0.759596 -0.628033 -0.169084
v 2.07841 2.4 1.575
vn 0.932699 -0.240307 0.268933
v 2.1 2.36782 1.575
vn 0.422566 0.897153 0.128661
v 2.1 2.4 1.50192
vn 0.802935 0.489352 0.340338
v 2.05375 2.4 1.65
vn 0.950325 -0.16076 0.266529
v 2.1 2.34838 1.65
vn 0.347781 0.916612 0.197156
v 2.02774 2.4 1.725
vn 0.936556 -0.0815283 0.340904
v 2.1 2.33903 1.725
vn -0.0159507 0.999478 0.0281027
v 2.1 2.34501 1.8
vn -0.393915 0.901341 -0.180045
v 2.1 2.36488 1.875
vn -0.494341 0.858689 -0.135204
v 2.09472 2.4 1.95
vn -0.943159 -0.0613108 -0.326638
v 2.1 2.4 1.93521
vn -0.830461 0.421317 -0.364453
v 2.06683 2.4 2.025
vn -0.948219 -0.152748 -0.278477
v 2.0391 2.4 2.1
vn -0.924396 -0.236603 -0.299183
v 2.1 2.43252 1.575
vn 0.357909 -0.927918 0.104253
v 2.1 2.45176 1.65
vn 0.317122 -0.927627 0.197337
v 2.1 2.46066 1.725
vn -0.0141476 -0.999666 0.0216242
v 2.1 2.45453 1.8
vn -0.378653 -0.906999 -0.184323
v 2.1 2.43516 1.875
vn -0.444025 -0.888874 -0.112891
v 2.14525 2.4 1.35
vn 0.915794 -0.232335 0.327631
v 2.175 2.35163 1.35
vn 0.385975 0.904039 0.183676
v 2.175 2.4 1.31133
vn 0.452951 0.301232 0.839103
v 2.12293 2.4 1.425
vn 0.969822 -0.129269 0.206723
v 2.175 2.34333 1.425
vn 0.312342 0.945531 0.0917296
v 2.10072 2.4 1.5
vn 0.955825 -0.0867984 0.280827
v 2.175 2.34282 1.5
vn -0.0558347 0.997768 -0.0366241
v 2.175 2.35134 1.575
vn -0.372752 0.908916 -0.186887
v 2.175 2.37077 1.65
vn -0.454243 0.883373 -0.115393
v 2.16962 2.4 1.725
vn -0.951411 -0.0522438 -0.30346
v 2.175 2.4 1.70857
vn -0.812932 0.475293 -0.336508
v 2.14446 2.4 1.8
vn -0.954538 -0.152877 -0.255903
v 2.1192 2.4 1.875
vn -0.934064 -0.229143 -0.273893
v 2.175 2.44918 1.35
vn 0.277967 -0.907435 0.315112
v 2.175 2.45739 1.425
vn 0.333768 -0.937813 0.0954267
v 2.175 2.45759 1.5
vn -0.0126746 -0.99966 -0.0227944
v 2.175 2.44871 1.575
vn -0.345207 -0.917718 -0.196533
v 2.175 2.42888 1.65
vn -0.406981 -0.90795 -0.0999681
v 2.25 2.33641 1.35
vn -0.242526 0.922918 0.299004
v 2.25 2.4 1.27826
vn -0.217569 -0.144693 0.96526
v 2.25 2.37435 1.425
vn -0.484488 0.84223 -0.236472
v 2.23924 2.4 1.5
vn -0.951446 -0.0112267 -0.307611
v 2.25 2.4 1.46907
vn -0.806182 0.476193 -0.351157
v 2.21605 2.4 1.575
vn -0.955983 -0.158431 -0.246974
v 2.19258 2.4 1.65
vn -0.931962 -0.251389 -0.261246
v 2.25 2.46391 1.35
vn -0.430099 -0.896223 0.108625
v 2.25 2.42593 1.425
vn -0.434162 -0.876245 -0.209041
v 2.29782 2.4 1.35
vn -0.996762 0.0516215 0.0616486
v 2.26425 2.4 1.425
vn -0.890529 -0.292063 -0.348793
f 3//3 1//1 2//2
f 2//2 4//4 5//5
f 1//1 4//4 2//2
f 5//5 4//4 6//6
f 8//8 1//1 3//3
f 7//7 1//1 8//8
f 1//1 7//7 4//4
f 4//4 7//7 9//9
f 6//6 9//9 10//10
f 4//4 9//9 6//6
f 12//12 7//7 8//8
f 11//11 7//7 12//12
f 7//7 11//11 9//9
f 9//9 11//11 13//13
f 10//10 13//13 14//14
f 9//9 13//13 10//10
f 12//12 15//15 11//11
f 11//11 16//16 13//13
f 15//15 16//16 11//11
f 13//13 16//16 14//14
f 19//19 17//17 18//18
f 3//3 18//18 17//17
f 3//3 2//2 18//18
f 2//2 20//20 18//18
f 20//20 2//2 21//21
f 2//2 5//5 21//21
f 5//5 22//22 21//21
f 6//6 22//22 5//5
f 25//25 23//23 24//24
f 24//24 17//17 19//19
f 24//24 23//23 17//17
f 23//23 26//26 17//17
f 17//17 26//26 8//8
f 3//3 17//17 8//8
f 22//22 6//6 27//27
f 27//27 6//6 10//10
f 25//25 28//28 23//23
f 30//30 23//23 28//28
f 30//30 29//29 23//23
f 29//29 26//26 23//23
f 26//26 29//29 12//12
f 8//8 26//26 12//12
f 27//27 10//10 31//31
f 31//31 10//10 14//14
f 30//30 32//32 29//29
f 29//29 15//15 12//12
f 29//29 32//32 15//15
f 32//32 33//33 15//15
f 33//33 34//34 15//15
f 15//15 34//34 16//16
f 34//34 14//14 16//16
f 31//31 14//14 34//34
f 37//37 35//35 36//36
f 19//19 36//36 35//35
f 19//19 18//18 36//36
f 18//18 38//38 36//36
f 38//38 18//18 39//39
f 18//18 20//20 39//39
f 41//41 21//21 40//40
f 41//41 39//39 21//21
f 39//39 20//20 21//21
f 21//21 22//22 40//40
f 44//44 42//42 43//43
f 35//35 25//25 24//24
f 37//37 25//25 35//35
f 37//37 42//42 25//25
f 37//37 43//43 42//42
f 35//35 24//24 19//19
f 46//46 41//41 40//40
f 45//45 46//46 40//40
f 40//40 27//27 45//45
f 22//22 27//27 40//40
f 44//44 47//47 42//42
f 49//49 48//48 28//28
f 47//47 49//49 28//28
f 47//47 28//28 25//25
f 47//47 25//25 42//42
f 28//28 48//48 30//30
f 51//51 46//46 45//45
f 50//50 51//51 45//45
f 45//45 31//31 50//50
f 27//27 31//31 45//45
f 49//49 52//52 48//48
f 48//48 32//32 30//30
f 48//48 52//52 32//32
f 52//52 53//53 32//32
f 53//53 54//54 32//32
f 32//32 54//54 33//33
f 50//50 54//54 51//51
f 50//50 34//34 54//54
f 34//34 33//33 54//54
f 50//50 31//31 34//34
f 57//57 55//55 56//56
f 56//56 58//58 59//59
f 55//55 58//58 56//56
f 37//37 59//59 58//58
f 37//37 36//36 59//59
f 36//36 60//60 59//59
f 62//62 38//38 61//61
f 62//62 60//60 38//38
f 60//60 36//36 38//38
f 39//39 61//61 38//38
f 63//63 61//61 39//39
f 39//39 41//41 63//63
f 66//66 64//64 65//65
f 65//65 55//55 57//57
f 65//65 64//64 55//55
f 64//64 67//67 55//55
f 44//44 43//43 58//58
f 44//44 58//58 67//67
f 67//67 58//58 55//55
f 58//58 43//43 37//37
f 62//62 61//61 68//68
f 70//70 68//68 61//61
f 70//70 61//61 69//69
f 69//69 61//61 63//63
f 63//63 46//46 69//69
f 41//41 46//46 63//63
f 66//66 71//71 64//64
f 73//73 64//64 71//71
f 73//73 72//72 64//64
f 72//72 67//67 64//64
f 47//47 44//44 67//67
f 47//47 67//67 74//74
f 74//74 67//67 72//72
f 47//47 74//74 49//49
f 77//77 76//76 75//75
f 76//76 70//70 69//69
f 76//76 69//69 75//75
f 75//75 69//69 78//78
f 69//69 51//51 78//78
f 46//46 51//51 69//69
f 73//73 79//79 72//72
f 72//72 80//80 74//74
f 79//79 80//80 72//72
f 74//74 52//52 49//49
f 74//74 80//80 52//52
f 80//80 81//81 52//52
f 75//75 81//81 77//77
f 75//75 53//53 81//81
f 53//53 52//52 81//81
f 78//78 53//53 75//75
f 54//54 53//53 78//78
f 78//78 51//51 54//54
f 84//84 82//82 83//83
f 86//86 83//83 82//82
f 85//85 57//57 56//56
f 59//59 85//85 56//56
f 87//87 85//85 59//59
f 60//60 87//87 59//59
f 88//88 87//87 60//60
f 60//60 62//62 88//88
f 91//91 89//89 90//90
f 90//90 92//92 93//93
f 89//89 92//92 90//90
f 93//93 94//94 95//95
f 92//92 94//94 93//93
f 82//82 66//66 65//65
f 84//84 66//66 82//82
f 84//84 94//94 66//66
f 84//84 95//95 94//94
f 57//57 85//85 96//96
f 57//57 96//96 65//65
f 86//86 82//82 96//96
f 82//82 65//65 96//96
f 98//98 96//96 85//85
f 98//98 85//85 97//97
f 97//97 85//85 87//87
f 87//87 88//88 97//97
f 88//88 99//99 97//97
f 68//68 88//88 62//62
f 68//68 100//100 88//88
f 100//100 99//99 88//88
f 68//68 70//70 100//100
f 91//91 101//101 89//89
f 89//89 102//102 92//92
f 101//101 102//102 89//89
f 92//92 103//103 94//94
f 102//102 103//103 92//92
f 105//105 104//104 71//71
f 103//103 105//105 71//71
f 103//103 71//71 66//66
f 103//103 66//66 94//94
f 106//106 73//73 71//71
f 106//106 71//71 107//107
f 104//104 108//108 71//71
f 108//108 107//107 71//71
f 107//107 98//98 97//97
f 107//107 97//97 106//106
f 106//106 97//97 109//109
f 97//97 99//99 109//109
f 99//99 110//110 109//109
f 77//77 100//100 76//76
f 77//77 110//110 100//100
f 110//110 99//99 100//100
f 100//100 70//70 76//76
f 105//105 111//111 104//104
f 104//104 111//111 108//108
f 73//73 106//106 79//79
f 109//109 79//79 106//106
f 80//80 79//79 109//109
f 110//110 80//80 109//109
f 81//81 80//80 110//110
f 110//110 77//77 81//81
f 83//83 112//112 84//84
f 83//83 86//86 112//112
f 115//115 113//113 114//114
f 114//114 116//116 117//117
f 113//113 116//116 114//114
f 91//91 117//117 116//116
f 91//91 90//90 117//117
f 90//90 118//118 117//117
f 118//118 90//90 119//119
f 90//90 93//93 119//119
f 119//119 93//93 120//120
f 93//93 95//95 120//120
f 84//84 120//120 95//95
f 84//84 121//121 120//120
f 84//84 112//112 121//121
f 121//121 122//122 120//120
f 96//96 112//112 86//86
f 96//96 123//123 112//112
f 123//123 121//121 112//112
f 96//96 98//98 123//123
f 115//115 124//124 113//113
f 113//113 125//125 116//116
f 124//124 125//125 113//113
f 116//116 101//101 91//91
f 116//116 125//125 101//101
f 125//125 126//126 101//101
f 126//126 127//127 101//101
f 101//101 127//127 102//102
f 127//127 128//128 102//102
f 102//102 128//128 103//103
f 122//122 121//121 129//129
f 122//122 129//129 103//103
f 122//122 103//103 128//128
f 105//105 103//103 129//129
f 108//108 123//123 107//107
f 108//108 129//129 123//123
f 129//129 121//121 123//123
f 123//123 98//98 107//107
f 129//129 111//111 105//105
f 129//129 108//108 111//111
f 132//132 130//130 131//131
f 131//131 133//133 134//134
f 130//130 133//133 131//131
f 134//134 135//135 136//136
f 133//133 135//135 134//134
f 115//115 136//136 135//135
f 115//115 114//114 136//136
f 114//114 137//137 136//136
f 137//137 114//114 138//138
f 114//114 117//117 138//138
f 140//140 118//118 139//139
f 140//140 138//138 118//118
f 138//138 117//117 118//118
f 119//119 139//139 118//118
f 141//141 139//139 119//119
f 120//120 141//141 119//119
f 142//142 141//141 120//120
f 120//120 122//122 142//142
f 132//132 143//143 130//130
f 130//130 144//144 133//133
f 143//143 144//144 130//130
f 133//133 145//145 135//135
f 144//144 145//145 133//133
f 135//135 124//124 115//115
f 135//135 145//145 124//124
f 145//145 146//146 124//124
f 146//146 147//147 124//124
f 124//124 147//147 125//125
f 139//139 147//147 140//140
f 139//139 126//126 147//147
f 126//126 125//125 147//147
f 141//141 126//126 139//139
f 127//127 126//126 141//141
f 142//142 127//127 141//141
f 128//128 127//127 142//142
f 142//142 122//122 128//128
f 150//150 148//148 149//149
f 149//149 151//151 152//152
f 148//148 151//151 149//149
f 152//152 153//153 154//154
f 151//151 153//153 152//152
f 132//132 154//154 153//153
f 132//132 131//131 154//154
f 131//131 155//155 154//154
f 155//155 131//131 156//156
f 131//131 134//134 156//156
f 158//158 136//136 157//157
f 158//158 156//156 136//136
f 156//156 134//134 136//136
f 137//137 157//157 136//136
f 159//159 157//157 137//137
f 138//138 159//159 137//137
f 160//160 159//159 138//138
f 138//138 140//140 160//160
f 150//150 161//161 148//148
f 148//148 162//162 151//151
f 161//161 162//162 148//148
f 151//151 163//163 153//153
f 162//162 163//163 151//151
f 153//153 143//143 132//132
f 153//153 163//163 143//143
f 163//163 164//164 143//143
f 164//164 165//165 143//143
f 143//143 165//165 144//144
f 157//157 165//165 158//158
f 157//157 145//145 165//165
f 145//145 144//144 165//165
f 159//159 145//145 157//157
f 146//146 145//145 159//159
f 160//160 146//146 159//159
f 147//147 146//146 160//160
f 160//160 140//140 147//147
f 150//150 166//166 167//167
f 149//149 166//166 150//150
f 166//166 149//149 168//168
f 149//149 152//152 168//168
f 170//170 154//154 169//169
f 170//170 168//168 154//154
f 168//168 152//152 154//154
f 155//155 169//169 154//154
f 171//171 169//169 155//155
f 156//156 171//171 155//155
f 172//172 171//171 156//156
f 156//156 158//158 172//172
f 167//167 161//161 150//150
f 173//173 161//161 167//167
f 173//173 174//174 161//161
f 161//161 174//174 162//162
f 169//169 174//174 170//170
f 169//169 163//163 174//174
f 163//163 162//162 174//174
f 171//171 163//163 169//169
f 164//164 163//163 171//171
f 172//172 164//164 171//171
f 165//165 164//164 172//172
f 172//172 158//158 165//165
f 166//166 175//175 167//167
f 168//168 175//175 166//166
f 176//176 175//175 168//168
f 168//168 170//170 176//176
f 175//175 173//173 167//167
f 176//176 173//173 175//175
f 174//174 173//173 176//176
f 176//176 170//170 174//174
