# Created by Open3D 
# object name: 001.050000
# number of vertices: 156
# number of triangles: 308
v 1.63883 2.325 2.55
vn 0.868804 0.255926 0.423888
v 1.65 2.31517 2.55
vn 0.226759 0.972598 0.0513247
v 1.65 2.325 2.53463
vn 0.699474 0.390302 0.598666
v 1.61353 2.325 2.625
vn 0.868052 0.481411 0.121361
v 1.65 2.30952 2.625
vn 0.0497359 0.987173 -0.15171
v 1.65 2.325 2.63858
vn 0.0833637 0.216217 -0.97278
v 1.62261 2.4 2.55
vn 0.879328 0.0722021 0.470712
v 1.65 2.4 2.51152
vn 0.788688 0.0780361 0.609821
v 1.58318 2.4 2.625
vn 0.974775 -0.0377892 -0.219968
v 1.65 2.4 2.65121
vn 0.0998833 -0.0428705 -0.994075
v 1.63951 2.475 2.55
vn 0.828142 -0.430247 0.359259
v 1.65 2.475 2.53542
vn 0.758555 -0.252705 0.600612
v 1.61392 2.475 2.625
vn 0.744001 -0.501134 -0.44196
v 1.65 2.475 2.63893
vn 0.038477 -0.298397 -0.953666
v 1.65 2.48438 2.55
vn 0.226914 -0.971224 0.0723459
v 1.65 2.49081 2.625
vn 0.117545 -0.99027 -0.0744849
v 1.70237 2.325 2.475
vn 0.770141 0.319488 0.552096
v 1.725 2.31086 2.475
vn 0.150935 0.974677 0.164993
v 1.725 2.325 2.43916
vn 0.61403 0.617041 0.492167
v 1.725 2.29583 2.55
vn 0.0102094 0.998635 -0.0512305
v 1.725 2.31856 2.625
vn -0.0869828 0.967259 -0.238418
v 1.725 2.325 2.63036
vn -0.141529 0.28912 -0.946773
v 1.72336 2.4 2.4
vn 0.855464 -0.0515574 0.51529
v 1.725 2.3928 2.4
vn 0.752381 0.321455 0.574969
v 1.725 2.4 2.39713
vn 0.845324 0.133559 0.51729
v 1.67782 2.4 2.475
vn 0.817026 -0.0492433 0.574494
v 1.725 2.4 2.64221
vn -0.208405 0.0448957 -0.977012
v 1.725 2.40725 2.4
vn 0.770907 -0.380744 0.510624
v 1.70259 2.475 2.475
vn 0.750956 -0.377987 0.541471
v 1.725 2.475 2.43909
vn 0.708774 -0.469123 0.526842
v 1.725 2.475 2.63024
vn -0.19443 -0.178109 -0.964611
v 1.725 2.48911 2.475
vn 0.148395 -0.975798 0.160613
v 1.725 2.50425 2.55
vn 0.0113321 -0.99859 -0.0518693
v 1.725 2.48132 2.625
vn -0.0640425 -0.963109 -0.261379
v 1.76025 2.325 2.4
vn 0.672368 0.578633 0.461632
v 1.8 2.30979 2.4
vn 0.0906698 0.98725 0.130828
v 1.8 2.325 2.32896
vn 0.632806 0.662453 0.40089
v 1.8 2.30389 2.475
vn -0.125591 0.990655 -0.0531981
v 1.8 2.31363 2.55
vn -0.230926 0.964072 -0.131297
v 1.73666 2.325 2.625
vn -0.57083 0.237267 -0.786039
v 1.8 2.325 2.57015
vn -0.640668 0.391536 -0.660488
v 1.76948 2.4 2.325
vn 0.871733 0.0131184 0.489806
v 1.8 2.32749 2.325
vn 0.805592 0.385949 0.449516
v 1.8 2.4 2.26457
vn 0.878852 0.0321565 0.47601
v 1.76138 2.4 2.625
vn -0.570895 -0.0830709 -0.81681
v 1.8 2.4 2.59398
vn -0.7195 0.0707015 -0.690885
v 1.8 2.47288 2.325
vn 0.803032 -0.358518 0.47603
v 1.75994 2.475 2.4
vn 0.615512 -0.656886 0.435483
v 1.8 2.475 2.32835
vn 0.676525 -0.632121 0.377806
v 1.7363 2.475 2.625
vn -0.586827 -0.378886 -0.715597
v 1.8 2.475 2.56944
vn -0.685836 -0.280556 -0.671504
v 1.8 2.49035 2.4
vn 0.0757613 -0.989891 0.119897
v 1.8 2.49612 2.475
vn -0.145278 -0.987362 -0.0633241
v 1.8 2.48609 2.55
vn -0.207937 -0.968563 -0.136554
v 1.86071 2.325 2.25
vn 0.739376 0.54043 0.40157
v 1.875 2.31972 2.25
vn 0.0693358 0.992248 0.103135
v 1.875 2.325 2.21855
vn -0.119046 0.933417 0.338468
v 1.80541 2.325 2.325
vn 0.53335 0.752793 0.385799
v 1.875 2.31456 2.325
vn -0.0437095 0.997882 0.0481756
v 1.875 2.3192 2.4
vn -0.217758 0.975236 -0.0386799
v 1.84755 2.325 2.475
vn -0.772056 0.499707 -0.392712
v 1.875 2.325 2.42351
vn -0.709737 0.611496 -0.34978
v 1.81349 2.325 2.55
vn -0.840881 0.269202 -0.46952
v 1.84699 2.4 2.175
vn 0.917149 -0.0220941 0.397931
v 1.875 2.34351 2.175
vn 0.476624 0.806626 0.349549
v 1.875 2.4 2.11051
vn 0.819128 0.121438 0.560608
v 1.80796 2.4 2.25
vn 0.84392 -0.0111821 0.536352
v 1.875 2.39503 2.475
vn -0.861374 0.294809 -0.413669
v 1.83099 2.4 2.55
vn -0.866989 -0.0128952 -0.49816
v 1.875 2.4 2.47679
vn -0.81879 0.281443 -0.500373
v 1.875 2.45541 2.175
vn 0.477591 -0.835436 0.271943
v 1.86111 2.475 2.25
vn 0.624931 -0.683195 0.377764
v 1.875 2.475 2.22043
vn 0.519458 -0.785236 0.336999
v 1.80464 2.475 2.325
vn 0.408886 -0.841629 0.352807
v 1.84713 2.475 2.475
vn -0.752279 -0.526534 -0.396029
v 1.875 2.40487 2.475
vn -0.822779 -0.316807 -0.471878
v 1.875 2.475 2.42308
vn -0.834427 -0.384881 -0.39446
v 1.81306 2.475 2.55
vn -0.776185 -0.516256 -0.361963
v 1.875 2.48012 2.25
vn -0.097816 -0.993713 0.054459
v 1.875 2.48539 2.325
vn -0.0347328 -0.997532 0.0610153
v 1.875 2.48077 2.4
vn -0.232079 -0.970775 -0.0611235
v 1.94002 2.325 2.175
vn 0.38362 0.895261 0.226593
v 1.95 2.3239 2.175
vn 0 1 0
v 1.95 2.325 2.1363
vn -0.137461 0.986494 -0.0890692
v 1.91697 2.325 2.25
vn -0.519374 0.840403 -0.154834
v 1.95 2.325 2.19094
vn -5.59997e-17 0.986421 -0.164239
v 1.90296 2.325 2.325
vn -0.741365 0.651227 -0.162115
v 1.88352 2.325 2.4
vn -0.856019 0.388471 -0.341061
v 1.94326 2.4 1.95
vn 0.883226 -0.341521 0.321365
v 1.95 2.3849 1.95
vn 0.574205 0.786715 0.226645
v 1.95 2.4 1.93092
vn 0.806953 0.472073 0.354928
v 1.91384 2.4 2.025
vn 0.921901 -0.188086 0.338707
v 1.95 2.34425 2.025
vn 0.37801 0.898308 0.223944
v 1.87987 2.4 2.1
vn 0.917137 0.25688 0.30475
v 1.95 2.32648 2.1
vn 0.21666 0.96197 0.16635
v 1.95 2.33639 2.25
vn -0.517583 0.835807 -0.183124
v 1.94834 2.4 2.325
vn -0.930796 -0.0107876 -0.36538
v 1.95 2.4 2.32148
vn -0.850737 0.202401 -0.485058
v 1.91075 2.4 2.4
vn -0.910359 -0.110608 -0.398764
v 1.8759 2.4 2.475
vn -0.913775 -0.0297418 -0.405131
v 1.95 2.41523 1.95
vn 0.552376 -0.805515 0.214538
v 1.95 2.45548 2.025
vn 0.293852 -0.935476 0.196305
v 1.95 2.47311 2.1
vn 0.197491 -0.955538 0.218961
v 1.94008 2.475 2.175
vn 0.26683 -0.963744 0
v 1.95 2.475 2.13974
vn 0.243295 -0.968148 0.0591298
v 1.91686 2.475 2.25
vn -0.496793 -0.865421 -0.0651391
v 1.95 2.46383 2.25
vn -0.541528 -0.802556 -0.250302
v 1.95 2.475 2.19213
vn -0.378048 -0.90799 -0.180647
v 1.90287 2.475 2.325
vn -0.740498 -0.636927 -0.214444
v 1.88348 2.475 2.4
vn -0.847096 -0.441889 -0.295233
v 1.95 2.47617 2.175
vn 0 -1 0
v 1.95276 2.325 2.175
vn -0.823817 0.542791 -0.163413
v 2.02157 2.4 1.725
vn 0.894301 -0.369698 0.252088
v 2.025 2.39145 1.725
vn 0.602339 0.78224 0.159026
v 2.025 2.4 1.71417
vn 0.801745 0.43781 0.406851
v 1.99923 2.4 1.8
vn 0.9405 -0.195463 0.277947
v 2.025 2.35782 1.8
vn 0.411427 0.891043 0.191756
v 1.9719 2.4 1.875
vn 0.940588 0.0223977 0.338811
v 2.025 2.33957 1.875
vn 0.368779 0.905877 0.2083
v 2.025 2.33281 1.95
vn -0.159847 0.981504 -0.105352
v 2.025 2.33903 2.025
vn -0.315872 0.943878 -0.0965313
v 2.025 2.36731 2.1
vn -0.580755 0.783917 -0.219541
v 2.0098 2.4 2.175
vn -0.899547 0.231653 -0.370341
v 2.025 2.4 2.13824
vn -0.779191 -0.568238 -0.264514
v 1.97829 2.4 2.25
vn -0.954841 -0.00495083 -0.297077
v 2.025 2.4087 1.725
vn 0.603445 -0.774008 0.191746
v 2.025 2.44259 1.8
vn 0.334239 -0.926907 0.170668
v 2.025 2.46088 1.875
vn 0.416588 -0.882646 0.217694
v 2.025 2.46724 1.95
vn -0.268649 -0.952091 -0.146116
v 2.025 2.46044 2.025
vn -0.272658 -0.959025 -0.0769926
v 2.025 2.4325 2.1
vn -0.43922 -0.869977 -0.22411
v 1.95296 2.475 2.175
vn -0.757546 -0.631353 -0.165883
v 2.05763 2.4 1.65
vn 0.790233 -0.0509893 0.610681
v 2.1 2.33965 1.65
vn 0.276816 0.922797 0.267991
v 2.1 2.4 1.62018
vn 0.236715 0.143656 0.9609
v 2.1 2.33096 1.725
vn 0.00218664 0.999837 -0.0178962
v 2.1 2.34234 1.8
vn -0.223833 0.965816 -0.130762
v 2.1 2.36312 1.875
vn -0.501791 0.850641 -0.156892
v 2.09526 2.4 1.95
vn -0.939413 -0.0683563 -0.335904
v 2.1 2.4 1.93695
vn -0.830217 0.413678 -0.373646
v 2.06652 2.4 2.025
vn -0.945767 -0.15631 -0.284767
v 2.03861 2.4 2.1
vn -0.923054 -0.241274 -0.299596
v 2.1 2.46064 1.65
vn 0.240421 -0.890168 0.387039
v 2.1 2.46952 1.725
vn 0.00191017 -0.999855 -0.0169276
v 2.1 2.4581 1.8
vn -0.279811 -0.948823 -0.146423
v 2.1 2.43694 1.875
vn -0.453985 -0.879966 -0.139848
v 2.175 2.33705 1.65
vn -0.378642 0.865264 0.328554
v 2.175 2.4 1.61228
vn -0.196983 -0.119543 0.973092
v 2.175 2.39112 1.725
vn -0.581843 0.768794 -0.265357
v 2.1464 2.4 1.8
vn -0.937874 0.039316 -0.34474
v 2.175 2.4 1.73403
vn -0.792109 0.486664 -0.368404
v 2.12032 2.4 1.875
vn -0.932232 -0.224263 -0.283989
v 2.175 2.46302 1.65
vn -0.51489 -0.855891 0.0483651
v 2.175 2.40898 1.725
vn -0.553369 -0.792101 -0.257601
v 2.2084 2.4 1.65
vn -0.9997 0.017693 0.0169624
v 2.17851 2.4 1.725
vn -0.873538 -0.351367 -0.336857
f 3//3 1//1 2//2
f 2//2 4//4 5//5
f 1//1 4//4 2//2
f 5//5 4//4 6//6
f 8//8 1//1 3//3
f 7//7 1//1 8//8
f 1//1 7//7 4//4
f 4//4 7//7 9//9
f 6//6 9//9 10//10
f 4//4 9//9 6//6
f 12//12 7//7 8//8
f 11//11 7//7 12//12
f 7//7 11//11 9//9
f 9//9 11//11 13//13
f 10//10 13//13 14//14
f 9//9 13//13 10//10
f 12//12 15//15 11//11
f 11//11 16//16 13//13
f 15//15 16//16 11//11
f 13//13 16//16 14//14
f 19//19 17//17 18//18
f 3//3 18//18 17//17
f 3//3 2//2 18//18
f 2//2 20//20 18//18
f 20//20 2//2 21//21
f 2//2 5//5 21//21
f 5//5 22//22 21//21
f 6//6 22//22 5//5
f 25//25 23//23 24//24
f 24//24 17//17 19//19
f 24//24 23//23 17//17
f 23//23 26//26 17//17
f 17//17 26//26 8//8
f 3//3 17//17 8//8
f 22//22 6//6 27//27
f 27//27 6//6 10//10
f 25//25 28//28 23//23
f 30//30 23//23 28//28
f 30//30 29//29 23//23
f 29//29 26//26 23//23
f 26//26 29//29 12//12
f 8//8 26//26 12//12
f 27//27 10//10 31//31
f 31//31 10//10 14//14
f 30//30 32//32 29//29
f 29//29 15//15 12//12
f 29//29 32//32 15//15
f 32//32 33//33 15//15
f 33//33 34//34 15//15
f 15//15 34//34 16//16
f 34//34 14//14 16//16
f 31//31 14//14 34//34
f 37//37 35//35 36//36
f 19//19 36//36 35//35
f 19//19 18//18 36//36
f 18//18 38//38 36//36
f 38//38 18//18 39//39
f 18//18 20//20 39//39
f 41//41 21//21 40//40
f 41//41 39//39 21//21
f 39//39 20//20 21//21
f 21//21 22//22 40//40
f 44//44 42//42 43//43
f 35//35 25//25 24//24
f 37//37 25//25 35//35
f 37//37 42//42 25//25
f 37//37 43//43 42//42
f 35//35 24//24 19//19
f 46//46 41//41 40//40
f 45//45 46//46 40//40
f 40//40 27//27 45//45
f 22//22 27//27 40//40
f 44//44 47//47 42//42
f 49//49 48//48 28//28
f 47//47 49//49 28//28
f 47//47 28//28 25//25
f 47//47 25//25 42//42
f 28//28 48//48 30//30
f 51//51 46//46 45//45
f 50//50 51//51 45//45
f 45//45 31//31 50//50
f 27//27 31//31 45//45
f 49//49 52//52 48//48
f 48//48 32//32 30//30
f 48//48 52//52 32//32
f 52//52 53//53 32//32
f 53//53 54//54 32//32
f 32//32 54//54 33//33
f 50//50 54//54 51//51
f 50//50 34//34 54//54
f 34//34 33//33 54//54
f 50//50 31//31 34//34
f 57//57 55//55 56//56
f 56//56 58//58 59//59
f 55//55 58//58 56//56
f 37//37 59//59 58//58
f 37//37 36//36 59//59
f 36//36 60//60 59//59
f 62//62 38//38 61//61
f 62//62 60//60 38//38
f 60//60 36//36 38//38
f 39//39 61//61 38//38
f 63//63 61//61 39//39
f 39//39 41//41 63//63
f 66//66 64//64 65//65
f 65//65 55//55 57//57
f 65//65 64//64 55//55
f 64//64 67//67 55//55
f 44//44 43//43 58//58
f 44//44 58//58 67//67
f 67//67 58//58 55//55
f 58//58 43//43 37//37
f 62//62 61//61 68//68
f 70//70 68//68 61//61
f 70//70 61//61 69//69
f 69//69 61//61 63//63
f 63//63 46//46 69//69
f 41//41 46//46 63//63
f 66//66 71//71 64//64
f 73//73 64//64 71//71
f 73//73 72//72 64//64
f 72//72 67//67 64//64
f 47//47 44//44 67//67
f 47//47 67//67 74//74
f 74//74 67//67 72//72
f 47//47 74//74 49//49
f 77//77 76//76 75//75
f 76//76 70//70 69//69
f 76//76 69//69 75//75
f 75//75 69//69 78//78
f 69//69 51//51 78//78
f 46//46 51//51 69//69
f 73//73 79//79 72//72
f 72//72 80//80 74//74
f 79//79 80//80 72//72
f 74//74 52//52 49//49
f 74//74 80//80 52//52
f 80//80 81//81 52//52
f 75//75 81//81 77//77
f 75//75 53//53 81//81
f 53//53 52//52 81//81
f 78//78 53//53 75//75
f 54//54 53//53 78//78
f 78//78 51//51 54//54
f 84//84 82//82 83//83
f 86//86 83//83 82//82
f 85//85 57//57 56//56
f 59//59 85//85 56//56
f 87//87 85//85 59//59
f 60//60 87//87 59//59
f 88//88 87//87 60//60
f 60//60 62//62 88//88
f 91//91 89//89 90//90
f 90//90 92//92 93//93
f 89//89 92//92 90//90
f 93//93 94//94 95//95
f 92//92 94//94 93//93
f 82//82 66//66 65//65
f 84//84 66//66 82//82
f 84//84 94//94 66//66
f 84//84 95//95 94//94
f 57//57 85//85 96//96
f 57//57 96//96 65//65
f 86//86 82//82 96//96
f 82//82 65//65 96//96
f 98//98 96//96 85//85
f 98//98 85//85 97//97
f 97//97 85//85 87//87
f 87//87 88//88 97//97
f 88//88 99//99 97//97
f 68//68 88//88 62//62
f 68//68 100//100 88//88
f 100//100 99//99 88//88
f 68//68 70//70 100//100
f 91//91 101//101 89//89
f 89//89 102//102 92//92
f 101//101 102//102 89//89
f 92//92 103//103 94//94
f 102//102 103//103 92//92
f 105//105 104//104 71//71
f 103//103 105//105 71//71
f 103//103 71//71 66//66
f 103//103 66//66 94//94
f 106//106 73//73 71//71
f 106//106 71//71 107//107
f 104//104 108//108 71//71
f 108//108 107//107 71//71
f 107//107 98//98 97//97
f 107//107 97//97 106//106
f 106//106 97//97 109//109
f 97//97 99//99 109//109
f 99//99 110//110 109//109
f 77//77 100//100 76//76
f 77//77 110//110 100//100
f 110//110 99//99 100//100
f 100//100 70//70 76//76
f 105//105 111//111 104//104
f 104//104 111//111 108//108
f 73//73 106//106 79//79
f 109//109 79//79 106//106
f 80//80 79//79 109//109
f 110//110 80//80 109//109
f 81//81 80//80 110//110
f 110//110 77//77 81//81
f 83//83 112//112 84//84
f 83//83 86//86 112//112
f 115//115 113//113 114//114
f 114//114 116//116 117//117
f 113//113 116//116 114//114
f 117//117 118//118 119//119
f 116//116 118//118 117//117
f 91//91 119//119 118//118
f 91//91 90//90 119//119
f 90//90 120//120 119//119
f 120//120 90//90 121//121
f 90//90 93//93 121//121
f 121//121 93//93 122//122
f 93//93 95//95 122//122
f 84//84 122//122 95//95
f 84//84 123//123 122//122
f 84//84 112//112 123//123
f 123//123 124//124 122//122
f 96//96 112//112 86//86
f 96//96 125//125 112//112
f 125//125 123//123 112//112
f 96//96 98//98 125//125
f 115//115 126//126 113//113
f 113//113 127//127 116//116
f 126//126 127//127 113//113
f 116//116 128//128 118//118
f 127//127 128//128 116//116
f 118//118 101//101 91//91
f 118//118 128//128 101//101
f 128//128 129//129 101//101
f 129//129 130//130 101//101
f 101//101 130//130 102//102
f 130//130 131//131 102//102
f 102//102 131//131 103//103
f 124//124 123//123 132//132
f 124//124 132//132 103//103
f 124//124 103//103 131//131
f 105//105 103//103 132//132
f 108//108 125//125 107//107
f 108//108 132//132 125//125
f 132//132 123//123 125//125
f 125//125 98//98 107//107
f 132//132 111//111 105//105
f 132//132 108//108 111//111
f 135//135 133//133 134//134
f 115//115 134//134 133//133
f 115//115 114//114 134//134
f 114//114 136//136 134//134
f 136//136 114//114 137//137
f 114//114 117//117 137//137
f 137//137 117//117 138//138
f 117//117 119//119 138//138
f 140//140 120//120 139//139
f 140//140 138//138 120//120
f 138//138 119//119 120//120
f 121//121 139//139 120//120
f 141//141 139//139 121//121
f 122//122 141//141 121//121
f 142//142 141//141 122//122
f 122//122 124//124 142//142
f 135//135 143//143 133//133
f 133//133 126//126 115//115
f 133//133 143//143 126//126
f 143//143 144//144 126//126
f 144//144 145//145 126//126
f 126//126 145//145 127//127
f 145//145 146//146 127//127
f 127//127 146//146 128//128
f 139//139 146//146 140//140
f 139//139 129//129 146//146
f 129//129 128//128 146//146
f 141//141 129//129 139//139
f 130//130 129//129 141//141
f 142//142 130//130 141//141
f 131//131 130//130 142//142
f 142//142 124//124 131//131
f 135//135 147//147 148//148
f 134//134 147//147 135//135
f 147//147 134//134 149//149
f 134//134 136//136 149//149
f 151//151 137//137 150//150
f 151//151 149//149 137//137
f 149//149 136//136 137//137
f 138//138 150//150 137//137
f 152//152 150//150 138//138
f 138//138 140//140 152//152
f 148//148 143//143 135//135
f 153//153 143//143 148//148
f 153//153 154//154 143//143
f 143//143 154//154 144//144
f 150//150 154//154 151//151
f 150//150 145//145 154//154
f 145//145 144//144 154//154
f 152//152 145//145 150//150
f 146//146 145//145 152//152
f 152//152 140//140 146//146
f 147//147 155//155 148//148
f 149//149 155//155 147//147
f 156//156 155//155 149//149
f 149//149 151//151 156//156
f 155//155 153//153 148//148
f 156//156 153//153 155//155
f 154//154 153//153 156//156
f 156//156 151//151 154//154
